M48
; DRILL file {KiCad 6.0.4-6f826c9f35~116~ubuntu18.04.1} date Tue 21 Jun 2022 09:58:37 AM EDT
; FORMAT={-:-/ absolute / inch / decimal}
; #@! TF.CreationDate,2022-06-21T09:58:37-04:00
; #@! TF.GenerationSoftware,Kicad,Pcbnew,6.0.4-6f826c9f35~116~ubuntu18.04.1
; #@! TF.FileFunction,Plated,1,2,PTH
FMAT,2
INCH
; #@! TA.AperFunction,Plated,PTH,ComponentDrill
T1C0.0118
; #@! TA.AperFunction,Plated,PTH,ViaDrill
T2C0.0157
; #@! TA.AperFunction,Plated,PTH,ComponentDrill
T3C0.0197
; #@! TA.AperFunction,Plated,PTH,ComponentDrill
T4C0.0350
; #@! TA.AperFunction,Plated,PTH,ComponentDrill
T5C0.0354
; #@! TA.AperFunction,Plated,PTH,ComponentDrill
T6C0.0390
; #@! TA.AperFunction,Plated,PTH,ComponentDrill
T7C0.0394
; #@! TA.AperFunction,Plated,PTH,ComponentDrill
T8C0.0510
; #@! TA.AperFunction,Plated,PTH,ComponentDrill
T9C0.0550
; #@! TA.AperFunction,Plated,PTH,ComponentDrill
T10C0.0650
; #@! TA.AperFunction,Plated,PTH,ComponentDrill
T11C0.1260
%
G90
G05
T1
X5.5528Y-3.1658
X5.6079Y-3.1658
T2
X4.3247Y-2.4147
X4.4998Y-2.5398
X4.54Y-2.54
X4.725Y-4.475
X4.7599Y-3.3566
X4.7985Y-3.3489
X4.82Y-3.23
X4.975Y-4.125
X5.075Y-4.675
X5.225Y-4.25
X5.275Y-3.325
X5.45Y-3.775
X5.55Y-3.775
X5.65Y-3.775
X5.7Y-4.05
X5.7Y-4.175
X5.8Y-2.8
X5.8Y-2.9
X5.8Y-3.0
X5.8Y-4.17
X5.8Y-4.47
X6.08Y-4.77
X6.1287Y-4.4751
X6.1374Y-4.5135
X6.1505Y-4.6294
X6.175Y-4.525
X6.1884Y-4.6192
X6.2Y-3.7
X6.2135Y-4.5018
X6.2156Y-2.6441
X6.2306Y-3.2173
X6.25Y-3.95
X6.2788Y-4.0209
X6.3462Y-2.4356
X6.35Y-4.175
X6.35Y-4.55
X6.3712Y-2.6456
X6.3965Y-3.0083
X6.3965Y-3.6912
X6.4215Y-4.4747
X6.425Y-2.45
X6.45Y-3.75
X6.45Y-4.55
X6.475Y-2.625
X6.475Y-3.125
X6.525Y-3.625
X6.6Y-3.975
X6.61Y-4.77
X6.625Y-4.675
X6.825Y-2.65
X6.825Y-3.375
X6.935Y-4.77
X6.95Y-2.35
X6.995Y-4.83
X7.0Y-2.45
X7.0Y-2.875
X7.025Y-2.8
X7.05Y-2.55
X7.0529Y-2.6043
X7.1305Y-2.4945
X7.1593Y-2.3247
X7.1778Y-2.6035
X7.1798Y-2.3452
X7.2066Y-2.3719
X7.225Y-2.55
X7.229Y-2.2368
X7.25Y-2.75
X7.275Y-4.1
X7.35Y-3.875
X7.35Y-4.1
X7.375Y-2.95
X7.375Y-3.0785
X7.4Y-4.4
X7.4082Y-3.875
X7.44Y-4.37
X7.62Y-2.25
X7.7Y-3.98
X7.925Y-4.55
X8.075Y-4.0
X8.0885Y-3.56
X8.09Y-3.21
X8.0965Y-3.343
X8.1Y-2.38
X8.23Y-2.46
X8.4075Y-2.4675
T3
X4.6555Y-2.475
X4.6832Y-2.4082
X4.6832Y-2.5418
X4.75Y-2.3805
X4.75Y-2.5695
X4.8168Y-2.4082
X4.8168Y-2.5418
X4.8445Y-2.475
X4.9055Y-4.4
X4.9332Y-4.3332
X4.9332Y-4.4668
X5.0Y-4.3055
X5.0Y-4.4945
X5.0668Y-4.3332
X5.0668Y-4.4668
X5.0945Y-4.4
X7.6055Y-4.4
X7.6332Y-4.3332
X7.6332Y-4.4668
X7.7Y-4.3055
X7.7Y-4.4945
X7.7668Y-4.3332
X7.7668Y-4.4668
X7.7945Y-4.4
X7.8473Y-2.475
X7.875Y-2.4082
X7.875Y-2.5418
X7.9418Y-2.3805
X7.9418Y-2.5695
X8.0086Y-2.4082
X8.0086Y-2.5418
X8.0363Y-2.475
T4
X4.05Y-3.15
X4.05Y-3.25
X4.05Y-3.35
X4.35Y-3.65
X4.45Y-3.65
X4.55Y-3.65
X7.85Y-3.15
X7.85Y-3.25
X7.85Y-3.35
X8.15Y-3.65
X8.25Y-3.65
X8.35Y-3.65
T5
X4.325Y-2.75
X4.325Y-2.95
X4.575Y-2.75
X4.575Y-2.95
X8.125Y-2.75
X8.125Y-2.95
X8.375Y-2.75
X8.375Y-2.95
T6
X4.4028Y-2.18
X4.58Y-2.18
X8.1228Y-2.18
X8.3Y-2.18
T7
X5.9516Y-2.55
X6.05Y-2.55
X6.2Y-2.35
X6.3Y-2.35
X6.4Y-2.35
X6.5Y-2.35
X7.71Y-2.37
X7.71Y-2.47
X7.71Y-2.57
X7.71Y-2.67
X7.71Y-2.77
X7.71Y-2.87
T8
X4.3534Y-2.278
X4.6294Y-2.278
X8.0734Y-2.278
X8.3494Y-2.278
T9
X4.15Y-2.9875
X4.15Y-3.5125
X4.75Y-2.9875
X4.75Y-3.5125
X7.95Y-2.9875
X7.95Y-3.5125
X8.55Y-2.9875
X8.55Y-3.5125
T10
X5.138Y-2.325
X5.325Y-2.325
X5.512Y-2.325
T11
X4.75Y-2.475
X5.0Y-4.4
X7.7Y-4.4
X7.9418Y-2.475
T0
M30
