%TF.GenerationSoftware,KiCad,Pcbnew,6.0.4-6f826c9f35~116~ubuntu18.04.1*%
%TF.CreationDate,2022-06-21T09:58:33-04:00*%
%TF.ProjectId,Makers-Unified-Controller,4d616b65-7273-42d5-956e-69666965642d,rev?*%
%TF.SameCoordinates,Original*%
%TF.FileFunction,Paste,Top*%
%TF.FilePolarity,Positive*%
%FSLAX46Y46*%
G04 Gerber Fmt 4.6, Leading zero omitted, Abs format (unit mm)*
G04 Created by KiCad (PCBNEW 6.0.4-6f826c9f35~116~ubuntu18.04.1) date 2022-06-21 09:58:33*
%MOMM*%
%LPD*%
G01*
G04 APERTURE LIST*
G04 Aperture macros list*
%AMRoundRect*
0 Rectangle with rounded corners*
0 $1 Rounding radius*
0 $2 $3 $4 $5 $6 $7 $8 $9 X,Y pos of 4 corners*
0 Add a 4 corners polygon primitive as box body*
4,1,4,$2,$3,$4,$5,$6,$7,$8,$9,$2,$3,0*
0 Add four circle primitives for the rounded corners*
1,1,$1+$1,$2,$3*
1,1,$1+$1,$4,$5*
1,1,$1+$1,$6,$7*
1,1,$1+$1,$8,$9*
0 Add four rect primitives between the rounded corners*
20,1,$1+$1,$2,$3,$4,$5,0*
20,1,$1+$1,$4,$5,$6,$7,0*
20,1,$1+$1,$6,$7,$8,$9,0*
20,1,$1+$1,$8,$9,$2,$3,0*%
G04 Aperture macros list end*
%ADD10RoundRect,0.250000X-0.337500X-0.475000X0.337500X-0.475000X0.337500X0.475000X-0.337500X0.475000X0*%
%ADD11RoundRect,0.250000X-0.475000X0.337500X-0.475000X-0.337500X0.475000X-0.337500X0.475000X0.337500X0*%
%ADD12RoundRect,0.249999X0.450001X-0.325001X0.450001X0.325001X-0.450001X0.325001X-0.450001X-0.325001X0*%
%ADD13R,0.400000X1.350000*%
%ADD14R,2.100000X1.600000*%
%ADD15R,1.900000X1.900000*%
%ADD16R,1.800000X1.900000*%
%ADD17RoundRect,0.249999X0.350001X0.450001X-0.350001X0.450001X-0.350001X-0.450001X0.350001X-0.450001X0*%
%ADD18RoundRect,0.249999X-0.350001X-0.450001X0.350001X-0.450001X0.350001X0.450001X-0.350001X0.450001X0*%
%ADD19RoundRect,0.249999X-0.450001X0.350001X-0.450001X-0.350001X0.450001X-0.350001X0.450001X0.350001X0*%
%ADD20RoundRect,0.249999X0.450001X-0.350001X0.450001X0.350001X-0.450001X0.350001X-0.450001X-0.350001X0*%
%ADD21R,2.100000X1.400000*%
%ADD22R,1.400000X2.100000*%
%ADD23R,2.000000X0.900000*%
%ADD24R,0.900000X2.000000*%
%ADD25R,5.000000X5.000000*%
%ADD26RoundRect,0.250000X0.337500X0.475000X-0.337500X0.475000X-0.337500X-0.475000X0.337500X-0.475000X0*%
%ADD27R,2.500000X1.800000*%
%ADD28RoundRect,0.150000X-0.150000X0.587500X-0.150000X-0.587500X0.150000X-0.587500X0.150000X0.587500X0*%
%ADD29RoundRect,0.150000X0.150000X-0.512500X0.150000X0.512500X-0.150000X0.512500X-0.150000X-0.512500X0*%
%ADD30RoundRect,0.250000X-0.350000X-0.450000X0.350000X-0.450000X0.350000X0.450000X-0.350000X0.450000X0*%
%ADD31RoundRect,0.250000X-0.450000X0.350000X-0.450000X-0.350000X0.450000X-0.350000X0.450000X0.350000X0*%
%ADD32R,2.400000X1.500000*%
%ADD33R,0.400000X1.200000*%
%ADD34RoundRect,0.130000X-0.305000X0.130000X-0.305000X-0.130000X0.305000X-0.130000X0.305000X0.130000X0*%
%ADD35RoundRect,0.062500X-0.062500X0.375000X-0.062500X-0.375000X0.062500X-0.375000X0.062500X0.375000X0*%
%ADD36RoundRect,0.250000X0.350000X0.450000X-0.350000X0.450000X-0.350000X-0.450000X0.350000X-0.450000X0*%
G04 APERTURE END LIST*
D10*
%TO.C,C6*%
X172466000Y-121158000D03*
X174541000Y-121158000D03*
%TD*%
D11*
%TO.C,C7*%
X179324000Y-119126000D03*
X179324000Y-121201000D03*
%TD*%
D10*
%TO.C,C8*%
X172466000Y-119126000D03*
X174541000Y-119126000D03*
%TD*%
D12*
%TO.C,D2*%
X135255000Y-85870000D03*
X135255000Y-83820000D03*
%TD*%
%TO.C,D3*%
X187071000Y-85870000D03*
X187071000Y-83820000D03*
%TD*%
D13*
%TO.C,J1*%
X189711000Y-57158000D03*
X189061000Y-57158000D03*
X188411000Y-57158000D03*
X187761000Y-57158000D03*
X187111000Y-57158000D03*
D14*
X185311000Y-57033000D03*
D15*
X187211000Y-54483000D03*
X189611000Y-54483000D03*
D16*
X192211000Y-54483000D03*
X184611000Y-54483000D03*
D14*
X191511000Y-57033000D03*
%TD*%
D17*
%TO.C,R2*%
X113030000Y-63627000D03*
X111030000Y-63627000D03*
%TD*%
D18*
%TO.C,R5*%
X210090000Y-65786000D03*
X212090000Y-65786000D03*
%TD*%
D17*
%TO.C,R8*%
X167989000Y-97536000D03*
X165989000Y-97536000D03*
%TD*%
D18*
%TO.C,R9*%
X210090000Y-62357000D03*
X212090000Y-62357000D03*
%TD*%
%TO.C,R10*%
X155480000Y-88392000D03*
X157480000Y-88392000D03*
%TD*%
D17*
%TO.C,R11*%
X113014000Y-61214000D03*
X111014000Y-61214000D03*
%TD*%
D18*
%TO.C,R12*%
X122682000Y-104902000D03*
X124682000Y-104902000D03*
%TD*%
D19*
%TO.C,R13*%
X133858000Y-106934000D03*
X133858000Y-108934000D03*
%TD*%
D20*
%TO.C,R15*%
X120142000Y-116808000D03*
X120142000Y-114808000D03*
%TD*%
%TO.C,R17*%
X204724000Y-104489000D03*
X204724000Y-102489000D03*
%TD*%
%TO.C,R18*%
X200406000Y-118586000D03*
X200406000Y-116586000D03*
%TD*%
D19*
%TO.C,R19*%
X135255000Y-79645000D03*
X135255000Y-81645000D03*
%TD*%
D18*
%TO.C,R20*%
X181864000Y-104394000D03*
X183864000Y-104394000D03*
%TD*%
D19*
%TO.C,R21*%
X187071000Y-79518000D03*
X187071000Y-81518000D03*
%TD*%
D21*
%TO.C,SW2*%
X166392000Y-90714000D03*
X175492000Y-90714000D03*
X166392000Y-95214000D03*
X175492000Y-95214000D03*
%TD*%
%TO.C,SW3*%
X157204000Y-95214000D03*
X148104000Y-95214000D03*
X157204000Y-90714000D03*
X148104000Y-90714000D03*
%TD*%
%TO.C,SW6*%
X122450000Y-98080000D03*
X131550000Y-98080000D03*
X122450000Y-102580000D03*
X131550000Y-102580000D03*
%TD*%
D22*
%TO.C,SW7*%
X140680000Y-107210000D03*
X140680000Y-116310000D03*
X136180000Y-107210000D03*
X136180000Y-116310000D03*
%TD*%
D21*
%TO.C,SW8*%
X131550000Y-125440000D03*
X122450000Y-125440000D03*
X131550000Y-120940000D03*
X122450000Y-120940000D03*
%TD*%
D22*
%TO.C,SW9*%
X113320000Y-116310000D03*
X113320000Y-107210000D03*
X117820000Y-116310000D03*
X117820000Y-107210000D03*
%TD*%
D21*
%TO.C,SW10*%
X191030000Y-98080000D03*
X200130000Y-98080000D03*
X191030000Y-102580000D03*
X200130000Y-102580000D03*
%TD*%
D22*
%TO.C,SW11*%
X209260000Y-107210000D03*
X209260000Y-116310000D03*
X204760000Y-107210000D03*
X204760000Y-116310000D03*
%TD*%
D21*
%TO.C,SW12*%
X200130000Y-125440000D03*
X191030000Y-125440000D03*
X200130000Y-120940000D03*
X191030000Y-120940000D03*
%TD*%
D22*
%TO.C,SW13*%
X186400000Y-107210000D03*
X186400000Y-116310000D03*
X181900000Y-107210000D03*
X181900000Y-116310000D03*
%TD*%
D23*
%TO.C,U5*%
X169790000Y-121285000D03*
X169790000Y-120015000D03*
X169790000Y-118745000D03*
X169790000Y-117475000D03*
X169790000Y-116205000D03*
X169790000Y-114935000D03*
X169790000Y-113665000D03*
X169790000Y-112395000D03*
X169790000Y-111125000D03*
X169790000Y-109855000D03*
X169790000Y-108585000D03*
X169790000Y-107315000D03*
X169790000Y-106045000D03*
X169790000Y-104775000D03*
D24*
X167005000Y-103775000D03*
X165735000Y-103775000D03*
X164465000Y-103775000D03*
X163195000Y-103775000D03*
X161925000Y-103775000D03*
X160655000Y-103775000D03*
X159385000Y-103775000D03*
X158115000Y-103775000D03*
X156845000Y-103775000D03*
X155575000Y-103775000D03*
D23*
X152790000Y-104775000D03*
X152790000Y-106045000D03*
X152790000Y-107315000D03*
X152790000Y-108585000D03*
X152790000Y-109855000D03*
X152790000Y-111125000D03*
X152790000Y-112395000D03*
X152790000Y-113665000D03*
X152790000Y-114935000D03*
X152790000Y-116205000D03*
X152790000Y-117475000D03*
X152790000Y-118745000D03*
X152790000Y-120015000D03*
X152790000Y-121285000D03*
D25*
X162290000Y-113785000D03*
%TD*%
D17*
%TO.C,R14*%
X132048000Y-118872000D03*
X130048000Y-118872000D03*
%TD*%
D20*
%TO.C,R16*%
X188468000Y-101330000D03*
X188468000Y-99330000D03*
%TD*%
D10*
%TO.C,C10*%
X147806500Y-121158000D03*
X149881500Y-121158000D03*
%TD*%
D26*
%TO.C,C11*%
X170709500Y-101219000D03*
X168634500Y-101219000D03*
%TD*%
D11*
%TO.C,C13*%
X143510000Y-92540000D03*
X143510000Y-94615000D03*
%TD*%
D27*
%TO.C,D1*%
X149670000Y-55880000D03*
X153670000Y-55880000D03*
%TD*%
D28*
%TO.C,Q2*%
X176675000Y-74325000D03*
X174775000Y-74325000D03*
X175725000Y-76200000D03*
%TD*%
D29*
%TO.C,U3*%
X160340000Y-65907500D03*
X161290000Y-65907500D03*
X162240000Y-65907500D03*
X162240000Y-63632500D03*
X160340000Y-63632500D03*
%TD*%
D10*
%TO.C,C1*%
X181037500Y-69850000D03*
X183112500Y-69850000D03*
%TD*%
%TO.C,C4*%
X143742500Y-76200000D03*
X145817500Y-76200000D03*
%TD*%
D11*
%TO.C,C12*%
X140970000Y-92540000D03*
X140970000Y-94615000D03*
%TD*%
%TO.C,C5*%
X138430000Y-92540000D03*
X138430000Y-94615000D03*
%TD*%
D30*
%TO.C,R4*%
X174995000Y-71120000D03*
X176995000Y-71120000D03*
%TD*%
D31*
%TO.C,R6*%
X153670000Y-58960000D03*
X153670000Y-60960000D03*
%TD*%
D32*
%TO.C,L1*%
X140970000Y-84880000D03*
X140970000Y-90380000D03*
%TD*%
D28*
%TO.C,Q3*%
X180485000Y-74325000D03*
X178585000Y-74325000D03*
X179535000Y-76200000D03*
%TD*%
D33*
%TO.C,U2*%
X178752500Y-67370000D03*
X179387500Y-67370000D03*
X180022500Y-67370000D03*
X180657500Y-67370000D03*
X181292500Y-67370000D03*
X181927500Y-67370000D03*
X182562500Y-67370000D03*
X183197500Y-67370000D03*
X183832500Y-67370000D03*
X184467500Y-67370000D03*
X184467500Y-62170000D03*
X183832500Y-62170000D03*
X183197500Y-62170000D03*
X182562500Y-62170000D03*
X181927500Y-62170000D03*
X181292500Y-62170000D03*
X180657500Y-62170000D03*
X180022500Y-62170000D03*
X179387500Y-62170000D03*
X178752500Y-62170000D03*
%TD*%
D34*
%TO.C,U6*%
X141240000Y-80111250D03*
X142240000Y-80111250D03*
X141240000Y-80711250D03*
X142240000Y-80711250D03*
D35*
X142740000Y-78973750D03*
X142240000Y-78973750D03*
X141740000Y-78973750D03*
X141240000Y-78973750D03*
X140740000Y-78973750D03*
X140740000Y-81848750D03*
X141240000Y-81848750D03*
X141740000Y-81848750D03*
X142240000Y-81848750D03*
X142740000Y-81848750D03*
%TD*%
D10*
%TO.C,C2*%
X143742500Y-71120000D03*
X145817500Y-71120000D03*
%TD*%
%TO.C,C3*%
X143742500Y-73660000D03*
X145817500Y-73660000D03*
%TD*%
D28*
%TO.C,Q1*%
X150810000Y-58752500D03*
X148910000Y-58752500D03*
X149860000Y-60627500D03*
%TD*%
D36*
%TO.C,R3*%
X177995000Y-78740000D03*
X175995000Y-78740000D03*
%TD*%
D26*
%TO.C,C9*%
X180107500Y-59690000D03*
X178032500Y-59690000D03*
%TD*%
D31*
%TO.C,R1*%
X158115000Y-64040000D03*
X158115000Y-66040000D03*
%TD*%
M02*
