%TF.GenerationSoftware,KiCad,Pcbnew,6.0.4-6f826c9f35~116~ubuntu18.04.1*%
%TF.CreationDate,2022-06-21T09:58:33-04:00*%
%TF.ProjectId,Makers-Unified-Controller,4d616b65-7273-42d5-956e-69666965642d,rev?*%
%TF.SameCoordinates,Original*%
%TF.FileFunction,Soldermask,Bot*%
%TF.FilePolarity,Negative*%
%FSLAX46Y46*%
G04 Gerber Fmt 4.6, Leading zero omitted, Abs format (unit mm)*
G04 Created by KiCad (PCBNEW 6.0.4-6f826c9f35~116~ubuntu18.04.1) date 2022-06-21 09:58:33*
%MOMM*%
%LPD*%
G01*
G04 APERTURE LIST*
G04 Aperture macros list*
%AMRoundRect*
0 Rectangle with rounded corners*
0 $1 Rounding radius*
0 $2 $3 $4 $5 $6 $7 $8 $9 X,Y pos of 4 corners*
0 Add a 4 corners polygon primitive as box body*
4,1,4,$2,$3,$4,$5,$6,$7,$8,$9,$2,$3,0*
0 Add four circle primitives for the rounded corners*
1,1,$1+$1,$2,$3*
1,1,$1+$1,$4,$5*
1,1,$1+$1,$6,$7*
1,1,$1+$1,$8,$9*
0 Add four rect primitives between the rounded corners*
20,1,$1+$1,$2,$3,$4,$5,0*
20,1,$1+$1,$4,$5,$6,$7,0*
20,1,$1+$1,$6,$7,$8,$9,0*
20,1,$1+$1,$8,$9,$2,$3,0*%
G04 Aperture macros list end*
%ADD10C,1.778000*%
%ADD11C,2.286000*%
%ADD12C,0.800000*%
%ADD13C,6.400000*%
%ADD14R,1.700000X1.700000*%
%ADD15O,1.700000X1.700000*%
%ADD16C,1.498600*%
%ADD17C,1.803400*%
%ADD18R,2.475000X2.475000*%
%ADD19C,2.475000*%
%ADD20C,1.200000*%
%ADD21RoundRect,0.250000X0.600000X0.750000X-0.600000X0.750000X-0.600000X-0.750000X0.600000X-0.750000X0*%
%ADD22O,1.700000X2.000000*%
G04 APERTURE END LIST*
D10*
%TO.C,U4*%
X199390000Y-85090000D03*
X199390000Y-82550000D03*
X199390000Y-80010000D03*
D11*
X217170000Y-75882500D03*
X217170000Y-89217500D03*
X201930000Y-89217500D03*
X201930000Y-75882500D03*
D10*
X212090000Y-92710000D03*
X209550000Y-92710000D03*
X207010000Y-92710000D03*
X212725000Y-74930000D03*
X206375000Y-74930000D03*
X212725000Y-69850000D03*
X206375000Y-69850000D03*
%TD*%
%TO.C,U1*%
X102870000Y-85090000D03*
X102870000Y-82550000D03*
X102870000Y-80010000D03*
D11*
X120650000Y-75882500D03*
X120650000Y-89217500D03*
X105410000Y-89217500D03*
X105410000Y-75882500D03*
D10*
X115570000Y-92710000D03*
X113030000Y-92710000D03*
X110490000Y-92710000D03*
X116205000Y-74930000D03*
X109855000Y-74930000D03*
X116205000Y-69850000D03*
X109855000Y-69850000D03*
%TD*%
D12*
%TO.C,H1*%
X128697056Y-113457056D03*
X125302944Y-110062944D03*
X128697056Y-110062944D03*
X127000000Y-114160000D03*
X127000000Y-109360000D03*
X124600000Y-111760000D03*
X125302944Y-113457056D03*
D13*
X127000000Y-111760000D03*
D12*
X129400000Y-111760000D03*
%TD*%
%TO.C,H2*%
X203419112Y-64562056D03*
X200025000Y-61167944D03*
X203419112Y-61167944D03*
X201722056Y-65265000D03*
D13*
X201722056Y-62865000D03*
D12*
X204122056Y-62865000D03*
X199322056Y-62865000D03*
X201722056Y-60465000D03*
X200025000Y-64562056D03*
%TD*%
%TO.C,H3*%
X118952944Y-61167944D03*
X122347056Y-64562056D03*
X122347056Y-61167944D03*
D13*
X120650000Y-62865000D03*
D12*
X123050000Y-62865000D03*
X118250000Y-62865000D03*
X118952944Y-64562056D03*
X120650000Y-65265000D03*
X120650000Y-60465000D03*
%TD*%
D13*
%TO.C,H4*%
X195580000Y-111760000D03*
D12*
X197277056Y-110062944D03*
X197277056Y-113457056D03*
X195580000Y-114160000D03*
X193882944Y-110062944D03*
X193180000Y-111760000D03*
X193882944Y-113457056D03*
X195580000Y-109360000D03*
X197980000Y-111760000D03*
%TD*%
D14*
%TO.C,J2*%
X195834000Y-72898000D03*
D15*
X195834000Y-70358000D03*
X195834000Y-67818000D03*
X195834000Y-65278000D03*
X195834000Y-62738000D03*
X195834000Y-60198000D03*
%TD*%
D16*
%TO.C,SW4*%
X210820000Y-55372000D03*
X206319999Y-55372000D03*
D17*
X212075000Y-57862299D03*
X205064999Y-57862299D03*
%TD*%
D16*
%TO.C,SW5*%
X116332000Y-55372000D03*
X111831999Y-55372000D03*
D17*
X117587000Y-57862299D03*
X110576999Y-57862299D03*
%TD*%
D14*
%TO.C,A1*%
X157480000Y-59690000D03*
D15*
X160020000Y-59690000D03*
X162560000Y-59690000D03*
X165100000Y-59690000D03*
%TD*%
D18*
%TO.C,SW1*%
X140005000Y-59055000D03*
D19*
X135255000Y-59055000D03*
X130505000Y-59055000D03*
%TD*%
D20*
%TO.C,J3*%
X155270000Y-66770000D03*
D21*
X153670000Y-64770000D03*
D22*
X151170000Y-64770000D03*
%TD*%
M02*
