%TF.GenerationSoftware,KiCad,Pcbnew,5.1.12-84ad8e8a86~92~ubuntu18.04.1*%
%TF.CreationDate,2021-12-07T10:10:18-05:00*%
%TF.ProjectId,Makers-Unified-Controller,4d616b65-7273-42d5-956e-69666965642d,rev?*%
%TF.SameCoordinates,Original*%
%TF.FileFunction,Legend,Bot*%
%TF.FilePolarity,Positive*%
%FSLAX46Y46*%
G04 Gerber Fmt 4.6, Leading zero omitted, Abs format (unit mm)*
G04 Created by KiCad (PCBNEW 5.1.12-84ad8e8a86~92~ubuntu18.04.1) date 2021-12-07 10:10:18*
%MOMM*%
%LPD*%
G01*
G04 APERTURE LIST*
%ADD10C,0.127000*%
%ADD11C,0.150000*%
G04 APERTURE END LIST*
D10*
%TO.C,BT1*%
X192190000Y-64060000D02*
X192190000Y-121360000D01*
X130390000Y-64060000D02*
X192190000Y-64060000D01*
X130390000Y-121360000D02*
X130390000Y-64060000D01*
X192190000Y-121360000D02*
X130390000Y-121360000D01*
D11*
X193418571Y-117174285D02*
X193466190Y-117317142D01*
X193513809Y-117364761D01*
X193609047Y-117412380D01*
X193751904Y-117412380D01*
X193847142Y-117364761D01*
X193894761Y-117317142D01*
X193942380Y-117221904D01*
X193942380Y-116840952D01*
X192942380Y-116840952D01*
X192942380Y-117174285D01*
X192990000Y-117269523D01*
X193037619Y-117317142D01*
X193132857Y-117364761D01*
X193228095Y-117364761D01*
X193323333Y-117317142D01*
X193370952Y-117269523D01*
X193418571Y-117174285D01*
X193418571Y-116840952D01*
X192942380Y-117698095D02*
X192942380Y-118269523D01*
X193942380Y-117983809D02*
X192942380Y-117983809D01*
X193942380Y-119126666D02*
X193942380Y-118555238D01*
X193942380Y-118840952D02*
X192942380Y-118840952D01*
X193085238Y-118745714D01*
X193180476Y-118650476D01*
X193228095Y-118555238D01*
X155075000Y-58716666D02*
X155075000Y-59783333D01*
X141670000Y-59351666D02*
X141670000Y-60418333D01*
X142203333Y-59885000D02*
X141136666Y-59885000D01*
%TD*%
M02*
