%TF.GenerationSoftware,KiCad,Pcbnew,5.1.12-84ad8e8a86~92~ubuntu18.04.1*%
%TF.CreationDate,2021-12-07T10:10:18-05:00*%
%TF.ProjectId,Makers-Unified-Controller,4d616b65-7273-42d5-956e-69666965642d,rev?*%
%TF.SameCoordinates,Original*%
%TF.FileFunction,Copper,L2,Bot*%
%TF.FilePolarity,Positive*%
%FSLAX46Y46*%
G04 Gerber Fmt 4.6, Leading zero omitted, Abs format (unit mm)*
G04 Created by KiCad (PCBNEW 5.1.12-84ad8e8a86~92~ubuntu18.04.1) date 2021-12-07 10:10:18*
%MOMM*%
%LPD*%
G01*
G04 APERTURE LIST*
%TA.AperFunction,ComponentPad*%
%ADD10C,1.263000*%
%TD*%
%TA.AperFunction,ComponentPad*%
%ADD11C,1.778000*%
%TD*%
%TA.AperFunction,ComponentPad*%
%ADD12C,2.286000*%
%TD*%
%TA.AperFunction,ComponentPad*%
%ADD13C,1.498600*%
%TD*%
%TA.AperFunction,ComponentPad*%
%ADD14C,1.803400*%
%TD*%
%TA.AperFunction,ComponentPad*%
%ADD15R,2.475000X2.475000*%
%TD*%
%TA.AperFunction,ComponentPad*%
%ADD16C,2.475000*%
%TD*%
%TA.AperFunction,ComponentPad*%
%ADD17O,1.700000X1.700000*%
%TD*%
%TA.AperFunction,ComponentPad*%
%ADD18R,1.700000X1.700000*%
%TD*%
%TA.AperFunction,ComponentPad*%
%ADD19C,0.800000*%
%TD*%
%TA.AperFunction,ComponentPad*%
%ADD20C,6.400000*%
%TD*%
%TA.AperFunction,ViaPad*%
%ADD21C,0.800000*%
%TD*%
%TA.AperFunction,Conductor*%
%ADD22C,0.250000*%
%TD*%
%TA.AperFunction,Conductor*%
%ADD23C,1.500000*%
%TD*%
%TA.AperFunction,Conductor*%
%ADD24C,0.254000*%
%TD*%
%TA.AperFunction,Conductor*%
%ADD25C,0.100000*%
%TD*%
G04 APERTURE END LIST*
D10*
%TO.P,BT1,+*%
%TO.N,/BAT+*%
X142240000Y-61910000D03*
%TO.P,BT1,-*%
%TO.N,GND*%
X154940000Y-61910000D03*
%TD*%
D11*
%TO.P,U1,B1A*%
%TO.N,+3V3*%
X109855000Y-69850000D03*
%TO.P,U1,B1B*%
%TO.N,N/C*%
X116205000Y-69850000D03*
%TO.P,U1,B2A*%
%TO.N,/LEFT_JOY_SW*%
X109855000Y-74930000D03*
%TO.P,U1,B2B*%
%TO.N,N/C*%
X116205000Y-74930000D03*
%TO.P,U1,H1*%
%TO.N,+3V3*%
X110490000Y-92710000D03*
%TO.P,U1,H2*%
%TO.N,/LEFT_JOY_X*%
X113030000Y-92710000D03*
%TO.P,U1,H3*%
%TO.N,GND*%
X115570000Y-92710000D03*
D12*
%TO.P,U1,S1*%
X105410000Y-75882500D03*
%TO.P,U1,S2*%
X105410000Y-89217500D03*
%TO.P,U1,S3*%
X120650000Y-89217500D03*
%TO.P,U1,S4*%
X120650000Y-75882500D03*
D11*
%TO.P,U1,V1*%
%TO.N,+3V3*%
X102870000Y-80010000D03*
%TO.P,U1,V2*%
%TO.N,/LEFT_JOY_Y*%
X102870000Y-82550000D03*
%TO.P,U1,V3*%
%TO.N,GND*%
X102870000Y-85090000D03*
%TD*%
%TO.P,U4,B1A*%
%TO.N,+3V3*%
X206375000Y-69850000D03*
%TO.P,U4,B1B*%
%TO.N,N/C*%
X212725000Y-69850000D03*
%TO.P,U4,B2A*%
%TO.N,/RIGHT_JOY_SW*%
X206375000Y-74930000D03*
%TO.P,U4,B2B*%
%TO.N,N/C*%
X212725000Y-74930000D03*
%TO.P,U4,H1*%
%TO.N,+3V3*%
X207010000Y-92710000D03*
%TO.P,U4,H2*%
%TO.N,/RIGHT_JOY_X*%
X209550000Y-92710000D03*
%TO.P,U4,H3*%
%TO.N,GND*%
X212090000Y-92710000D03*
D12*
%TO.P,U4,S1*%
X201930000Y-75882500D03*
%TO.P,U4,S2*%
X201930000Y-89217500D03*
%TO.P,U4,S3*%
X217170000Y-89217500D03*
%TO.P,U4,S4*%
X217170000Y-75882500D03*
D11*
%TO.P,U4,V1*%
%TO.N,+3V3*%
X199390000Y-80010000D03*
%TO.P,U4,V2*%
%TO.N,/RIGHT_JOY_Y*%
X199390000Y-82550000D03*
%TO.P,U4,V3*%
%TO.N,GND*%
X199390000Y-85090000D03*
%TD*%
D13*
%TO.P,SW5,1*%
%TO.N,+3V3*%
X116332000Y-55372000D03*
%TO.P,SW5,2*%
%TO.N,/TRIG_L*%
X111831999Y-55372000D03*
D14*
%TO.P,SW5,3*%
%TO.N,N/C*%
X117587000Y-57862299D03*
%TO.P,SW5,4*%
X110576999Y-57862299D03*
%TD*%
D13*
%TO.P,SW4,1*%
%TO.N,+3V3*%
X210820000Y-55372000D03*
%TO.P,SW4,2*%
%TO.N,/TRIG_R*%
X206319999Y-55372000D03*
D14*
%TO.P,SW4,3*%
%TO.N,N/C*%
X212075000Y-57862299D03*
%TO.P,SW4,4*%
X205064999Y-57862299D03*
%TD*%
D15*
%TO.P,SW1,1*%
%TO.N,/PWR_IN*%
X140005000Y-59055000D03*
D16*
%TO.P,SW1,2*%
%TO.N,Net-(D1-Pad1)*%
X135255000Y-59055000D03*
%TO.P,SW1,3*%
%TO.N,Net-(SW1-Pad3)*%
X130505000Y-59055000D03*
%TD*%
D17*
%TO.P,J2,6*%
%TO.N,+5V*%
X195834000Y-60198000D03*
%TO.P,J2,5*%
%TO.N,GND*%
X195834000Y-62738000D03*
%TO.P,J2,4*%
%TO.N,/BRIDGE_TX*%
X195834000Y-65278000D03*
%TO.P,J2,3*%
%TO.N,/BRIDGE_RX*%
X195834000Y-67818000D03*
%TO.P,J2,2*%
%TO.N,/BRIDGE_DTR*%
X195834000Y-70358000D03*
D18*
%TO.P,J2,1*%
%TO.N,+3V3*%
X195834000Y-72898000D03*
%TD*%
D19*
%TO.P,H4,1*%
%TO.N,N/C*%
X197277056Y-110062944D03*
X195580000Y-109360000D03*
X193882944Y-110062944D03*
X193180000Y-111760000D03*
X193882944Y-113457056D03*
X195580000Y-114160000D03*
X197277056Y-113457056D03*
X197980000Y-111760000D03*
D20*
X195580000Y-111760000D03*
%TD*%
D19*
%TO.P,H3,1*%
%TO.N,N/C*%
X122347056Y-61167944D03*
X120650000Y-60465000D03*
X118952944Y-61167944D03*
X118250000Y-62865000D03*
X118952944Y-64562056D03*
X120650000Y-65265000D03*
X122347056Y-64562056D03*
X123050000Y-62865000D03*
D20*
X120650000Y-62865000D03*
%TD*%
D19*
%TO.P,H2,1*%
%TO.N,N/C*%
X203419112Y-61167944D03*
X201722056Y-60465000D03*
X200025000Y-61167944D03*
X199322056Y-62865000D03*
X200025000Y-64562056D03*
X201722056Y-65265000D03*
X203419112Y-64562056D03*
X204122056Y-62865000D03*
D20*
X201722056Y-62865000D03*
%TD*%
D19*
%TO.P,H1,1*%
%TO.N,N/C*%
X128697056Y-110062944D03*
X127000000Y-109360000D03*
X125302944Y-110062944D03*
X124600000Y-111760000D03*
X125302944Y-113457056D03*
X127000000Y-114160000D03*
X128697056Y-113457056D03*
X129400000Y-111760000D03*
D20*
X127000000Y-111760000D03*
%TD*%
D17*
%TO.P,A1,4*%
%TO.N,/I2C_SDA*%
X165100000Y-59690000D03*
%TO.P,A1,3*%
%TO.N,/I2C_SCL*%
X162560000Y-59690000D03*
%TO.P,A1,2*%
%TO.N,+3V3*%
X160020000Y-59690000D03*
D18*
%TO.P,A1,1*%
%TO.N,GND*%
X157480000Y-59690000D03*
%TD*%
D21*
%TO.N,/I2C_SDA*%
X157528655Y-114113615D03*
%TO.N,/I2C_SCL*%
X155448000Y-118618000D03*
%TO.N,+3V3*%
X183642000Y-62738000D03*
X151193500Y-71120000D03*
X148463000Y-78359000D03*
%TO.N,GND*%
X164084000Y-112014000D03*
X164084000Y-115570000D03*
X160782000Y-115570000D03*
X162306000Y-113792000D03*
X184912000Y-69850000D03*
X183388000Y-57150000D03*
X193548000Y-57150000D03*
X182118000Y-58928000D03*
X185420000Y-58928000D03*
X137160000Y-86360000D03*
X138430000Y-77470000D03*
X138430000Y-79375000D03*
X138430000Y-81280000D03*
X140335000Y-81280000D03*
X142240000Y-81280000D03*
X148590000Y-81280000D03*
X150495000Y-81280000D03*
X152400000Y-81280000D03*
X154305000Y-81280000D03*
X154305000Y-79375000D03*
X154305000Y-77470000D03*
X154305000Y-75565000D03*
X187325000Y-87630000D03*
X212852000Y-64262000D03*
X185420000Y-104394000D03*
X167894000Y-121158000D03*
X176149000Y-121158000D03*
X176022000Y-119126000D03*
X180848000Y-121666000D03*
X200406000Y-115316000D03*
X188468000Y-98044000D03*
X204724000Y-101092000D03*
X154432000Y-121158000D03*
X124968000Y-102870000D03*
X118364000Y-113538000D03*
X129286000Y-120650000D03*
X167132000Y-105156000D03*
X109728000Y-63754000D03*
X109846908Y-61332908D03*
X135636000Y-109134000D03*
X168529000Y-90805000D03*
X155067000Y-94361000D03*
%TO.N,Net-(C1-Pad1)*%
X182245000Y-68072000D03*
X186371782Y-64492159D03*
%TO.N,+5V*%
X154686000Y-54610000D03*
X155702000Y-54610000D03*
X156718000Y-54610000D03*
X157734000Y-54610000D03*
X187325000Y-74930000D03*
X187325000Y-78195010D03*
%TO.N,/BRIDGE_TX*%
X161798000Y-62738000D03*
X156367458Y-115911223D03*
X182118000Y-63754000D03*
%TO.N,/BRIDGE_RX*%
X155956000Y-117348000D03*
X162632530Y-68914191D03*
X183324514Y-69589951D03*
%TO.N,/BRIDGE_DTR*%
X180848000Y-66548000D03*
%TO.N,/IO0*%
X161732508Y-66916742D03*
X161732508Y-108588048D03*
X161732508Y-92570742D03*
%TO.N,/EN*%
X163532552Y-95765260D03*
X163469479Y-65924254D03*
X167640000Y-118872000D03*
%TO.N,/LEFT_JOY_SW*%
X114295340Y-64511340D03*
X121882782Y-85062102D03*
X122428000Y-82042000D03*
%TO.N,/RIGHT_JOY_SW*%
X206248000Y-89154000D03*
X188394543Y-112685990D03*
%TO.N,/TRIG_R*%
X205740000Y-60452000D03*
X209042000Y-62484000D03*
X205486000Y-81534000D03*
X195580000Y-101092000D03*
%TO.N,/TRIG_L*%
X115316000Y-64516000D03*
X147320000Y-113538000D03*
X147320000Y-105918000D03*
X120902257Y-85258556D03*
%TO.N,/RIGHT_JOY_X*%
X205449000Y-90424000D03*
X187960000Y-111760000D03*
%TO.N,/RIGHT_JOY_Y*%
X207264000Y-83058000D03*
X188976000Y-110998000D03*
%TO.N,/D+*%
X188300446Y-60188813D03*
X189786010Y-61271832D03*
%TD*%
D22*
%TO.N,/I2C_SDA*%
X161995999Y-58514999D02*
X161326998Y-59184000D01*
X165100000Y-59690000D02*
X163924999Y-58514999D01*
X163924999Y-58514999D02*
X161995999Y-58514999D01*
X161326998Y-59184000D02*
X161326998Y-62135998D01*
X161007498Y-62455498D02*
X161007498Y-110634772D01*
X161326998Y-62135998D02*
X161007498Y-62455498D01*
X161007498Y-110634772D02*
X157528655Y-114113615D01*
%TO.N,/I2C_SCL*%
X163357520Y-107647680D02*
X162807542Y-107097702D01*
X162807542Y-95008102D02*
X163357531Y-94458117D01*
X163357531Y-68590689D02*
X162907521Y-68140679D01*
X163357520Y-111344883D02*
X163357520Y-107647680D01*
X156084412Y-118618000D02*
X163357520Y-111344883D01*
X155448000Y-118618000D02*
X156084412Y-118618000D01*
X162907521Y-68140679D02*
X162907521Y-66382340D01*
X163357531Y-94458117D02*
X163357531Y-68590689D01*
X162807542Y-107097702D02*
X162807542Y-95008102D01*
X162560000Y-66034820D02*
X162560000Y-59690000D01*
X162907521Y-66382340D02*
X162560000Y-66034820D01*
%TO.N,+3V3*%
X183642000Y-62738000D02*
X192532000Y-62738000D01*
X197009001Y-71722999D02*
X195834000Y-72898000D01*
X197009001Y-64713999D02*
X197009001Y-71722999D01*
X196398001Y-64102999D02*
X197009001Y-64713999D01*
X193896999Y-64102999D02*
X196398001Y-64102999D01*
X192532000Y-62738000D02*
X193896999Y-64102999D01*
X151193500Y-71120000D02*
X151193500Y-77914500D01*
X151193500Y-77914500D02*
X150749000Y-78359000D01*
X150749000Y-78359000D02*
X148463000Y-78359000D01*
D23*
%TO.N,GND*%
X153416000Y-57150000D02*
X193548000Y-57150000D01*
X149684699Y-53672699D02*
X153416000Y-57150000D01*
X115237301Y-53672699D02*
X149684699Y-53672699D01*
X98679000Y-87757000D02*
X98679000Y-72500816D01*
X112903000Y-101981000D02*
X98679000Y-87757000D01*
X112903000Y-117348000D02*
X112903000Y-101981000D01*
X122301000Y-126746000D02*
X112903000Y-117348000D01*
X114632699Y-54277301D02*
X115237301Y-53672699D01*
X141605000Y-126746000D02*
X122301000Y-126746000D01*
X198374000Y-53594000D02*
X198755000Y-53213000D01*
X195834000Y-62738000D02*
X195958002Y-62738000D01*
X198374000Y-60322002D02*
X198374000Y-53594000D01*
X206675965Y-53213000D02*
X209120699Y-55657734D01*
X198755000Y-53213000D02*
X206675965Y-53213000D01*
X195958002Y-62738000D02*
X198374000Y-60322002D01*
X209120699Y-55657734D02*
X209120699Y-58244699D01*
X209120699Y-58244699D02*
X224536000Y-73660000D01*
X114632699Y-56547117D02*
X114632699Y-54277301D01*
X147193000Y-121158000D02*
X141605000Y-126746000D01*
X224536000Y-73660000D02*
X224536000Y-86741000D01*
X224536000Y-86741000D02*
X209423000Y-101854000D01*
X209423000Y-101854000D02*
X209423000Y-117602000D01*
X209423000Y-117602000D02*
X200533000Y-126492000D01*
X181483000Y-126492000D02*
X176149000Y-121158000D01*
X200533000Y-126492000D02*
X181483000Y-126492000D01*
X176149000Y-121158000D02*
X167894000Y-121158000D01*
X167894000Y-121158000D02*
X154432000Y-121158000D01*
X154432000Y-121158000D02*
X147193000Y-121158000D01*
X98679000Y-72500816D02*
X109846908Y-61332908D01*
X109846908Y-61332908D02*
X114632699Y-56547117D01*
D22*
%TO.N,Net-(C1-Pad1)*%
X185824841Y-64492159D02*
X186371782Y-64492159D01*
X182245000Y-68072000D02*
X185824841Y-64492159D01*
D23*
%TO.N,+5V*%
X195834000Y-60198000D02*
X195834000Y-55626000D01*
X195834000Y-55626000D02*
X194818000Y-54610000D01*
X194818000Y-54610000D02*
X157734000Y-54610000D01*
X155702000Y-54610000D02*
X154686000Y-54610000D01*
X156718000Y-54610000D02*
X155702000Y-54610000D01*
X157734000Y-54610000D02*
X156718000Y-54610000D01*
D22*
X187325000Y-74930000D02*
X187325000Y-78195010D01*
%TO.N,/BRIDGE_TX*%
X156767457Y-115511224D02*
X156367458Y-115911223D01*
X162457509Y-108020491D02*
X162457509Y-110210080D01*
X161798000Y-62738000D02*
X161798000Y-65909230D01*
X162457509Y-94085317D02*
X161907520Y-94635302D01*
X161907520Y-107470502D02*
X162457509Y-108020491D01*
X157156365Y-115511224D02*
X156767457Y-115511224D01*
X162457510Y-66568740D02*
X162457510Y-67669313D01*
X162457509Y-110210080D02*
X157156365Y-115511224D01*
X161907520Y-68219302D02*
X161907520Y-91672752D01*
X161907520Y-94635302D02*
X161907520Y-107470502D01*
X162457509Y-92222741D02*
X162457509Y-94085317D01*
X161798000Y-65909230D02*
X162457510Y-66568740D01*
X162457510Y-67669313D02*
X161907520Y-68219302D01*
X161907520Y-91672752D02*
X162457509Y-92222741D01*
X186944000Y-63754000D02*
X189230000Y-66040000D01*
X182118000Y-63754000D02*
X186944000Y-63754000D01*
X189230000Y-66040000D02*
X195072000Y-66040000D01*
X195072000Y-66040000D02*
X195834000Y-65278000D01*
%TO.N,/BRIDGE_RX*%
X162907509Y-110396491D02*
X162907509Y-107834080D01*
X162632530Y-69479876D02*
X162632530Y-68914191D01*
X162907520Y-69754866D02*
X162632530Y-69479876D01*
X162357531Y-94821701D02*
X162907520Y-94271717D01*
X155956000Y-117348000D02*
X162907509Y-110396491D01*
X162357531Y-107284102D02*
X162357531Y-94821701D01*
X162907509Y-107834080D02*
X162357531Y-107284102D01*
X162907520Y-94271717D02*
X162907520Y-69754866D01*
X194529232Y-66513232D02*
X195834000Y-67818000D01*
X186401232Y-66513232D02*
X194529232Y-66513232D01*
X183324514Y-69589951D02*
X186401232Y-66513232D01*
%TO.N,/BRIDGE_DTR*%
X195834000Y-70358000D02*
X194600999Y-69124999D01*
X194600999Y-69124999D02*
X184563999Y-69124999D01*
X184186999Y-69501999D02*
X184186999Y-69755999D01*
X182372000Y-70358000D02*
X180848000Y-68834000D01*
X180848000Y-68834000D02*
X180848000Y-66548000D01*
X183584998Y-70358000D02*
X182372000Y-70358000D01*
X184186999Y-69755999D02*
X183584998Y-70358000D01*
X184563999Y-69124999D02*
X184186999Y-69501999D01*
%TO.N,/IO0*%
X161732508Y-66916742D02*
X161732508Y-67482427D01*
X161457509Y-67757426D02*
X161457509Y-91908902D01*
X161457509Y-93411426D02*
X161457509Y-107747364D01*
X161732508Y-93136427D02*
X161457509Y-93411426D01*
X161457509Y-107747364D02*
X161732508Y-108022363D01*
X161732508Y-67482427D02*
X161457509Y-67757426D01*
X161732508Y-108022363D02*
X161732508Y-108588048D01*
X161732508Y-92183901D02*
X161732508Y-92570742D01*
X161457509Y-91908902D02*
X161732508Y-92183901D01*
X161732508Y-92570742D02*
X161732508Y-93136427D01*
%TO.N,/EN*%
X163869478Y-95428334D02*
X163532552Y-95765260D01*
X163869478Y-66324253D02*
X163869478Y-95428334D01*
X163469479Y-65924254D02*
X163869478Y-66324253D01*
X164084000Y-110744000D02*
X164084000Y-96316708D01*
X167640000Y-114300000D02*
X164084000Y-110744000D01*
X164084000Y-96316708D02*
X163532552Y-95765260D01*
X167640000Y-118872000D02*
X167640000Y-114300000D01*
%TO.N,/LEFT_JOY_SW*%
X109855000Y-74930000D02*
X114295340Y-70489660D01*
X114295340Y-70489660D02*
X114295340Y-64511340D01*
X122428000Y-84516884D02*
X121882782Y-85062102D01*
X122428000Y-82042000D02*
X122428000Y-84516884D01*
%TO.N,/RIGHT_JOY_SW*%
X204978000Y-92945278D02*
X204978000Y-96893085D01*
X204978000Y-96893085D02*
X189185095Y-112685990D01*
X206248000Y-91675278D02*
X204978000Y-92945278D01*
X189185095Y-112685990D02*
X188394543Y-112685990D01*
X206248000Y-89154000D02*
X206248000Y-91675278D01*
%TO.N,/TRIG_R*%
X205740000Y-60452000D02*
X207010000Y-60452000D01*
X207010000Y-60452000D02*
X209042000Y-62484000D01*
X203398001Y-83621999D02*
X203398001Y-95448001D01*
X205486000Y-81534000D02*
X203398001Y-83621999D01*
X203398001Y-95448001D02*
X197754002Y-101092000D01*
X197754002Y-101092000D02*
X195580000Y-101092000D01*
%TO.N,/TRIG_L*%
X147320000Y-113538000D02*
X147320000Y-105918000D01*
X114808000Y-79164299D02*
X120902257Y-85258556D01*
X115316000Y-64516000D02*
X114808000Y-65024000D01*
X114808000Y-65024000D02*
X114808000Y-79164299D01*
%TO.N,/RIGHT_JOY_X*%
X205449000Y-90424000D02*
X204527989Y-91345011D01*
X189287002Y-111760000D02*
X187960000Y-111760000D01*
X204527989Y-96519013D02*
X189287002Y-111760000D01*
X204527989Y-91345011D02*
X204527989Y-96519013D01*
%TO.N,/RIGHT_JOY_Y*%
X204077978Y-86244022D02*
X204077978Y-95896022D01*
X204077978Y-95896022D02*
X188976000Y-110998000D01*
X207264000Y-83058000D02*
X204077978Y-86244022D01*
%TO.N,/D+*%
X188300446Y-60188813D02*
X189383465Y-61271832D01*
X189383465Y-61271832D02*
X189786010Y-61271832D01*
%TD*%
D24*
%TO.N,GND*%
X225387044Y-72904421D02*
X225933000Y-73711487D01*
X225933000Y-89322980D01*
X211664019Y-101730791D01*
X211621053Y-101766052D01*
X211594403Y-101798525D01*
X211565556Y-101829066D01*
X211553255Y-101848664D01*
X211538576Y-101866550D01*
X211518771Y-101903603D01*
X211496440Y-101939180D01*
X211488199Y-101960800D01*
X211477291Y-101981207D01*
X211465097Y-102021405D01*
X211450133Y-102060661D01*
X211446268Y-102083475D01*
X211439551Y-102105617D01*
X211435434Y-102147423D01*
X211428416Y-102188843D01*
X211430001Y-102244408D01*
X211430000Y-117833171D01*
X210512677Y-118822914D01*
X201740833Y-128143000D01*
X120958474Y-128143000D01*
X111801143Y-118516061D01*
X154413000Y-118516061D01*
X154413000Y-118719939D01*
X154452774Y-118919898D01*
X154530795Y-119108256D01*
X154644063Y-119277774D01*
X154788226Y-119421937D01*
X154957744Y-119535205D01*
X155146102Y-119613226D01*
X155346061Y-119653000D01*
X155549939Y-119653000D01*
X155749898Y-119613226D01*
X155938256Y-119535205D01*
X156107774Y-119421937D01*
X156154985Y-119374726D01*
X156233398Y-119367003D01*
X156376659Y-119323546D01*
X156508688Y-119252974D01*
X156624413Y-119158001D01*
X156648211Y-119129002D01*
X163868524Y-111908681D01*
X163897521Y-111884884D01*
X163992494Y-111769159D01*
X164007076Y-111741878D01*
X166880001Y-114614804D01*
X166880000Y-118168289D01*
X166836063Y-118212226D01*
X166722795Y-118381744D01*
X166644774Y-118570102D01*
X166605000Y-118770061D01*
X166605000Y-118973939D01*
X166644774Y-119173898D01*
X166722795Y-119362256D01*
X166836063Y-119531774D01*
X166980226Y-119675937D01*
X167149744Y-119789205D01*
X167338102Y-119867226D01*
X167538061Y-119907000D01*
X167741939Y-119907000D01*
X167941898Y-119867226D01*
X168130256Y-119789205D01*
X168299774Y-119675937D01*
X168443937Y-119531774D01*
X168557205Y-119362256D01*
X168635226Y-119173898D01*
X168675000Y-118973939D01*
X168675000Y-118770061D01*
X168635226Y-118570102D01*
X168557205Y-118381744D01*
X168443937Y-118212226D01*
X168400000Y-118168289D01*
X168400000Y-114337322D01*
X168403676Y-114299999D01*
X168400000Y-114262676D01*
X168400000Y-114262667D01*
X168389003Y-114151014D01*
X168345546Y-114007753D01*
X168274974Y-113875724D01*
X168260512Y-113858102D01*
X168203799Y-113788996D01*
X168203795Y-113788992D01*
X168180001Y-113759999D01*
X168151008Y-113736205D01*
X166072863Y-111658061D01*
X186925000Y-111658061D01*
X186925000Y-111861939D01*
X186964774Y-112061898D01*
X187042795Y-112250256D01*
X187156063Y-112419774D01*
X187300226Y-112563937D01*
X187359543Y-112603571D01*
X187359543Y-112787929D01*
X187399317Y-112987888D01*
X187477338Y-113176246D01*
X187590606Y-113345764D01*
X187734769Y-113489927D01*
X187904287Y-113603195D01*
X188092645Y-113681216D01*
X188292604Y-113720990D01*
X188496482Y-113720990D01*
X188696441Y-113681216D01*
X188884799Y-113603195D01*
X189054317Y-113489927D01*
X189098254Y-113445990D01*
X189147773Y-113445990D01*
X189185095Y-113449666D01*
X189222417Y-113445990D01*
X189222428Y-113445990D01*
X189334081Y-113434993D01*
X189477342Y-113391536D01*
X189609371Y-113320964D01*
X189725096Y-113225991D01*
X189748899Y-113196987D01*
X191790042Y-111155844D01*
X191745000Y-111382285D01*
X191745000Y-112137715D01*
X191892377Y-112878628D01*
X192181467Y-113576554D01*
X192601161Y-114204670D01*
X193135330Y-114738839D01*
X193763446Y-115158533D01*
X194461372Y-115447623D01*
X195202285Y-115595000D01*
X195957715Y-115595000D01*
X196698628Y-115447623D01*
X197396554Y-115158533D01*
X198024670Y-114738839D01*
X198558839Y-114204670D01*
X198978533Y-113576554D01*
X199267623Y-112878628D01*
X199415000Y-112137715D01*
X199415000Y-111382285D01*
X199267623Y-110641372D01*
X198978533Y-109943446D01*
X198558839Y-109315330D01*
X198024670Y-108781161D01*
X197396554Y-108361467D01*
X196698628Y-108072377D01*
X195957715Y-107925000D01*
X195202285Y-107925000D01*
X194975845Y-107970042D01*
X205489008Y-97456880D01*
X205518001Y-97433086D01*
X205541795Y-97404093D01*
X205541799Y-97404089D01*
X205612973Y-97317362D01*
X205631506Y-97282690D01*
X205683546Y-97185332D01*
X205727003Y-97042071D01*
X205738000Y-96930418D01*
X205738000Y-96930409D01*
X205741676Y-96893086D01*
X205738000Y-96855763D01*
X205738000Y-93549445D01*
X205826232Y-93681493D01*
X206038507Y-93893768D01*
X206288115Y-94060551D01*
X206565466Y-94175434D01*
X206859899Y-94234000D01*
X207160101Y-94234000D01*
X207454534Y-94175434D01*
X207731885Y-94060551D01*
X207981493Y-93893768D01*
X208193768Y-93681493D01*
X208280000Y-93552438D01*
X208366232Y-93681493D01*
X208578507Y-93893768D01*
X208828115Y-94060551D01*
X209105466Y-94175434D01*
X209399899Y-94234000D01*
X209700101Y-94234000D01*
X209994534Y-94175434D01*
X210271885Y-94060551D01*
X210521493Y-93893768D01*
X210649030Y-93766231D01*
X211213374Y-93766231D01*
X211295727Y-94019289D01*
X211566418Y-94149086D01*
X211857230Y-94223580D01*
X212156988Y-94239908D01*
X212454171Y-94197443D01*
X212737359Y-94097816D01*
X212884273Y-94019289D01*
X212966626Y-93766231D01*
X212090000Y-92889605D01*
X211213374Y-93766231D01*
X210649030Y-93766231D01*
X210733768Y-93681493D01*
X210839417Y-93523378D01*
X211033769Y-93586626D01*
X211910395Y-92710000D01*
X212269605Y-92710000D01*
X213146231Y-93586626D01*
X213399289Y-93504273D01*
X213529086Y-93233582D01*
X213603580Y-92942770D01*
X213619908Y-92643012D01*
X213577443Y-92345829D01*
X213477816Y-92062641D01*
X213399289Y-91915727D01*
X213146231Y-91833374D01*
X212269605Y-92710000D01*
X211910395Y-92710000D01*
X211033769Y-91833374D01*
X210839417Y-91896622D01*
X210733768Y-91738507D01*
X210649030Y-91653769D01*
X211213374Y-91653769D01*
X212090000Y-92530395D01*
X212966626Y-91653769D01*
X212884273Y-91400711D01*
X212613582Y-91270914D01*
X212322770Y-91196420D01*
X212023012Y-91180092D01*
X211725829Y-91222557D01*
X211442641Y-91322184D01*
X211295727Y-91400711D01*
X211213374Y-91653769D01*
X210649030Y-91653769D01*
X210521493Y-91526232D01*
X210271885Y-91359449D01*
X209994534Y-91244566D01*
X209700101Y-91186000D01*
X209399899Y-91186000D01*
X209105466Y-91244566D01*
X208828115Y-91359449D01*
X208578507Y-91526232D01*
X208366232Y-91738507D01*
X208280000Y-91867562D01*
X208193768Y-91738507D01*
X207981493Y-91526232D01*
X207731885Y-91359449D01*
X207454534Y-91244566D01*
X207160101Y-91186000D01*
X207008000Y-91186000D01*
X207008000Y-90454860D01*
X216112245Y-90454860D01*
X216225264Y-90733884D01*
X216539249Y-90889056D01*
X216877473Y-90979991D01*
X217226938Y-91003194D01*
X217574216Y-90957775D01*
X217905960Y-90845477D01*
X218114736Y-90733884D01*
X218227755Y-90454860D01*
X217170000Y-89397105D01*
X216112245Y-90454860D01*
X207008000Y-90454860D01*
X207008000Y-89857711D01*
X207051937Y-89813774D01*
X207165205Y-89644256D01*
X207243226Y-89455898D01*
X207279320Y-89274438D01*
X215384306Y-89274438D01*
X215429725Y-89621716D01*
X215542023Y-89953460D01*
X215653616Y-90162236D01*
X215932640Y-90275255D01*
X216990395Y-89217500D01*
X217349605Y-89217500D01*
X218407360Y-90275255D01*
X218686384Y-90162236D01*
X218841556Y-89848251D01*
X218932491Y-89510027D01*
X218955694Y-89160562D01*
X218910275Y-88813284D01*
X218797977Y-88481540D01*
X218686384Y-88272764D01*
X218407360Y-88159745D01*
X217349605Y-89217500D01*
X216990395Y-89217500D01*
X215932640Y-88159745D01*
X215653616Y-88272764D01*
X215498444Y-88586749D01*
X215407509Y-88924973D01*
X215384306Y-89274438D01*
X207279320Y-89274438D01*
X207283000Y-89255939D01*
X207283000Y-89052061D01*
X207243226Y-88852102D01*
X207165205Y-88663744D01*
X207051937Y-88494226D01*
X206907774Y-88350063D01*
X206738256Y-88236795D01*
X206549898Y-88158774D01*
X206349939Y-88119000D01*
X206146061Y-88119000D01*
X205946102Y-88158774D01*
X205757744Y-88236795D01*
X205588226Y-88350063D01*
X205444063Y-88494226D01*
X205330795Y-88663744D01*
X205252774Y-88852102D01*
X205213000Y-89052061D01*
X205213000Y-89255939D01*
X205243562Y-89409587D01*
X205147102Y-89428774D01*
X204958744Y-89506795D01*
X204837978Y-89587488D01*
X204837978Y-87980140D01*
X216112245Y-87980140D01*
X217170000Y-89037895D01*
X218227755Y-87980140D01*
X218114736Y-87701116D01*
X217800751Y-87545944D01*
X217462527Y-87455009D01*
X217113062Y-87431806D01*
X216765784Y-87477225D01*
X216434040Y-87589523D01*
X216225264Y-87701116D01*
X216112245Y-87980140D01*
X204837978Y-87980140D01*
X204837978Y-86558823D01*
X207303802Y-84093000D01*
X207365939Y-84093000D01*
X207565898Y-84053226D01*
X207754256Y-83975205D01*
X207923774Y-83861937D01*
X208067937Y-83717774D01*
X208181205Y-83548256D01*
X208259226Y-83359898D01*
X208299000Y-83159939D01*
X208299000Y-82956061D01*
X208259226Y-82756102D01*
X208181205Y-82567744D01*
X208067937Y-82398226D01*
X207923774Y-82254063D01*
X207754256Y-82140795D01*
X207565898Y-82062774D01*
X207365939Y-82023000D01*
X207162061Y-82023000D01*
X206962102Y-82062774D01*
X206773744Y-82140795D01*
X206604226Y-82254063D01*
X206460063Y-82398226D01*
X206346795Y-82567744D01*
X206268774Y-82756102D01*
X206229000Y-82956061D01*
X206229000Y-83018198D01*
X204158001Y-85089198D01*
X204158001Y-83936800D01*
X205525802Y-82569000D01*
X205587939Y-82569000D01*
X205787898Y-82529226D01*
X205976256Y-82451205D01*
X206145774Y-82337937D01*
X206289937Y-82193774D01*
X206403205Y-82024256D01*
X206481226Y-81835898D01*
X206521000Y-81635939D01*
X206521000Y-81432061D01*
X206481226Y-81232102D01*
X206403205Y-81043744D01*
X206289937Y-80874226D01*
X206145774Y-80730063D01*
X205976256Y-80616795D01*
X205787898Y-80538774D01*
X205587939Y-80499000D01*
X205384061Y-80499000D01*
X205184102Y-80538774D01*
X204995744Y-80616795D01*
X204826226Y-80730063D01*
X204682063Y-80874226D01*
X204568795Y-81043744D01*
X204490774Y-81232102D01*
X204451000Y-81432061D01*
X204451000Y-81494198D01*
X202887004Y-83058195D01*
X202858000Y-83081998D01*
X202802872Y-83149173D01*
X202763027Y-83197723D01*
X202692456Y-83329752D01*
X202692455Y-83329753D01*
X202648998Y-83473014D01*
X202638001Y-83584667D01*
X202638001Y-83584677D01*
X202634325Y-83621999D01*
X202638001Y-83659321D01*
X202638001Y-87584121D01*
X202560751Y-87545944D01*
X202222527Y-87455009D01*
X201873062Y-87431806D01*
X201525784Y-87477225D01*
X201194040Y-87589523D01*
X200985264Y-87701116D01*
X200872245Y-87980140D01*
X201930000Y-89037895D01*
X201944143Y-89023753D01*
X202123748Y-89203358D01*
X202109605Y-89217500D01*
X202123748Y-89231643D01*
X201944143Y-89411248D01*
X201930000Y-89397105D01*
X200872245Y-90454860D01*
X200985264Y-90733884D01*
X201299249Y-90889056D01*
X201637473Y-90979991D01*
X201986938Y-91003194D01*
X202334216Y-90957775D01*
X202638002Y-90854941D01*
X202638002Y-95133198D01*
X197439201Y-100332000D01*
X196283711Y-100332000D01*
X196239774Y-100288063D01*
X196070256Y-100174795D01*
X195881898Y-100096774D01*
X195681939Y-100057000D01*
X195478061Y-100057000D01*
X195278102Y-100096774D01*
X195089744Y-100174795D01*
X194920226Y-100288063D01*
X194776063Y-100432226D01*
X194662795Y-100601744D01*
X194584774Y-100790102D01*
X194545000Y-100990061D01*
X194545000Y-101193939D01*
X194584774Y-101393898D01*
X194662795Y-101582256D01*
X194776063Y-101751774D01*
X194920226Y-101895937D01*
X195089744Y-102009205D01*
X195278102Y-102087226D01*
X195478061Y-102127000D01*
X195681939Y-102127000D01*
X195881898Y-102087226D01*
X196070256Y-102009205D01*
X196239774Y-101895937D01*
X196283711Y-101852000D01*
X197047198Y-101852000D01*
X188936199Y-109963000D01*
X188874061Y-109963000D01*
X188674102Y-110002774D01*
X188485744Y-110080795D01*
X188316226Y-110194063D01*
X188172063Y-110338226D01*
X188058795Y-110507744D01*
X187980774Y-110696102D01*
X187975026Y-110725000D01*
X187858061Y-110725000D01*
X187658102Y-110764774D01*
X187469744Y-110842795D01*
X187300226Y-110956063D01*
X187156063Y-111100226D01*
X187042795Y-111269744D01*
X186964774Y-111458102D01*
X186925000Y-111658061D01*
X166072863Y-111658061D01*
X164844000Y-110429199D01*
X164844000Y-96354030D01*
X164847676Y-96316707D01*
X164844000Y-96279384D01*
X164844000Y-96279375D01*
X164833003Y-96167722D01*
X164789546Y-96024461D01*
X164718974Y-95892432D01*
X164624001Y-95776707D01*
X164595002Y-95752908D01*
X164570722Y-95728629D01*
X164575024Y-95720581D01*
X164618481Y-95577320D01*
X164629478Y-95465667D01*
X164629478Y-95465658D01*
X164633154Y-95428335D01*
X164629478Y-95391012D01*
X164629478Y-92392334D01*
X186730000Y-92392334D01*
X186730000Y-92827666D01*
X186814929Y-93254633D01*
X186981524Y-93656827D01*
X187223381Y-94018793D01*
X187531207Y-94326619D01*
X187893173Y-94568476D01*
X188295367Y-94735071D01*
X188722334Y-94820000D01*
X189157666Y-94820000D01*
X189584633Y-94735071D01*
X189986827Y-94568476D01*
X190348793Y-94326619D01*
X190656619Y-94018793D01*
X190898476Y-93656827D01*
X191065071Y-93254633D01*
X191150000Y-92827666D01*
X191150000Y-92392334D01*
X191065071Y-91965367D01*
X190898476Y-91563173D01*
X190656619Y-91201207D01*
X190348793Y-90893381D01*
X189986827Y-90651524D01*
X189584633Y-90484929D01*
X189157666Y-90400000D01*
X188722334Y-90400000D01*
X188295367Y-90484929D01*
X187893173Y-90651524D01*
X187531207Y-90893381D01*
X187223381Y-91201207D01*
X186981524Y-91563173D01*
X186814929Y-91965367D01*
X186730000Y-92392334D01*
X164629478Y-92392334D01*
X164629478Y-89274438D01*
X200144306Y-89274438D01*
X200189725Y-89621716D01*
X200302023Y-89953460D01*
X200413616Y-90162236D01*
X200692640Y-90275255D01*
X201750395Y-89217500D01*
X200692640Y-88159745D01*
X200413616Y-88272764D01*
X200258444Y-88586749D01*
X200167509Y-88924973D01*
X200144306Y-89274438D01*
X164629478Y-89274438D01*
X164629478Y-86146231D01*
X198513374Y-86146231D01*
X198595727Y-86399289D01*
X198866418Y-86529086D01*
X199157230Y-86603580D01*
X199456988Y-86619908D01*
X199754171Y-86577443D01*
X200037359Y-86477816D01*
X200184273Y-86399289D01*
X200266626Y-86146231D01*
X199390000Y-85269605D01*
X198513374Y-86146231D01*
X164629478Y-86146231D01*
X164629478Y-85156988D01*
X197860092Y-85156988D01*
X197902557Y-85454171D01*
X198002184Y-85737359D01*
X198080711Y-85884273D01*
X198333769Y-85966626D01*
X199210395Y-85090000D01*
X199569605Y-85090000D01*
X200446231Y-85966626D01*
X200699289Y-85884273D01*
X200829086Y-85613582D01*
X200903580Y-85322770D01*
X200919908Y-85023012D01*
X200877443Y-84725829D01*
X200777816Y-84442641D01*
X200699289Y-84295727D01*
X200446231Y-84213374D01*
X199569605Y-85090000D01*
X199210395Y-85090000D01*
X198333769Y-84213374D01*
X198080711Y-84295727D01*
X197950914Y-84566418D01*
X197876420Y-84857230D01*
X197860092Y-85156988D01*
X164629478Y-85156988D01*
X164629478Y-79859899D01*
X197866000Y-79859899D01*
X197866000Y-80160101D01*
X197924566Y-80454534D01*
X198039449Y-80731885D01*
X198206232Y-80981493D01*
X198418507Y-81193768D01*
X198547562Y-81280000D01*
X198418507Y-81366232D01*
X198206232Y-81578507D01*
X198039449Y-81828115D01*
X197924566Y-82105466D01*
X197866000Y-82399899D01*
X197866000Y-82700101D01*
X197924566Y-82994534D01*
X198039449Y-83271885D01*
X198206232Y-83521493D01*
X198418507Y-83733768D01*
X198576622Y-83839417D01*
X198513374Y-84033769D01*
X199390000Y-84910395D01*
X200266626Y-84033769D01*
X200203378Y-83839417D01*
X200361493Y-83733768D01*
X200573768Y-83521493D01*
X200740551Y-83271885D01*
X200855434Y-82994534D01*
X200914000Y-82700101D01*
X200914000Y-82399899D01*
X200855434Y-82105466D01*
X200740551Y-81828115D01*
X200573768Y-81578507D01*
X200361493Y-81366232D01*
X200232438Y-81280000D01*
X200361493Y-81193768D01*
X200573768Y-80981493D01*
X200740551Y-80731885D01*
X200855434Y-80454534D01*
X200914000Y-80160101D01*
X200914000Y-79859899D01*
X200855434Y-79565466D01*
X200740551Y-79288115D01*
X200573768Y-79038507D01*
X200361493Y-78826232D01*
X200111885Y-78659449D01*
X199834534Y-78544566D01*
X199540101Y-78486000D01*
X199239899Y-78486000D01*
X198945466Y-78544566D01*
X198668115Y-78659449D01*
X198418507Y-78826232D01*
X198206232Y-79038507D01*
X198039449Y-79288115D01*
X197924566Y-79565466D01*
X197866000Y-79859899D01*
X164629478Y-79859899D01*
X164629478Y-74828061D01*
X186290000Y-74828061D01*
X186290000Y-75031939D01*
X186329774Y-75231898D01*
X186407795Y-75420256D01*
X186521063Y-75589774D01*
X186565000Y-75633711D01*
X186565001Y-77491298D01*
X186521063Y-77535236D01*
X186407795Y-77704754D01*
X186329774Y-77893112D01*
X186290000Y-78093071D01*
X186290000Y-78296949D01*
X186329774Y-78496908D01*
X186407795Y-78685266D01*
X186521063Y-78854784D01*
X186665226Y-78998947D01*
X186834744Y-79112215D01*
X187023102Y-79190236D01*
X187223061Y-79230010D01*
X187426939Y-79230010D01*
X187626898Y-79190236D01*
X187815256Y-79112215D01*
X187984774Y-78998947D01*
X188128937Y-78854784D01*
X188242205Y-78685266D01*
X188320226Y-78496908D01*
X188360000Y-78296949D01*
X188360000Y-78093071D01*
X188320226Y-77893112D01*
X188242205Y-77704754D01*
X188128937Y-77535236D01*
X188085000Y-77491299D01*
X188085000Y-77119860D01*
X200872245Y-77119860D01*
X200985264Y-77398884D01*
X201299249Y-77554056D01*
X201637473Y-77644991D01*
X201986938Y-77668194D01*
X202334216Y-77622775D01*
X202665960Y-77510477D01*
X202874736Y-77398884D01*
X202987755Y-77119860D01*
X216112245Y-77119860D01*
X216225264Y-77398884D01*
X216539249Y-77554056D01*
X216877473Y-77644991D01*
X217226938Y-77668194D01*
X217574216Y-77622775D01*
X217905960Y-77510477D01*
X218114736Y-77398884D01*
X218227755Y-77119860D01*
X217170000Y-76062105D01*
X216112245Y-77119860D01*
X202987755Y-77119860D01*
X201930000Y-76062105D01*
X200872245Y-77119860D01*
X188085000Y-77119860D01*
X188085000Y-75939438D01*
X200144306Y-75939438D01*
X200189725Y-76286716D01*
X200302023Y-76618460D01*
X200413616Y-76827236D01*
X200692640Y-76940255D01*
X201750395Y-75882500D01*
X202109605Y-75882500D01*
X203167360Y-76940255D01*
X203446384Y-76827236D01*
X203601556Y-76513251D01*
X203692491Y-76175027D01*
X203715694Y-75825562D01*
X203670275Y-75478284D01*
X203557977Y-75146540D01*
X203446384Y-74937764D01*
X203167360Y-74824745D01*
X202109605Y-75882500D01*
X201750395Y-75882500D01*
X200692640Y-74824745D01*
X200413616Y-74937764D01*
X200258444Y-75251749D01*
X200167509Y-75589973D01*
X200144306Y-75939438D01*
X188085000Y-75939438D01*
X188085000Y-75633711D01*
X188128937Y-75589774D01*
X188242205Y-75420256D01*
X188320226Y-75231898D01*
X188360000Y-75031939D01*
X188360000Y-74828061D01*
X188323616Y-74645140D01*
X200872245Y-74645140D01*
X201930000Y-75702895D01*
X202852996Y-74779899D01*
X204851000Y-74779899D01*
X204851000Y-75080101D01*
X204909566Y-75374534D01*
X205024449Y-75651885D01*
X205191232Y-75901493D01*
X205403507Y-76113768D01*
X205653115Y-76280551D01*
X205930466Y-76395434D01*
X206224899Y-76454000D01*
X206525101Y-76454000D01*
X206819534Y-76395434D01*
X207096885Y-76280551D01*
X207346493Y-76113768D01*
X207558768Y-75901493D01*
X207725551Y-75651885D01*
X207840434Y-75374534D01*
X207899000Y-75080101D01*
X207899000Y-74779899D01*
X211201000Y-74779899D01*
X211201000Y-75080101D01*
X211259566Y-75374534D01*
X211374449Y-75651885D01*
X211541232Y-75901493D01*
X211753507Y-76113768D01*
X212003115Y-76280551D01*
X212280466Y-76395434D01*
X212574899Y-76454000D01*
X212875101Y-76454000D01*
X213169534Y-76395434D01*
X213446885Y-76280551D01*
X213696493Y-76113768D01*
X213870823Y-75939438D01*
X215384306Y-75939438D01*
X215429725Y-76286716D01*
X215542023Y-76618460D01*
X215653616Y-76827236D01*
X215932640Y-76940255D01*
X216990395Y-75882500D01*
X217349605Y-75882500D01*
X218407360Y-76940255D01*
X218686384Y-76827236D01*
X218841556Y-76513251D01*
X218932491Y-76175027D01*
X218955694Y-75825562D01*
X218910275Y-75478284D01*
X218797977Y-75146540D01*
X218686384Y-74937764D01*
X218407360Y-74824745D01*
X217349605Y-75882500D01*
X216990395Y-75882500D01*
X215932640Y-74824745D01*
X215653616Y-74937764D01*
X215498444Y-75251749D01*
X215407509Y-75589973D01*
X215384306Y-75939438D01*
X213870823Y-75939438D01*
X213908768Y-75901493D01*
X214075551Y-75651885D01*
X214190434Y-75374534D01*
X214249000Y-75080101D01*
X214249000Y-74779899D01*
X214222195Y-74645140D01*
X216112245Y-74645140D01*
X217170000Y-75702895D01*
X218227755Y-74645140D01*
X218114736Y-74366116D01*
X217800751Y-74210944D01*
X217462527Y-74120009D01*
X217113062Y-74096806D01*
X216765784Y-74142225D01*
X216434040Y-74254523D01*
X216225264Y-74366116D01*
X216112245Y-74645140D01*
X214222195Y-74645140D01*
X214190434Y-74485466D01*
X214075551Y-74208115D01*
X213908768Y-73958507D01*
X213696493Y-73746232D01*
X213446885Y-73579449D01*
X213169534Y-73464566D01*
X212875101Y-73406000D01*
X212574899Y-73406000D01*
X212280466Y-73464566D01*
X212003115Y-73579449D01*
X211753507Y-73746232D01*
X211541232Y-73958507D01*
X211374449Y-74208115D01*
X211259566Y-74485466D01*
X211201000Y-74779899D01*
X207899000Y-74779899D01*
X207840434Y-74485466D01*
X207725551Y-74208115D01*
X207558768Y-73958507D01*
X207346493Y-73746232D01*
X207096885Y-73579449D01*
X206819534Y-73464566D01*
X206525101Y-73406000D01*
X206224899Y-73406000D01*
X205930466Y-73464566D01*
X205653115Y-73579449D01*
X205403507Y-73746232D01*
X205191232Y-73958507D01*
X205024449Y-74208115D01*
X204909566Y-74485466D01*
X204851000Y-74779899D01*
X202852996Y-74779899D01*
X202987755Y-74645140D01*
X202874736Y-74366116D01*
X202560751Y-74210944D01*
X202222527Y-74120009D01*
X201873062Y-74096806D01*
X201525784Y-74142225D01*
X201194040Y-74254523D01*
X200985264Y-74366116D01*
X200872245Y-74645140D01*
X188323616Y-74645140D01*
X188320226Y-74628102D01*
X188242205Y-74439744D01*
X188128937Y-74270226D01*
X187984774Y-74126063D01*
X187815256Y-74012795D01*
X187626898Y-73934774D01*
X187426939Y-73895000D01*
X187223061Y-73895000D01*
X187023102Y-73934774D01*
X186834744Y-74012795D01*
X186665226Y-74126063D01*
X186521063Y-74270226D01*
X186407795Y-74439744D01*
X186329774Y-74628102D01*
X186290000Y-74828061D01*
X164629478Y-74828061D01*
X164629478Y-66446061D01*
X179813000Y-66446061D01*
X179813000Y-66649939D01*
X179852774Y-66849898D01*
X179930795Y-67038256D01*
X180044063Y-67207774D01*
X180088001Y-67251712D01*
X180088000Y-68796677D01*
X180084324Y-68834000D01*
X180088000Y-68871322D01*
X180088000Y-68871332D01*
X180098997Y-68982985D01*
X180128107Y-69078949D01*
X180142454Y-69126246D01*
X180213026Y-69258276D01*
X180252871Y-69306826D01*
X180307999Y-69374001D01*
X180337002Y-69397803D01*
X181808205Y-70869008D01*
X181831999Y-70898001D01*
X181860992Y-70921795D01*
X181860996Y-70921799D01*
X181906720Y-70959323D01*
X181947724Y-70992974D01*
X182079753Y-71063546D01*
X182223014Y-71107003D01*
X182334667Y-71118000D01*
X182334676Y-71118000D01*
X182371999Y-71121676D01*
X182409322Y-71118000D01*
X183547676Y-71118000D01*
X183584998Y-71121676D01*
X183622320Y-71118000D01*
X183622331Y-71118000D01*
X183733984Y-71107003D01*
X183877245Y-71063546D01*
X184009274Y-70992974D01*
X184124999Y-70898001D01*
X184148801Y-70868998D01*
X184698001Y-70319799D01*
X184727000Y-70296000D01*
X184785330Y-70224925D01*
X184821973Y-70180276D01*
X184892545Y-70048246D01*
X184922592Y-69949191D01*
X184936002Y-69904984D01*
X184937970Y-69884999D01*
X194286198Y-69884999D01*
X194392791Y-69991592D01*
X194349000Y-70211740D01*
X194349000Y-70504260D01*
X194406068Y-70791158D01*
X194518010Y-71061411D01*
X194680525Y-71304632D01*
X194812380Y-71436487D01*
X194739820Y-71458498D01*
X194629506Y-71517463D01*
X194532815Y-71596815D01*
X194453463Y-71693506D01*
X194394498Y-71803820D01*
X194358188Y-71923518D01*
X194345928Y-72048000D01*
X194345928Y-73748000D01*
X194358188Y-73872482D01*
X194394498Y-73992180D01*
X194453463Y-74102494D01*
X194532815Y-74199185D01*
X194629506Y-74278537D01*
X194739820Y-74337502D01*
X194859518Y-74373812D01*
X194984000Y-74386072D01*
X196684000Y-74386072D01*
X196808482Y-74373812D01*
X196928180Y-74337502D01*
X197038494Y-74278537D01*
X197135185Y-74199185D01*
X197214537Y-74102494D01*
X197273502Y-73992180D01*
X197309812Y-73872482D01*
X197322072Y-73748000D01*
X197322072Y-72484730D01*
X197520004Y-72286798D01*
X197549002Y-72263000D01*
X197643975Y-72147275D01*
X197714547Y-72015246D01*
X197758004Y-71871985D01*
X197769001Y-71760332D01*
X197769001Y-71760323D01*
X197772677Y-71723000D01*
X197769001Y-71685677D01*
X197769001Y-69699899D01*
X204851000Y-69699899D01*
X204851000Y-70000101D01*
X204909566Y-70294534D01*
X205024449Y-70571885D01*
X205191232Y-70821493D01*
X205403507Y-71033768D01*
X205653115Y-71200551D01*
X205930466Y-71315434D01*
X206224899Y-71374000D01*
X206525101Y-71374000D01*
X206819534Y-71315434D01*
X207096885Y-71200551D01*
X207346493Y-71033768D01*
X207558768Y-70821493D01*
X207725551Y-70571885D01*
X207840434Y-70294534D01*
X207899000Y-70000101D01*
X207899000Y-69699899D01*
X211201000Y-69699899D01*
X211201000Y-70000101D01*
X211259566Y-70294534D01*
X211374449Y-70571885D01*
X211541232Y-70821493D01*
X211753507Y-71033768D01*
X212003115Y-71200551D01*
X212280466Y-71315434D01*
X212574899Y-71374000D01*
X212875101Y-71374000D01*
X213169534Y-71315434D01*
X213446885Y-71200551D01*
X213696493Y-71033768D01*
X213908768Y-70821493D01*
X214075551Y-70571885D01*
X214190434Y-70294534D01*
X214249000Y-70000101D01*
X214249000Y-69699899D01*
X214190434Y-69405466D01*
X214075551Y-69128115D01*
X213908768Y-68878507D01*
X213696493Y-68666232D01*
X213446885Y-68499449D01*
X213169534Y-68384566D01*
X212875101Y-68326000D01*
X212574899Y-68326000D01*
X212280466Y-68384566D01*
X212003115Y-68499449D01*
X211753507Y-68666232D01*
X211541232Y-68878507D01*
X211374449Y-69128115D01*
X211259566Y-69405466D01*
X211201000Y-69699899D01*
X207899000Y-69699899D01*
X207840434Y-69405466D01*
X207725551Y-69128115D01*
X207558768Y-68878507D01*
X207346493Y-68666232D01*
X207096885Y-68499449D01*
X206819534Y-68384566D01*
X206525101Y-68326000D01*
X206224899Y-68326000D01*
X205930466Y-68384566D01*
X205653115Y-68499449D01*
X205403507Y-68666232D01*
X205191232Y-68878507D01*
X205024449Y-69128115D01*
X204909566Y-69405466D01*
X204851000Y-69699899D01*
X197769001Y-69699899D01*
X197769001Y-64751321D01*
X197772677Y-64713998D01*
X197769001Y-64676675D01*
X197769001Y-64676666D01*
X197758004Y-64565013D01*
X197714547Y-64421752D01*
X197643975Y-64289723D01*
X197613004Y-64251985D01*
X197572800Y-64202995D01*
X197572796Y-64202991D01*
X197549002Y-64173998D01*
X197520010Y-64150205D01*
X197006987Y-63637184D01*
X197105641Y-63504920D01*
X197230825Y-63242099D01*
X197275476Y-63094890D01*
X197154155Y-62865000D01*
X195961000Y-62865000D01*
X195961000Y-62885000D01*
X195707000Y-62885000D01*
X195707000Y-62865000D01*
X194513845Y-62865000D01*
X194392524Y-63094890D01*
X194437175Y-63242099D01*
X194485235Y-63342999D01*
X194211801Y-63342999D01*
X193095804Y-62227003D01*
X193072001Y-62197999D01*
X192956276Y-62103026D01*
X192824247Y-62032454D01*
X192680986Y-61988997D01*
X192569333Y-61978000D01*
X192569322Y-61978000D01*
X192532000Y-61974324D01*
X192494678Y-61978000D01*
X190543553Y-61978000D01*
X190589947Y-61931606D01*
X190703215Y-61762088D01*
X190781236Y-61573730D01*
X190821010Y-61373771D01*
X190821010Y-61169893D01*
X190781236Y-60969934D01*
X190703215Y-60781576D01*
X190589947Y-60612058D01*
X190445784Y-60467895D01*
X190276266Y-60354627D01*
X190087908Y-60276606D01*
X189887949Y-60236832D01*
X189684071Y-60236832D01*
X189484112Y-60276606D01*
X189469212Y-60282778D01*
X189335446Y-60149012D01*
X189335446Y-60086874D01*
X189295672Y-59886915D01*
X189217651Y-59698557D01*
X189104383Y-59529039D01*
X188960220Y-59384876D01*
X188790702Y-59271608D01*
X188602344Y-59193587D01*
X188402385Y-59153813D01*
X188198507Y-59153813D01*
X187998548Y-59193587D01*
X187810190Y-59271608D01*
X187640672Y-59384876D01*
X187496509Y-59529039D01*
X187383241Y-59698557D01*
X187305220Y-59886915D01*
X187265446Y-60086874D01*
X187265446Y-60290752D01*
X187305220Y-60490711D01*
X187383241Y-60679069D01*
X187496509Y-60848587D01*
X187640672Y-60992750D01*
X187810190Y-61106018D01*
X187998548Y-61184039D01*
X188198507Y-61223813D01*
X188260645Y-61223813D01*
X188819666Y-61782835D01*
X188843464Y-61811833D01*
X188959189Y-61906806D01*
X188969010Y-61912055D01*
X188982073Y-61931606D01*
X189028467Y-61978000D01*
X184345711Y-61978000D01*
X184301774Y-61934063D01*
X184132256Y-61820795D01*
X183943898Y-61742774D01*
X183743939Y-61703000D01*
X183540061Y-61703000D01*
X183340102Y-61742774D01*
X183151744Y-61820795D01*
X182982226Y-61934063D01*
X182838063Y-62078226D01*
X182724795Y-62247744D01*
X182646774Y-62436102D01*
X182607000Y-62636061D01*
X182607000Y-62836275D01*
X182419898Y-62758774D01*
X182219939Y-62719000D01*
X182016061Y-62719000D01*
X181816102Y-62758774D01*
X181627744Y-62836795D01*
X181458226Y-62950063D01*
X181314063Y-63094226D01*
X181200795Y-63263744D01*
X181122774Y-63452102D01*
X181083000Y-63652061D01*
X181083000Y-63855939D01*
X181122774Y-64055898D01*
X181200795Y-64244256D01*
X181314063Y-64413774D01*
X181458226Y-64557937D01*
X181627744Y-64671205D01*
X181816102Y-64749226D01*
X182016061Y-64789000D01*
X182219939Y-64789000D01*
X182419898Y-64749226D01*
X182608256Y-64671205D01*
X182777774Y-64557937D01*
X182821711Y-64514000D01*
X184728198Y-64514000D01*
X182205199Y-67037000D01*
X182143061Y-67037000D01*
X181943102Y-67076774D01*
X181754744Y-67154795D01*
X181608000Y-67252846D01*
X181608000Y-67251711D01*
X181651937Y-67207774D01*
X181765205Y-67038256D01*
X181843226Y-66849898D01*
X181883000Y-66649939D01*
X181883000Y-66446061D01*
X181843226Y-66246102D01*
X181765205Y-66057744D01*
X181651937Y-65888226D01*
X181507774Y-65744063D01*
X181338256Y-65630795D01*
X181149898Y-65552774D01*
X180949939Y-65513000D01*
X180746061Y-65513000D01*
X180546102Y-65552774D01*
X180357744Y-65630795D01*
X180188226Y-65744063D01*
X180044063Y-65888226D01*
X179930795Y-66057744D01*
X179852774Y-66246102D01*
X179813000Y-66446061D01*
X164629478Y-66446061D01*
X164629478Y-66361575D01*
X164633154Y-66324252D01*
X164629478Y-66286930D01*
X164629478Y-66286920D01*
X164618481Y-66175267D01*
X164575024Y-66032006D01*
X164504479Y-65900028D01*
X164504479Y-65822315D01*
X164464705Y-65622356D01*
X164386684Y-65433998D01*
X164273416Y-65264480D01*
X164129253Y-65120317D01*
X163959735Y-65007049D01*
X163771377Y-64929028D01*
X163571418Y-64889254D01*
X163367540Y-64889254D01*
X163320000Y-64898710D01*
X163320000Y-60968178D01*
X163506632Y-60843475D01*
X163713475Y-60636632D01*
X163830000Y-60462240D01*
X163946525Y-60636632D01*
X164153368Y-60843475D01*
X164396589Y-61005990D01*
X164666842Y-61117932D01*
X164953740Y-61175000D01*
X165246260Y-61175000D01*
X165533158Y-61117932D01*
X165803411Y-61005990D01*
X166046632Y-60843475D01*
X166253475Y-60636632D01*
X166415990Y-60393411D01*
X166527932Y-60123158D01*
X166585000Y-59836260D01*
X166585000Y-59543740D01*
X166527932Y-59256842D01*
X166415990Y-58986589D01*
X166253475Y-58743368D01*
X166046632Y-58536525D01*
X165803411Y-58374010D01*
X165533158Y-58262068D01*
X165246260Y-58205000D01*
X164953740Y-58205000D01*
X164733592Y-58248791D01*
X164488803Y-58004002D01*
X164465000Y-57974998D01*
X164349275Y-57880025D01*
X164217246Y-57809453D01*
X164073985Y-57765996D01*
X163962332Y-57754999D01*
X163962321Y-57754999D01*
X163924999Y-57751323D01*
X163887677Y-57754999D01*
X162033321Y-57754999D01*
X161995998Y-57751323D01*
X161958675Y-57754999D01*
X161958666Y-57754999D01*
X161847013Y-57765996D01*
X161703752Y-57809453D01*
X161571723Y-57880025D01*
X161455998Y-57974998D01*
X161432199Y-58003997D01*
X160926492Y-58509705D01*
X160723411Y-58374010D01*
X160453158Y-58262068D01*
X160166260Y-58205000D01*
X159873740Y-58205000D01*
X159586842Y-58262068D01*
X159316589Y-58374010D01*
X159073368Y-58536525D01*
X158941513Y-58668380D01*
X158919502Y-58595820D01*
X158860537Y-58485506D01*
X158781185Y-58388815D01*
X158684494Y-58309463D01*
X158574180Y-58250498D01*
X158454482Y-58214188D01*
X158330000Y-58201928D01*
X157765750Y-58205000D01*
X157607000Y-58363750D01*
X157607000Y-59563000D01*
X157627000Y-59563000D01*
X157627000Y-59817000D01*
X157607000Y-59817000D01*
X157607000Y-61016250D01*
X157765750Y-61175000D01*
X158330000Y-61178072D01*
X158454482Y-61165812D01*
X158574180Y-61129502D01*
X158684494Y-61070537D01*
X158781185Y-60991185D01*
X158860537Y-60894494D01*
X158919502Y-60784180D01*
X158941513Y-60711620D01*
X159073368Y-60843475D01*
X159316589Y-61005990D01*
X159586842Y-61117932D01*
X159873740Y-61175000D01*
X160166260Y-61175000D01*
X160453158Y-61117932D01*
X160566999Y-61070778D01*
X160566999Y-61821196D01*
X160496501Y-61891694D01*
X160467497Y-61915497D01*
X160416713Y-61977378D01*
X160372524Y-62031222D01*
X160334144Y-62103026D01*
X160301952Y-62163252D01*
X160258495Y-62306513D01*
X160247498Y-62418166D01*
X160247498Y-62418176D01*
X160243822Y-62455498D01*
X160247498Y-62492820D01*
X160247499Y-110319969D01*
X157488854Y-113078615D01*
X157426716Y-113078615D01*
X157226757Y-113118389D01*
X157038399Y-113196410D01*
X156868881Y-113309678D01*
X156724718Y-113453841D01*
X156611450Y-113623359D01*
X156533429Y-113811717D01*
X156493655Y-114011676D01*
X156493655Y-114215554D01*
X156533429Y-114415513D01*
X156611450Y-114603871D01*
X156711156Y-114753092D01*
X156618471Y-114762221D01*
X156475210Y-114805678D01*
X156343232Y-114876223D01*
X156265519Y-114876223D01*
X156065560Y-114915997D01*
X155877202Y-114994018D01*
X155707684Y-115107286D01*
X155563521Y-115251449D01*
X155450253Y-115420967D01*
X155372232Y-115609325D01*
X155332458Y-115809284D01*
X155332458Y-116013162D01*
X155372232Y-116213121D01*
X155450253Y-116401479D01*
X155468953Y-116429466D01*
X155465744Y-116430795D01*
X155296226Y-116544063D01*
X155152063Y-116688226D01*
X155038795Y-116857744D01*
X154960774Y-117046102D01*
X154921000Y-117246061D01*
X154921000Y-117449939D01*
X154960774Y-117649898D01*
X154978325Y-117692270D01*
X154957744Y-117700795D01*
X154788226Y-117814063D01*
X154644063Y-117958226D01*
X154530795Y-118127744D01*
X154452774Y-118316102D01*
X154413000Y-118516061D01*
X111801143Y-118516061D01*
X111150000Y-117831527D01*
X111150000Y-111382285D01*
X123165000Y-111382285D01*
X123165000Y-112137715D01*
X123312377Y-112878628D01*
X123601467Y-113576554D01*
X124021161Y-114204670D01*
X124555330Y-114738839D01*
X125183446Y-115158533D01*
X125881372Y-115447623D01*
X126622285Y-115595000D01*
X127377715Y-115595000D01*
X128118628Y-115447623D01*
X128816554Y-115158533D01*
X129444670Y-114738839D01*
X129978839Y-114204670D01*
X130398533Y-113576554D01*
X130687623Y-112878628D01*
X130835000Y-112137715D01*
X130835000Y-111382285D01*
X130687623Y-110641372D01*
X130398533Y-109943446D01*
X129978839Y-109315330D01*
X129444670Y-108781161D01*
X128816554Y-108361467D01*
X128118628Y-108072377D01*
X127377715Y-107925000D01*
X126622285Y-107925000D01*
X125881372Y-108072377D01*
X125183446Y-108361467D01*
X124555330Y-108781161D01*
X124021161Y-109315330D01*
X123601467Y-109943446D01*
X123312377Y-110641372D01*
X123165000Y-111382285D01*
X111150000Y-111382285D01*
X111150000Y-105816061D01*
X146285000Y-105816061D01*
X146285000Y-106019939D01*
X146324774Y-106219898D01*
X146402795Y-106408256D01*
X146516063Y-106577774D01*
X146560001Y-106621712D01*
X146560000Y-112834289D01*
X146516063Y-112878226D01*
X146402795Y-113047744D01*
X146324774Y-113236102D01*
X146285000Y-113436061D01*
X146285000Y-113639939D01*
X146324774Y-113839898D01*
X146402795Y-114028256D01*
X146516063Y-114197774D01*
X146660226Y-114341937D01*
X146829744Y-114455205D01*
X147018102Y-114533226D01*
X147218061Y-114573000D01*
X147421939Y-114573000D01*
X147621898Y-114533226D01*
X147810256Y-114455205D01*
X147979774Y-114341937D01*
X148123937Y-114197774D01*
X148237205Y-114028256D01*
X148315226Y-113839898D01*
X148355000Y-113639939D01*
X148355000Y-113436061D01*
X148315226Y-113236102D01*
X148237205Y-113047744D01*
X148123937Y-112878226D01*
X148080000Y-112834289D01*
X148080000Y-106621711D01*
X148123937Y-106577774D01*
X148237205Y-106408256D01*
X148315226Y-106219898D01*
X148355000Y-106019939D01*
X148355000Y-105816061D01*
X148315226Y-105616102D01*
X148237205Y-105427744D01*
X148123937Y-105258226D01*
X147979774Y-105114063D01*
X147810256Y-105000795D01*
X147621898Y-104922774D01*
X147421939Y-104883000D01*
X147218061Y-104883000D01*
X147018102Y-104922774D01*
X146829744Y-105000795D01*
X146660226Y-105114063D01*
X146516063Y-105258226D01*
X146402795Y-105427744D01*
X146324774Y-105616102D01*
X146285000Y-105816061D01*
X111150000Y-105816061D01*
X111150000Y-102244372D01*
X111151584Y-102188842D01*
X111144569Y-102147435D01*
X111140450Y-102105617D01*
X111133731Y-102083469D01*
X111129867Y-102060660D01*
X111125000Y-102047892D01*
X111125000Y-101854000D01*
X111122560Y-101829224D01*
X111115333Y-101805399D01*
X111103597Y-101783443D01*
X111081749Y-101758527D01*
X100595315Y-92559899D01*
X108966000Y-92559899D01*
X108966000Y-92860101D01*
X109024566Y-93154534D01*
X109139449Y-93431885D01*
X109306232Y-93681493D01*
X109518507Y-93893768D01*
X109768115Y-94060551D01*
X110045466Y-94175434D01*
X110339899Y-94234000D01*
X110640101Y-94234000D01*
X110934534Y-94175434D01*
X111211885Y-94060551D01*
X111461493Y-93893768D01*
X111673768Y-93681493D01*
X111760000Y-93552438D01*
X111846232Y-93681493D01*
X112058507Y-93893768D01*
X112308115Y-94060551D01*
X112585466Y-94175434D01*
X112879899Y-94234000D01*
X113180101Y-94234000D01*
X113474534Y-94175434D01*
X113751885Y-94060551D01*
X114001493Y-93893768D01*
X114129030Y-93766231D01*
X114693374Y-93766231D01*
X114775727Y-94019289D01*
X115046418Y-94149086D01*
X115337230Y-94223580D01*
X115636988Y-94239908D01*
X115934171Y-94197443D01*
X116217359Y-94097816D01*
X116364273Y-94019289D01*
X116446626Y-93766231D01*
X115570000Y-92889605D01*
X114693374Y-93766231D01*
X114129030Y-93766231D01*
X114213768Y-93681493D01*
X114319417Y-93523378D01*
X114513769Y-93586626D01*
X115390395Y-92710000D01*
X115749605Y-92710000D01*
X116626231Y-93586626D01*
X116879289Y-93504273D01*
X117009086Y-93233582D01*
X117083580Y-92942770D01*
X117099908Y-92643012D01*
X117064089Y-92392334D01*
X131730000Y-92392334D01*
X131730000Y-92827666D01*
X131814929Y-93254633D01*
X131981524Y-93656827D01*
X132223381Y-94018793D01*
X132531207Y-94326619D01*
X132893173Y-94568476D01*
X133295367Y-94735071D01*
X133722334Y-94820000D01*
X134157666Y-94820000D01*
X134584633Y-94735071D01*
X134986827Y-94568476D01*
X135348793Y-94326619D01*
X135656619Y-94018793D01*
X135898476Y-93656827D01*
X136065071Y-93254633D01*
X136150000Y-92827666D01*
X136150000Y-92392334D01*
X136065071Y-91965367D01*
X135898476Y-91563173D01*
X135656619Y-91201207D01*
X135348793Y-90893381D01*
X134986827Y-90651524D01*
X134584633Y-90484929D01*
X134157666Y-90400000D01*
X133722334Y-90400000D01*
X133295367Y-90484929D01*
X132893173Y-90651524D01*
X132531207Y-90893381D01*
X132223381Y-91201207D01*
X131981524Y-91563173D01*
X131814929Y-91965367D01*
X131730000Y-92392334D01*
X117064089Y-92392334D01*
X117057443Y-92345829D01*
X116957816Y-92062641D01*
X116879289Y-91915727D01*
X116626231Y-91833374D01*
X115749605Y-92710000D01*
X115390395Y-92710000D01*
X114513769Y-91833374D01*
X114319417Y-91896622D01*
X114213768Y-91738507D01*
X114129030Y-91653769D01*
X114693374Y-91653769D01*
X115570000Y-92530395D01*
X116446626Y-91653769D01*
X116364273Y-91400711D01*
X116093582Y-91270914D01*
X115802770Y-91196420D01*
X115503012Y-91180092D01*
X115205829Y-91222557D01*
X114922641Y-91322184D01*
X114775727Y-91400711D01*
X114693374Y-91653769D01*
X114129030Y-91653769D01*
X114001493Y-91526232D01*
X113751885Y-91359449D01*
X113474534Y-91244566D01*
X113180101Y-91186000D01*
X112879899Y-91186000D01*
X112585466Y-91244566D01*
X112308115Y-91359449D01*
X112058507Y-91526232D01*
X111846232Y-91738507D01*
X111760000Y-91867562D01*
X111673768Y-91738507D01*
X111461493Y-91526232D01*
X111211885Y-91359449D01*
X110934534Y-91244566D01*
X110640101Y-91186000D01*
X110339899Y-91186000D01*
X110045466Y-91244566D01*
X109768115Y-91359449D01*
X109518507Y-91526232D01*
X109306232Y-91738507D01*
X109139449Y-91988115D01*
X109024566Y-92265466D01*
X108966000Y-92559899D01*
X100595315Y-92559899D01*
X98195570Y-90454860D01*
X104352245Y-90454860D01*
X104465264Y-90733884D01*
X104779249Y-90889056D01*
X105117473Y-90979991D01*
X105466938Y-91003194D01*
X105814216Y-90957775D01*
X106145960Y-90845477D01*
X106354736Y-90733884D01*
X106467755Y-90454860D01*
X119592245Y-90454860D01*
X119705264Y-90733884D01*
X120019249Y-90889056D01*
X120357473Y-90979991D01*
X120706938Y-91003194D01*
X121054216Y-90957775D01*
X121385960Y-90845477D01*
X121594736Y-90733884D01*
X121707755Y-90454860D01*
X120650000Y-89397105D01*
X119592245Y-90454860D01*
X106467755Y-90454860D01*
X105410000Y-89397105D01*
X104352245Y-90454860D01*
X98195570Y-90454860D01*
X96849889Y-89274438D01*
X103624306Y-89274438D01*
X103669725Y-89621716D01*
X103782023Y-89953460D01*
X103893616Y-90162236D01*
X104172640Y-90275255D01*
X105230395Y-89217500D01*
X105589605Y-89217500D01*
X106647360Y-90275255D01*
X106926384Y-90162236D01*
X107081556Y-89848251D01*
X107172491Y-89510027D01*
X107188133Y-89274438D01*
X118864306Y-89274438D01*
X118909725Y-89621716D01*
X119022023Y-89953460D01*
X119133616Y-90162236D01*
X119412640Y-90275255D01*
X120470395Y-89217500D01*
X120829605Y-89217500D01*
X121887360Y-90275255D01*
X122166384Y-90162236D01*
X122321556Y-89848251D01*
X122412491Y-89510027D01*
X122435694Y-89160562D01*
X122390275Y-88813284D01*
X122277977Y-88481540D01*
X122166384Y-88272764D01*
X121887360Y-88159745D01*
X120829605Y-89217500D01*
X120470395Y-89217500D01*
X119412640Y-88159745D01*
X119133616Y-88272764D01*
X118978444Y-88586749D01*
X118887509Y-88924973D01*
X118864306Y-89274438D01*
X107188133Y-89274438D01*
X107195694Y-89160562D01*
X107150275Y-88813284D01*
X107037977Y-88481540D01*
X106926384Y-88272764D01*
X106647360Y-88159745D01*
X105589605Y-89217500D01*
X105230395Y-89217500D01*
X104172640Y-88159745D01*
X103893616Y-88272764D01*
X103738444Y-88586749D01*
X103647509Y-88924973D01*
X103624306Y-89274438D01*
X96849889Y-89274438D01*
X96647000Y-89096466D01*
X96647000Y-87980140D01*
X104352245Y-87980140D01*
X105410000Y-89037895D01*
X106467755Y-87980140D01*
X119592245Y-87980140D01*
X120650000Y-89037895D01*
X121707755Y-87980140D01*
X121594736Y-87701116D01*
X121280751Y-87545944D01*
X120942527Y-87455009D01*
X120593062Y-87431806D01*
X120245784Y-87477225D01*
X119914040Y-87589523D01*
X119705264Y-87701116D01*
X119592245Y-87980140D01*
X106467755Y-87980140D01*
X106354736Y-87701116D01*
X106040751Y-87545944D01*
X105702527Y-87455009D01*
X105353062Y-87431806D01*
X105005784Y-87477225D01*
X104674040Y-87589523D01*
X104465264Y-87701116D01*
X104352245Y-87980140D01*
X96647000Y-87980140D01*
X96647000Y-86146231D01*
X101993374Y-86146231D01*
X102075727Y-86399289D01*
X102346418Y-86529086D01*
X102637230Y-86603580D01*
X102936988Y-86619908D01*
X103234171Y-86577443D01*
X103517359Y-86477816D01*
X103664273Y-86399289D01*
X103746626Y-86146231D01*
X102870000Y-85269605D01*
X101993374Y-86146231D01*
X96647000Y-86146231D01*
X96647000Y-85156988D01*
X101340092Y-85156988D01*
X101382557Y-85454171D01*
X101482184Y-85737359D01*
X101560711Y-85884273D01*
X101813769Y-85966626D01*
X102690395Y-85090000D01*
X103049605Y-85090000D01*
X103926231Y-85966626D01*
X104179289Y-85884273D01*
X104309086Y-85613582D01*
X104383580Y-85322770D01*
X104399908Y-85023012D01*
X104357443Y-84725829D01*
X104257816Y-84442641D01*
X104179289Y-84295727D01*
X103926231Y-84213374D01*
X103049605Y-85090000D01*
X102690395Y-85090000D01*
X101813769Y-84213374D01*
X101560711Y-84295727D01*
X101430914Y-84566418D01*
X101356420Y-84857230D01*
X101340092Y-85156988D01*
X96647000Y-85156988D01*
X96647000Y-79859899D01*
X101346000Y-79859899D01*
X101346000Y-80160101D01*
X101404566Y-80454534D01*
X101519449Y-80731885D01*
X101686232Y-80981493D01*
X101898507Y-81193768D01*
X102027562Y-81280000D01*
X101898507Y-81366232D01*
X101686232Y-81578507D01*
X101519449Y-81828115D01*
X101404566Y-82105466D01*
X101346000Y-82399899D01*
X101346000Y-82700101D01*
X101404566Y-82994534D01*
X101519449Y-83271885D01*
X101686232Y-83521493D01*
X101898507Y-83733768D01*
X102056622Y-83839417D01*
X101993374Y-84033769D01*
X102870000Y-84910395D01*
X103746626Y-84033769D01*
X103683378Y-83839417D01*
X103841493Y-83733768D01*
X104053768Y-83521493D01*
X104220551Y-83271885D01*
X104335434Y-82994534D01*
X104394000Y-82700101D01*
X104394000Y-82399899D01*
X104335434Y-82105466D01*
X104220551Y-81828115D01*
X104053768Y-81578507D01*
X103841493Y-81366232D01*
X103712438Y-81280000D01*
X103841493Y-81193768D01*
X104053768Y-80981493D01*
X104220551Y-80731885D01*
X104335434Y-80454534D01*
X104394000Y-80160101D01*
X104394000Y-79859899D01*
X104335434Y-79565466D01*
X104220551Y-79288115D01*
X104053768Y-79038507D01*
X103841493Y-78826232D01*
X103591885Y-78659449D01*
X103314534Y-78544566D01*
X103020101Y-78486000D01*
X102719899Y-78486000D01*
X102425466Y-78544566D01*
X102148115Y-78659449D01*
X101898507Y-78826232D01*
X101686232Y-79038507D01*
X101519449Y-79288115D01*
X101404566Y-79565466D01*
X101346000Y-79859899D01*
X96647000Y-79859899D01*
X96647000Y-77119860D01*
X104352245Y-77119860D01*
X104465264Y-77398884D01*
X104779249Y-77554056D01*
X105117473Y-77644991D01*
X105466938Y-77668194D01*
X105814216Y-77622775D01*
X106145960Y-77510477D01*
X106354736Y-77398884D01*
X106467755Y-77119860D01*
X105410000Y-76062105D01*
X104352245Y-77119860D01*
X96647000Y-77119860D01*
X96647000Y-75939438D01*
X103624306Y-75939438D01*
X103669725Y-76286716D01*
X103782023Y-76618460D01*
X103893616Y-76827236D01*
X104172640Y-76940255D01*
X105230395Y-75882500D01*
X105589605Y-75882500D01*
X106647360Y-76940255D01*
X106926384Y-76827236D01*
X107081556Y-76513251D01*
X107172491Y-76175027D01*
X107195694Y-75825562D01*
X107150275Y-75478284D01*
X107037977Y-75146540D01*
X106926384Y-74937764D01*
X106647360Y-74824745D01*
X105589605Y-75882500D01*
X105230395Y-75882500D01*
X104172640Y-74824745D01*
X103893616Y-74937764D01*
X103738444Y-75251749D01*
X103647509Y-75589973D01*
X103624306Y-75939438D01*
X96647000Y-75939438D01*
X96647000Y-74645140D01*
X104352245Y-74645140D01*
X105410000Y-75702895D01*
X106332996Y-74779899D01*
X108331000Y-74779899D01*
X108331000Y-75080101D01*
X108389566Y-75374534D01*
X108504449Y-75651885D01*
X108671232Y-75901493D01*
X108883507Y-76113768D01*
X109133115Y-76280551D01*
X109410466Y-76395434D01*
X109704899Y-76454000D01*
X110005101Y-76454000D01*
X110299534Y-76395434D01*
X110576885Y-76280551D01*
X110826493Y-76113768D01*
X111038768Y-75901493D01*
X111205551Y-75651885D01*
X111320434Y-75374534D01*
X111379000Y-75080101D01*
X111379000Y-74779899D01*
X111329377Y-74530424D01*
X114048000Y-71811801D01*
X114048001Y-79126967D01*
X114044324Y-79164299D01*
X114058998Y-79313284D01*
X114102454Y-79456545D01*
X114173026Y-79588575D01*
X114244201Y-79675301D01*
X114268000Y-79704300D01*
X114296998Y-79728098D01*
X119867257Y-85298358D01*
X119867257Y-85360495D01*
X119907031Y-85560454D01*
X119985052Y-85748812D01*
X120098320Y-85918330D01*
X120242483Y-86062493D01*
X120412001Y-86175761D01*
X120600359Y-86253782D01*
X120800318Y-86293556D01*
X121004196Y-86293556D01*
X121204155Y-86253782D01*
X121392513Y-86175761D01*
X121562031Y-86062493D01*
X121571205Y-86053319D01*
X121580884Y-86057328D01*
X121780843Y-86097102D01*
X121984721Y-86097102D01*
X122184680Y-86057328D01*
X122373038Y-85979307D01*
X122542556Y-85866039D01*
X122686719Y-85721876D01*
X122799987Y-85552358D01*
X122878008Y-85364000D01*
X122917782Y-85164041D01*
X122917782Y-85101904D01*
X122939002Y-85080684D01*
X122968001Y-85056885D01*
X123062974Y-84941160D01*
X123133546Y-84809131D01*
X123177003Y-84665870D01*
X123188000Y-84554217D01*
X123188000Y-84554209D01*
X123191676Y-84516884D01*
X123188000Y-84479559D01*
X123188000Y-82745711D01*
X123231937Y-82701774D01*
X123345205Y-82532256D01*
X123423226Y-82343898D01*
X123463000Y-82143939D01*
X123463000Y-81940061D01*
X123423226Y-81740102D01*
X123345205Y-81551744D01*
X123231937Y-81382226D01*
X123087774Y-81238063D01*
X122918256Y-81124795D01*
X122729898Y-81046774D01*
X122529939Y-81007000D01*
X122326061Y-81007000D01*
X122126102Y-81046774D01*
X121937744Y-81124795D01*
X121768226Y-81238063D01*
X121624063Y-81382226D01*
X121510795Y-81551744D01*
X121432774Y-81740102D01*
X121393000Y-81940061D01*
X121393000Y-82143939D01*
X121432774Y-82343898D01*
X121510795Y-82532256D01*
X121624063Y-82701774D01*
X121668000Y-82745711D01*
X121668001Y-84049548D01*
X121580884Y-84066876D01*
X121392526Y-84144897D01*
X121223008Y-84258165D01*
X121213834Y-84267339D01*
X121204155Y-84263330D01*
X121004196Y-84223556D01*
X120942059Y-84223556D01*
X115568000Y-78849498D01*
X115568000Y-78257061D01*
X147428000Y-78257061D01*
X147428000Y-78460939D01*
X147467774Y-78660898D01*
X147545795Y-78849256D01*
X147659063Y-79018774D01*
X147803226Y-79162937D01*
X147972744Y-79276205D01*
X148161102Y-79354226D01*
X148361061Y-79394000D01*
X148564939Y-79394000D01*
X148764898Y-79354226D01*
X148953256Y-79276205D01*
X149122774Y-79162937D01*
X149166711Y-79119000D01*
X150711678Y-79119000D01*
X150749000Y-79122676D01*
X150786322Y-79119000D01*
X150786333Y-79119000D01*
X150897986Y-79108003D01*
X151041247Y-79064546D01*
X151173276Y-78993974D01*
X151289001Y-78899001D01*
X151312804Y-78869997D01*
X151704497Y-78478304D01*
X151733501Y-78454501D01*
X151811877Y-78359000D01*
X151828474Y-78338777D01*
X151899046Y-78206747D01*
X151942503Y-78063486D01*
X151953500Y-77951833D01*
X151953500Y-77951823D01*
X151957176Y-77914500D01*
X151953500Y-77877177D01*
X151953500Y-71823711D01*
X151997437Y-71779774D01*
X152110705Y-71610256D01*
X152188726Y-71421898D01*
X152228500Y-71221939D01*
X152228500Y-71018061D01*
X152188726Y-70818102D01*
X152110705Y-70629744D01*
X151997437Y-70460226D01*
X151853274Y-70316063D01*
X151683756Y-70202795D01*
X151495398Y-70124774D01*
X151295439Y-70085000D01*
X151091561Y-70085000D01*
X150891602Y-70124774D01*
X150703244Y-70202795D01*
X150533726Y-70316063D01*
X150389563Y-70460226D01*
X150276295Y-70629744D01*
X150198274Y-70818102D01*
X150158500Y-71018061D01*
X150158500Y-71221939D01*
X150198274Y-71421898D01*
X150276295Y-71610256D01*
X150389563Y-71779774D01*
X150433500Y-71823711D01*
X150433501Y-77599000D01*
X149166711Y-77599000D01*
X149122774Y-77555063D01*
X148953256Y-77441795D01*
X148764898Y-77363774D01*
X148564939Y-77324000D01*
X148361061Y-77324000D01*
X148161102Y-77363774D01*
X147972744Y-77441795D01*
X147803226Y-77555063D01*
X147659063Y-77699226D01*
X147545795Y-77868744D01*
X147467774Y-78057102D01*
X147428000Y-78257061D01*
X115568000Y-78257061D01*
X115568000Y-77119860D01*
X119592245Y-77119860D01*
X119705264Y-77398884D01*
X120019249Y-77554056D01*
X120357473Y-77644991D01*
X120706938Y-77668194D01*
X121054216Y-77622775D01*
X121385960Y-77510477D01*
X121594736Y-77398884D01*
X121707755Y-77119860D01*
X120650000Y-76062105D01*
X119592245Y-77119860D01*
X115568000Y-77119860D01*
X115568000Y-76315712D01*
X115760466Y-76395434D01*
X116054899Y-76454000D01*
X116355101Y-76454000D01*
X116649534Y-76395434D01*
X116926885Y-76280551D01*
X117176493Y-76113768D01*
X117350823Y-75939438D01*
X118864306Y-75939438D01*
X118909725Y-76286716D01*
X119022023Y-76618460D01*
X119133616Y-76827236D01*
X119412640Y-76940255D01*
X120470395Y-75882500D01*
X120829605Y-75882500D01*
X121887360Y-76940255D01*
X122166384Y-76827236D01*
X122321556Y-76513251D01*
X122412491Y-76175027D01*
X122435694Y-75825562D01*
X122390275Y-75478284D01*
X122277977Y-75146540D01*
X122166384Y-74937764D01*
X121887360Y-74824745D01*
X120829605Y-75882500D01*
X120470395Y-75882500D01*
X119412640Y-74824745D01*
X119133616Y-74937764D01*
X118978444Y-75251749D01*
X118887509Y-75589973D01*
X118864306Y-75939438D01*
X117350823Y-75939438D01*
X117388768Y-75901493D01*
X117555551Y-75651885D01*
X117670434Y-75374534D01*
X117729000Y-75080101D01*
X117729000Y-74779899D01*
X117702195Y-74645140D01*
X119592245Y-74645140D01*
X120650000Y-75702895D01*
X121707755Y-74645140D01*
X121594736Y-74366116D01*
X121280751Y-74210944D01*
X120942527Y-74120009D01*
X120593062Y-74096806D01*
X120245784Y-74142225D01*
X119914040Y-74254523D01*
X119705264Y-74366116D01*
X119592245Y-74645140D01*
X117702195Y-74645140D01*
X117670434Y-74485466D01*
X117555551Y-74208115D01*
X117388768Y-73958507D01*
X117176493Y-73746232D01*
X116926885Y-73579449D01*
X116649534Y-73464566D01*
X116355101Y-73406000D01*
X116054899Y-73406000D01*
X115760466Y-73464566D01*
X115568000Y-73544288D01*
X115568000Y-71235712D01*
X115760466Y-71315434D01*
X116054899Y-71374000D01*
X116355101Y-71374000D01*
X116649534Y-71315434D01*
X116926885Y-71200551D01*
X117176493Y-71033768D01*
X117388768Y-70821493D01*
X117555551Y-70571885D01*
X117670434Y-70294534D01*
X117729000Y-70000101D01*
X117729000Y-69699899D01*
X117670434Y-69405466D01*
X117555551Y-69128115D01*
X117388768Y-68878507D01*
X117176493Y-68666232D01*
X116926885Y-68499449D01*
X116649534Y-68384566D01*
X116355101Y-68326000D01*
X116054899Y-68326000D01*
X115760466Y-68384566D01*
X115568000Y-68464288D01*
X115568000Y-65521151D01*
X115617898Y-65511226D01*
X115806256Y-65433205D01*
X115975774Y-65319937D01*
X116119937Y-65175774D01*
X116233205Y-65006256D01*
X116311226Y-64817898D01*
X116351000Y-64617939D01*
X116351000Y-64414061D01*
X116311226Y-64214102D01*
X116233205Y-64025744D01*
X116119937Y-63856226D01*
X115975774Y-63712063D01*
X115806256Y-63598795D01*
X115617898Y-63520774D01*
X115417939Y-63481000D01*
X115214061Y-63481000D01*
X115014102Y-63520774D01*
X114825744Y-63598795D01*
X114809157Y-63609878D01*
X114785596Y-63594135D01*
X114597238Y-63516114D01*
X114397279Y-63476340D01*
X114193401Y-63476340D01*
X113993442Y-63516114D01*
X113805084Y-63594135D01*
X113635566Y-63707403D01*
X113491403Y-63851566D01*
X113378135Y-64021084D01*
X113300114Y-64209442D01*
X113260340Y-64409401D01*
X113260340Y-64613279D01*
X113300114Y-64813238D01*
X113378135Y-65001596D01*
X113491403Y-65171114D01*
X113535341Y-65215052D01*
X113535340Y-70174858D01*
X110254576Y-73455623D01*
X110005101Y-73406000D01*
X109704899Y-73406000D01*
X109410466Y-73464566D01*
X109133115Y-73579449D01*
X108883507Y-73746232D01*
X108671232Y-73958507D01*
X108504449Y-74208115D01*
X108389566Y-74485466D01*
X108331000Y-74779899D01*
X106332996Y-74779899D01*
X106467755Y-74645140D01*
X106354736Y-74366116D01*
X106040751Y-74210944D01*
X105702527Y-74120009D01*
X105353062Y-74096806D01*
X105005784Y-74142225D01*
X104674040Y-74254523D01*
X104465264Y-74366116D01*
X104352245Y-74645140D01*
X96647000Y-74645140D01*
X96647000Y-73711485D01*
X99360720Y-69699899D01*
X108331000Y-69699899D01*
X108331000Y-70000101D01*
X108389566Y-70294534D01*
X108504449Y-70571885D01*
X108671232Y-70821493D01*
X108883507Y-71033768D01*
X109133115Y-71200551D01*
X109410466Y-71315434D01*
X109704899Y-71374000D01*
X110005101Y-71374000D01*
X110299534Y-71315434D01*
X110576885Y-71200551D01*
X110826493Y-71033768D01*
X111038768Y-70821493D01*
X111205551Y-70571885D01*
X111320434Y-70294534D01*
X111379000Y-70000101D01*
X111379000Y-69699899D01*
X111320434Y-69405466D01*
X111205551Y-69128115D01*
X111038768Y-68878507D01*
X110826493Y-68666232D01*
X110576885Y-68499449D01*
X110299534Y-68384566D01*
X110005101Y-68326000D01*
X109704899Y-68326000D01*
X109410466Y-68384566D01*
X109133115Y-68499449D01*
X108883507Y-68666232D01*
X108671232Y-68878507D01*
X108504449Y-69128115D01*
X108389566Y-69405466D01*
X108331000Y-69699899D01*
X99360720Y-69699899D01*
X104239840Y-62487285D01*
X116815000Y-62487285D01*
X116815000Y-63242715D01*
X116962377Y-63983628D01*
X117251467Y-64681554D01*
X117671161Y-65309670D01*
X118205330Y-65843839D01*
X118833446Y-66263533D01*
X119531372Y-66552623D01*
X120272285Y-66700000D01*
X121027715Y-66700000D01*
X121768628Y-66552623D01*
X122466554Y-66263533D01*
X123094670Y-65843839D01*
X123628839Y-65309670D01*
X124048533Y-64681554D01*
X124337623Y-63983628D01*
X124485000Y-63242715D01*
X124485000Y-62487285D01*
X124337623Y-61746372D01*
X124048533Y-61048446D01*
X123628839Y-60420330D01*
X123094670Y-59886161D01*
X122466554Y-59466467D01*
X121768628Y-59177377D01*
X121027715Y-59030000D01*
X120272285Y-59030000D01*
X119531372Y-59177377D01*
X118833446Y-59466467D01*
X118205330Y-59886161D01*
X117671161Y-60420330D01*
X117251467Y-61048446D01*
X116962377Y-61746372D01*
X116815000Y-62487285D01*
X104239840Y-62487285D01*
X107470893Y-57710947D01*
X109040299Y-57710947D01*
X109040299Y-58013651D01*
X109099354Y-58310538D01*
X109215194Y-58590199D01*
X109383367Y-58841888D01*
X109597410Y-59055931D01*
X109849099Y-59224104D01*
X110128760Y-59339944D01*
X110425647Y-59398999D01*
X110728351Y-59398999D01*
X111025238Y-59339944D01*
X111304899Y-59224104D01*
X111556588Y-59055931D01*
X111770631Y-58841888D01*
X111938804Y-58590199D01*
X112054644Y-58310538D01*
X112113699Y-58013651D01*
X112113699Y-57710947D01*
X112054644Y-57414060D01*
X111938804Y-57134399D01*
X111770631Y-56882710D01*
X111631449Y-56743528D01*
X111695657Y-56756300D01*
X111968341Y-56756300D01*
X112235784Y-56703102D01*
X112487711Y-56598751D01*
X112714439Y-56447256D01*
X112907255Y-56254440D01*
X113058750Y-56027712D01*
X113163101Y-55775785D01*
X113216299Y-55508342D01*
X113216299Y-55235658D01*
X114947700Y-55235658D01*
X114947700Y-55508342D01*
X115000898Y-55775785D01*
X115105249Y-56027712D01*
X115256744Y-56254440D01*
X115449560Y-56447256D01*
X115676288Y-56598751D01*
X115928215Y-56703102D01*
X116195658Y-56756300D01*
X116468342Y-56756300D01*
X116532550Y-56743528D01*
X116393368Y-56882710D01*
X116225195Y-57134399D01*
X116109355Y-57414060D01*
X116050300Y-57710947D01*
X116050300Y-58013651D01*
X116109355Y-58310538D01*
X116225195Y-58590199D01*
X116393368Y-58841888D01*
X116607411Y-59055931D01*
X116859100Y-59224104D01*
X117138761Y-59339944D01*
X117435648Y-59398999D01*
X117738352Y-59398999D01*
X118035239Y-59339944D01*
X118314900Y-59224104D01*
X118566589Y-59055931D01*
X118751945Y-58870575D01*
X128632500Y-58870575D01*
X128632500Y-59239425D01*
X128704459Y-59601188D01*
X128845612Y-59941961D01*
X129050534Y-60248649D01*
X129311351Y-60509466D01*
X129618039Y-60714388D01*
X129958812Y-60855541D01*
X130320575Y-60927500D01*
X130689425Y-60927500D01*
X131051188Y-60855541D01*
X131391961Y-60714388D01*
X131698649Y-60509466D01*
X131959466Y-60248649D01*
X132164388Y-59941961D01*
X132305541Y-59601188D01*
X132377500Y-59239425D01*
X132377500Y-58870575D01*
X133382500Y-58870575D01*
X133382500Y-59239425D01*
X133454459Y-59601188D01*
X133595612Y-59941961D01*
X133800534Y-60248649D01*
X134061351Y-60509466D01*
X134368039Y-60714388D01*
X134708812Y-60855541D01*
X135070575Y-60927500D01*
X135439425Y-60927500D01*
X135801188Y-60855541D01*
X136141961Y-60714388D01*
X136448649Y-60509466D01*
X136709466Y-60248649D01*
X136914388Y-59941961D01*
X137055541Y-59601188D01*
X137127500Y-59239425D01*
X137127500Y-58870575D01*
X137055541Y-58508812D01*
X136914388Y-58168039D01*
X136709466Y-57861351D01*
X136665615Y-57817500D01*
X138129428Y-57817500D01*
X138129428Y-60292500D01*
X138141688Y-60416982D01*
X138177998Y-60536680D01*
X138236963Y-60646994D01*
X138316315Y-60743685D01*
X138413006Y-60823037D01*
X138523320Y-60882002D01*
X138643018Y-60918312D01*
X138767500Y-60930572D01*
X141242500Y-60930572D01*
X141366982Y-60918312D01*
X141486680Y-60882002D01*
X141547606Y-60849436D01*
X141432653Y-60926245D01*
X141256245Y-61102653D01*
X141117642Y-61310087D01*
X141022171Y-61540576D01*
X140973500Y-61785261D01*
X140973500Y-62034739D01*
X141022171Y-62279424D01*
X141117642Y-62509913D01*
X141256245Y-62717347D01*
X141432653Y-62893755D01*
X141640087Y-63032358D01*
X141870576Y-63127829D01*
X142115261Y-63176500D01*
X142364739Y-63176500D01*
X142609424Y-63127829D01*
X142839913Y-63032358D01*
X143047347Y-62893755D01*
X143158805Y-62782297D01*
X154247308Y-62782297D01*
X154298447Y-63009086D01*
X154525195Y-63113129D01*
X154767885Y-63170935D01*
X155017188Y-63180285D01*
X155263525Y-63140818D01*
X155497429Y-63054051D01*
X155581553Y-63009086D01*
X155632692Y-62782297D01*
X154940000Y-62089605D01*
X154247308Y-62782297D01*
X143158805Y-62782297D01*
X143223755Y-62717347D01*
X143362358Y-62509913D01*
X143457829Y-62279424D01*
X143506500Y-62034739D01*
X143506500Y-61987188D01*
X153669715Y-61987188D01*
X153709182Y-62233525D01*
X153795949Y-62467429D01*
X153840914Y-62551553D01*
X154067703Y-62602692D01*
X154760395Y-61910000D01*
X155119605Y-61910000D01*
X155812297Y-62602692D01*
X156039086Y-62551553D01*
X156143129Y-62324805D01*
X156200935Y-62082115D01*
X156210285Y-61832812D01*
X156170818Y-61586475D01*
X156084051Y-61352571D01*
X156039086Y-61268447D01*
X155812297Y-61217308D01*
X155119605Y-61910000D01*
X154760395Y-61910000D01*
X154067703Y-61217308D01*
X153840914Y-61268447D01*
X153736871Y-61495195D01*
X153679065Y-61737885D01*
X153669715Y-61987188D01*
X143506500Y-61987188D01*
X143506500Y-61785261D01*
X143457829Y-61540576D01*
X143362358Y-61310087D01*
X143223755Y-61102653D01*
X143158805Y-61037703D01*
X154247308Y-61037703D01*
X154940000Y-61730395D01*
X155632692Y-61037703D01*
X155581553Y-60810914D01*
X155354805Y-60706871D01*
X155112115Y-60649065D01*
X154862812Y-60639715D01*
X154616475Y-60679182D01*
X154382571Y-60765949D01*
X154298447Y-60810914D01*
X154247308Y-61037703D01*
X143158805Y-61037703D01*
X143047347Y-60926245D01*
X142839913Y-60787642D01*
X142609424Y-60692171D01*
X142364739Y-60643500D01*
X142115261Y-60643500D01*
X141870576Y-60692171D01*
X141640160Y-60787612D01*
X141693685Y-60743685D01*
X141773037Y-60646994D01*
X141830227Y-60540000D01*
X155991928Y-60540000D01*
X156004188Y-60664482D01*
X156040498Y-60784180D01*
X156099463Y-60894494D01*
X156178815Y-60991185D01*
X156275506Y-61070537D01*
X156385820Y-61129502D01*
X156505518Y-61165812D01*
X156630000Y-61178072D01*
X157194250Y-61175000D01*
X157353000Y-61016250D01*
X157353000Y-59817000D01*
X156153750Y-59817000D01*
X155995000Y-59975750D01*
X155991928Y-60540000D01*
X141830227Y-60540000D01*
X141832002Y-60536680D01*
X141868312Y-60416982D01*
X141880572Y-60292500D01*
X141880572Y-58840000D01*
X155991928Y-58840000D01*
X155995000Y-59404250D01*
X156153750Y-59563000D01*
X157353000Y-59563000D01*
X157353000Y-58363750D01*
X157194250Y-58205000D01*
X156630000Y-58201928D01*
X156505518Y-58214188D01*
X156385820Y-58250498D01*
X156275506Y-58309463D01*
X156178815Y-58388815D01*
X156099463Y-58485506D01*
X156040498Y-58595820D01*
X156004188Y-58715518D01*
X155991928Y-58840000D01*
X141880572Y-58840000D01*
X141880572Y-57817500D01*
X141868312Y-57693018D01*
X141832002Y-57573320D01*
X141773037Y-57463006D01*
X141693685Y-57366315D01*
X141596994Y-57286963D01*
X141486680Y-57227998D01*
X141366982Y-57191688D01*
X141242500Y-57179428D01*
X138767500Y-57179428D01*
X138643018Y-57191688D01*
X138523320Y-57227998D01*
X138413006Y-57286963D01*
X138316315Y-57366315D01*
X138236963Y-57463006D01*
X138177998Y-57573320D01*
X138141688Y-57693018D01*
X138129428Y-57817500D01*
X136665615Y-57817500D01*
X136448649Y-57600534D01*
X136141961Y-57395612D01*
X135801188Y-57254459D01*
X135439425Y-57182500D01*
X135070575Y-57182500D01*
X134708812Y-57254459D01*
X134368039Y-57395612D01*
X134061351Y-57600534D01*
X133800534Y-57861351D01*
X133595612Y-58168039D01*
X133454459Y-58508812D01*
X133382500Y-58870575D01*
X132377500Y-58870575D01*
X132305541Y-58508812D01*
X132164388Y-58168039D01*
X131959466Y-57861351D01*
X131698649Y-57600534D01*
X131391961Y-57395612D01*
X131051188Y-57254459D01*
X130689425Y-57182500D01*
X130320575Y-57182500D01*
X129958812Y-57254459D01*
X129618039Y-57395612D01*
X129311351Y-57600534D01*
X129050534Y-57861351D01*
X128845612Y-58168039D01*
X128704459Y-58508812D01*
X128632500Y-58870575D01*
X118751945Y-58870575D01*
X118780632Y-58841888D01*
X118948805Y-58590199D01*
X119064645Y-58310538D01*
X119123700Y-58013651D01*
X119123700Y-57710947D01*
X119064645Y-57414060D01*
X118948805Y-57134399D01*
X118780632Y-56882710D01*
X118566589Y-56668667D01*
X118314900Y-56500494D01*
X118035239Y-56384654D01*
X117738352Y-56325599D01*
X117435648Y-56325599D01*
X117311378Y-56350318D01*
X117407256Y-56254440D01*
X117558751Y-56027712D01*
X117663102Y-55775785D01*
X117716300Y-55508342D01*
X117716300Y-55235658D01*
X117663102Y-54968215D01*
X117558751Y-54716288D01*
X117487732Y-54610000D01*
X153294299Y-54610000D01*
X153321040Y-54881507D01*
X153400236Y-55142581D01*
X153528843Y-55383188D01*
X153701919Y-55594081D01*
X153912812Y-55767157D01*
X154153419Y-55895764D01*
X154414493Y-55974960D01*
X154617963Y-55995000D01*
X194244315Y-55995000D01*
X194449001Y-56199686D01*
X194449000Y-59661194D01*
X194406068Y-59764842D01*
X194349000Y-60051740D01*
X194349000Y-60344260D01*
X194406068Y-60631158D01*
X194518010Y-60901411D01*
X194680525Y-61144632D01*
X194887368Y-61351475D01*
X195069534Y-61473195D01*
X194952645Y-61542822D01*
X194736412Y-61737731D01*
X194562359Y-61971080D01*
X194437175Y-62233901D01*
X194392524Y-62381110D01*
X194513845Y-62611000D01*
X195707000Y-62611000D01*
X195707000Y-62591000D01*
X195961000Y-62591000D01*
X195961000Y-62611000D01*
X197154155Y-62611000D01*
X197219443Y-62487285D01*
X197887056Y-62487285D01*
X197887056Y-63242715D01*
X198034433Y-63983628D01*
X198323523Y-64681554D01*
X198743217Y-65309670D01*
X199277386Y-65843839D01*
X199905502Y-66263533D01*
X200603428Y-66552623D01*
X201344341Y-66700000D01*
X202099771Y-66700000D01*
X202840684Y-66552623D01*
X203538610Y-66263533D01*
X204166726Y-65843839D01*
X204700895Y-65309670D01*
X205120589Y-64681554D01*
X205409679Y-63983628D01*
X205557056Y-63242715D01*
X205557056Y-62487285D01*
X205409679Y-61746372D01*
X205254219Y-61371059D01*
X205438102Y-61447226D01*
X205638061Y-61487000D01*
X205841939Y-61487000D01*
X206041898Y-61447226D01*
X206230256Y-61369205D01*
X206399774Y-61255937D01*
X206443711Y-61212000D01*
X206695199Y-61212000D01*
X208007000Y-62523802D01*
X208007000Y-62585939D01*
X208046774Y-62785898D01*
X208124795Y-62974256D01*
X208238063Y-63143774D01*
X208382226Y-63287937D01*
X208551744Y-63401205D01*
X208740102Y-63479226D01*
X208940061Y-63519000D01*
X209143939Y-63519000D01*
X209343898Y-63479226D01*
X209532256Y-63401205D01*
X209701774Y-63287937D01*
X209845937Y-63143774D01*
X209959205Y-62974256D01*
X210037226Y-62785898D01*
X210077000Y-62585939D01*
X210077000Y-62382061D01*
X210037226Y-62182102D01*
X209959205Y-61993744D01*
X209845937Y-61824226D01*
X209701774Y-61680063D01*
X209532256Y-61566795D01*
X209343898Y-61488774D01*
X209143939Y-61449000D01*
X209081802Y-61449000D01*
X207573804Y-59941003D01*
X207550001Y-59911999D01*
X207434276Y-59817026D01*
X207302247Y-59746454D01*
X207158986Y-59702997D01*
X207047333Y-59692000D01*
X207047322Y-59692000D01*
X207010000Y-59688324D01*
X206972678Y-59692000D01*
X206443711Y-59692000D01*
X206399774Y-59648063D01*
X206230256Y-59534795D01*
X206041898Y-59456774D01*
X205841939Y-59417000D01*
X205638061Y-59417000D01*
X205438102Y-59456774D01*
X205249744Y-59534795D01*
X205080226Y-59648063D01*
X204936063Y-59792226D01*
X204822795Y-59961744D01*
X204744774Y-60150102D01*
X204705000Y-60350061D01*
X204705000Y-60426474D01*
X204700895Y-60420330D01*
X204166726Y-59886161D01*
X203538610Y-59466467D01*
X202840684Y-59177377D01*
X202099771Y-59030000D01*
X201344341Y-59030000D01*
X200603428Y-59177377D01*
X199905502Y-59466467D01*
X199277386Y-59886161D01*
X198743217Y-60420330D01*
X198323523Y-61048446D01*
X198034433Y-61746372D01*
X197887056Y-62487285D01*
X197219443Y-62487285D01*
X197275476Y-62381110D01*
X197230825Y-62233901D01*
X197105641Y-61971080D01*
X196931588Y-61737731D01*
X196715355Y-61542822D01*
X196598466Y-61473195D01*
X196780632Y-61351475D01*
X196987475Y-61144632D01*
X197149990Y-60901411D01*
X197261932Y-60631158D01*
X197319000Y-60344260D01*
X197319000Y-60051740D01*
X197261932Y-59764842D01*
X197219000Y-59661195D01*
X197219000Y-57710947D01*
X203528299Y-57710947D01*
X203528299Y-58013651D01*
X203587354Y-58310538D01*
X203703194Y-58590199D01*
X203871367Y-58841888D01*
X204085410Y-59055931D01*
X204337099Y-59224104D01*
X204616760Y-59339944D01*
X204913647Y-59398999D01*
X205216351Y-59398999D01*
X205513238Y-59339944D01*
X205792899Y-59224104D01*
X206044588Y-59055931D01*
X206258631Y-58841888D01*
X206426804Y-58590199D01*
X206542644Y-58310538D01*
X206601699Y-58013651D01*
X206601699Y-57710947D01*
X206542644Y-57414060D01*
X206426804Y-57134399D01*
X206258631Y-56882710D01*
X206119449Y-56743528D01*
X206183657Y-56756300D01*
X206456341Y-56756300D01*
X206723784Y-56703102D01*
X206975711Y-56598751D01*
X207202439Y-56447256D01*
X207395255Y-56254440D01*
X207546750Y-56027712D01*
X207651101Y-55775785D01*
X207704299Y-55508342D01*
X207704299Y-55235658D01*
X209435700Y-55235658D01*
X209435700Y-55508342D01*
X209488898Y-55775785D01*
X209593249Y-56027712D01*
X209744744Y-56254440D01*
X209937560Y-56447256D01*
X210164288Y-56598751D01*
X210416215Y-56703102D01*
X210683658Y-56756300D01*
X210956342Y-56756300D01*
X211020550Y-56743528D01*
X210881368Y-56882710D01*
X210713195Y-57134399D01*
X210597355Y-57414060D01*
X210538300Y-57710947D01*
X210538300Y-58013651D01*
X210597355Y-58310538D01*
X210713195Y-58590199D01*
X210881368Y-58841888D01*
X211095411Y-59055931D01*
X211347100Y-59224104D01*
X211626761Y-59339944D01*
X211923648Y-59398999D01*
X212226352Y-59398999D01*
X212523239Y-59339944D01*
X212802900Y-59224104D01*
X213054589Y-59055931D01*
X213268632Y-58841888D01*
X213436805Y-58590199D01*
X213552645Y-58310538D01*
X213611700Y-58013651D01*
X213611700Y-57710947D01*
X213552645Y-57414060D01*
X213436805Y-57134399D01*
X213268632Y-56882710D01*
X213054589Y-56668667D01*
X212802900Y-56500494D01*
X212523239Y-56384654D01*
X212226352Y-56325599D01*
X211923648Y-56325599D01*
X211799378Y-56350318D01*
X211895256Y-56254440D01*
X212046751Y-56027712D01*
X212151102Y-55775785D01*
X212204300Y-55508342D01*
X212204300Y-55235658D01*
X212151102Y-54968215D01*
X212046751Y-54716288D01*
X211895256Y-54489560D01*
X211702440Y-54296744D01*
X211475712Y-54145249D01*
X211223785Y-54040898D01*
X210956342Y-53987700D01*
X210683658Y-53987700D01*
X210416215Y-54040898D01*
X210164288Y-54145249D01*
X209937560Y-54296744D01*
X209744744Y-54489560D01*
X209593249Y-54716288D01*
X209488898Y-54968215D01*
X209435700Y-55235658D01*
X207704299Y-55235658D01*
X207651101Y-54968215D01*
X207546750Y-54716288D01*
X207395255Y-54489560D01*
X207202439Y-54296744D01*
X206975711Y-54145249D01*
X206723784Y-54040898D01*
X206456341Y-53987700D01*
X206183657Y-53987700D01*
X205916214Y-54040898D01*
X205664287Y-54145249D01*
X205437559Y-54296744D01*
X205244743Y-54489560D01*
X205093248Y-54716288D01*
X204988897Y-54968215D01*
X204935699Y-55235658D01*
X204935699Y-55508342D01*
X204988897Y-55775785D01*
X205093248Y-56027712D01*
X205244743Y-56254440D01*
X205340621Y-56350318D01*
X205216351Y-56325599D01*
X204913647Y-56325599D01*
X204616760Y-56384654D01*
X204337099Y-56500494D01*
X204085410Y-56668667D01*
X203871367Y-56882710D01*
X203703194Y-57134399D01*
X203587354Y-57414060D01*
X203528299Y-57710947D01*
X197219000Y-57710947D01*
X197219000Y-55694029D01*
X197225700Y-55626000D01*
X197219000Y-55557971D01*
X197219000Y-55557963D01*
X197198960Y-55354493D01*
X197119764Y-55093419D01*
X196991157Y-54852812D01*
X196953641Y-54807099D01*
X196861452Y-54694766D01*
X196861450Y-54694764D01*
X196818081Y-54641919D01*
X196765236Y-54598550D01*
X195845454Y-53678769D01*
X195802081Y-53625919D01*
X195591188Y-53452843D01*
X195350581Y-53324236D01*
X195089507Y-53245040D01*
X194886037Y-53225000D01*
X194886029Y-53225000D01*
X194818000Y-53218300D01*
X194749971Y-53225000D01*
X154617963Y-53225000D01*
X154414493Y-53245040D01*
X154153419Y-53324236D01*
X153912812Y-53452843D01*
X153701919Y-53625919D01*
X153528843Y-53836812D01*
X153400236Y-54077419D01*
X153321040Y-54338493D01*
X153294299Y-54610000D01*
X117487732Y-54610000D01*
X117407256Y-54489560D01*
X117214440Y-54296744D01*
X116987712Y-54145249D01*
X116735785Y-54040898D01*
X116468342Y-53987700D01*
X116195658Y-53987700D01*
X115928215Y-54040898D01*
X115676288Y-54145249D01*
X115449560Y-54296744D01*
X115256744Y-54489560D01*
X115105249Y-54716288D01*
X115000898Y-54968215D01*
X114947700Y-55235658D01*
X113216299Y-55235658D01*
X113163101Y-54968215D01*
X113058750Y-54716288D01*
X112907255Y-54489560D01*
X112714439Y-54296744D01*
X112487711Y-54145249D01*
X112235784Y-54040898D01*
X111968341Y-53987700D01*
X111695657Y-53987700D01*
X111428214Y-54040898D01*
X111176287Y-54145249D01*
X110949559Y-54296744D01*
X110756743Y-54489560D01*
X110605248Y-54716288D01*
X110500897Y-54968215D01*
X110447699Y-55235658D01*
X110447699Y-55508342D01*
X110500897Y-55775785D01*
X110605248Y-56027712D01*
X110756743Y-56254440D01*
X110852621Y-56350318D01*
X110728351Y-56325599D01*
X110425647Y-56325599D01*
X110128760Y-56384654D01*
X109849099Y-56500494D01*
X109597410Y-56668667D01*
X109383367Y-56882710D01*
X109215194Y-57134399D01*
X109099354Y-57414060D01*
X109040299Y-57710947D01*
X107470893Y-57710947D01*
X110840358Y-52730000D01*
X211532322Y-52730000D01*
X225387044Y-72904421D01*
%TA.AperFunction,Conductor*%
D25*
G36*
X225387044Y-72904421D02*
G01*
X225933000Y-73711487D01*
X225933000Y-89322980D01*
X211664019Y-101730791D01*
X211621053Y-101766052D01*
X211594403Y-101798525D01*
X211565556Y-101829066D01*
X211553255Y-101848664D01*
X211538576Y-101866550D01*
X211518771Y-101903603D01*
X211496440Y-101939180D01*
X211488199Y-101960800D01*
X211477291Y-101981207D01*
X211465097Y-102021405D01*
X211450133Y-102060661D01*
X211446268Y-102083475D01*
X211439551Y-102105617D01*
X211435434Y-102147423D01*
X211428416Y-102188843D01*
X211430001Y-102244408D01*
X211430000Y-117833171D01*
X210512677Y-118822914D01*
X201740833Y-128143000D01*
X120958474Y-128143000D01*
X111801143Y-118516061D01*
X154413000Y-118516061D01*
X154413000Y-118719939D01*
X154452774Y-118919898D01*
X154530795Y-119108256D01*
X154644063Y-119277774D01*
X154788226Y-119421937D01*
X154957744Y-119535205D01*
X155146102Y-119613226D01*
X155346061Y-119653000D01*
X155549939Y-119653000D01*
X155749898Y-119613226D01*
X155938256Y-119535205D01*
X156107774Y-119421937D01*
X156154985Y-119374726D01*
X156233398Y-119367003D01*
X156376659Y-119323546D01*
X156508688Y-119252974D01*
X156624413Y-119158001D01*
X156648211Y-119129002D01*
X163868524Y-111908681D01*
X163897521Y-111884884D01*
X163992494Y-111769159D01*
X164007076Y-111741878D01*
X166880001Y-114614804D01*
X166880000Y-118168289D01*
X166836063Y-118212226D01*
X166722795Y-118381744D01*
X166644774Y-118570102D01*
X166605000Y-118770061D01*
X166605000Y-118973939D01*
X166644774Y-119173898D01*
X166722795Y-119362256D01*
X166836063Y-119531774D01*
X166980226Y-119675937D01*
X167149744Y-119789205D01*
X167338102Y-119867226D01*
X167538061Y-119907000D01*
X167741939Y-119907000D01*
X167941898Y-119867226D01*
X168130256Y-119789205D01*
X168299774Y-119675937D01*
X168443937Y-119531774D01*
X168557205Y-119362256D01*
X168635226Y-119173898D01*
X168675000Y-118973939D01*
X168675000Y-118770061D01*
X168635226Y-118570102D01*
X168557205Y-118381744D01*
X168443937Y-118212226D01*
X168400000Y-118168289D01*
X168400000Y-114337322D01*
X168403676Y-114299999D01*
X168400000Y-114262676D01*
X168400000Y-114262667D01*
X168389003Y-114151014D01*
X168345546Y-114007753D01*
X168274974Y-113875724D01*
X168260512Y-113858102D01*
X168203799Y-113788996D01*
X168203795Y-113788992D01*
X168180001Y-113759999D01*
X168151008Y-113736205D01*
X166072863Y-111658061D01*
X186925000Y-111658061D01*
X186925000Y-111861939D01*
X186964774Y-112061898D01*
X187042795Y-112250256D01*
X187156063Y-112419774D01*
X187300226Y-112563937D01*
X187359543Y-112603571D01*
X187359543Y-112787929D01*
X187399317Y-112987888D01*
X187477338Y-113176246D01*
X187590606Y-113345764D01*
X187734769Y-113489927D01*
X187904287Y-113603195D01*
X188092645Y-113681216D01*
X188292604Y-113720990D01*
X188496482Y-113720990D01*
X188696441Y-113681216D01*
X188884799Y-113603195D01*
X189054317Y-113489927D01*
X189098254Y-113445990D01*
X189147773Y-113445990D01*
X189185095Y-113449666D01*
X189222417Y-113445990D01*
X189222428Y-113445990D01*
X189334081Y-113434993D01*
X189477342Y-113391536D01*
X189609371Y-113320964D01*
X189725096Y-113225991D01*
X189748899Y-113196987D01*
X191790042Y-111155844D01*
X191745000Y-111382285D01*
X191745000Y-112137715D01*
X191892377Y-112878628D01*
X192181467Y-113576554D01*
X192601161Y-114204670D01*
X193135330Y-114738839D01*
X193763446Y-115158533D01*
X194461372Y-115447623D01*
X195202285Y-115595000D01*
X195957715Y-115595000D01*
X196698628Y-115447623D01*
X197396554Y-115158533D01*
X198024670Y-114738839D01*
X198558839Y-114204670D01*
X198978533Y-113576554D01*
X199267623Y-112878628D01*
X199415000Y-112137715D01*
X199415000Y-111382285D01*
X199267623Y-110641372D01*
X198978533Y-109943446D01*
X198558839Y-109315330D01*
X198024670Y-108781161D01*
X197396554Y-108361467D01*
X196698628Y-108072377D01*
X195957715Y-107925000D01*
X195202285Y-107925000D01*
X194975845Y-107970042D01*
X205489008Y-97456880D01*
X205518001Y-97433086D01*
X205541795Y-97404093D01*
X205541799Y-97404089D01*
X205612973Y-97317362D01*
X205631506Y-97282690D01*
X205683546Y-97185332D01*
X205727003Y-97042071D01*
X205738000Y-96930418D01*
X205738000Y-96930409D01*
X205741676Y-96893086D01*
X205738000Y-96855763D01*
X205738000Y-93549445D01*
X205826232Y-93681493D01*
X206038507Y-93893768D01*
X206288115Y-94060551D01*
X206565466Y-94175434D01*
X206859899Y-94234000D01*
X207160101Y-94234000D01*
X207454534Y-94175434D01*
X207731885Y-94060551D01*
X207981493Y-93893768D01*
X208193768Y-93681493D01*
X208280000Y-93552438D01*
X208366232Y-93681493D01*
X208578507Y-93893768D01*
X208828115Y-94060551D01*
X209105466Y-94175434D01*
X209399899Y-94234000D01*
X209700101Y-94234000D01*
X209994534Y-94175434D01*
X210271885Y-94060551D01*
X210521493Y-93893768D01*
X210649030Y-93766231D01*
X211213374Y-93766231D01*
X211295727Y-94019289D01*
X211566418Y-94149086D01*
X211857230Y-94223580D01*
X212156988Y-94239908D01*
X212454171Y-94197443D01*
X212737359Y-94097816D01*
X212884273Y-94019289D01*
X212966626Y-93766231D01*
X212090000Y-92889605D01*
X211213374Y-93766231D01*
X210649030Y-93766231D01*
X210733768Y-93681493D01*
X210839417Y-93523378D01*
X211033769Y-93586626D01*
X211910395Y-92710000D01*
X212269605Y-92710000D01*
X213146231Y-93586626D01*
X213399289Y-93504273D01*
X213529086Y-93233582D01*
X213603580Y-92942770D01*
X213619908Y-92643012D01*
X213577443Y-92345829D01*
X213477816Y-92062641D01*
X213399289Y-91915727D01*
X213146231Y-91833374D01*
X212269605Y-92710000D01*
X211910395Y-92710000D01*
X211033769Y-91833374D01*
X210839417Y-91896622D01*
X210733768Y-91738507D01*
X210649030Y-91653769D01*
X211213374Y-91653769D01*
X212090000Y-92530395D01*
X212966626Y-91653769D01*
X212884273Y-91400711D01*
X212613582Y-91270914D01*
X212322770Y-91196420D01*
X212023012Y-91180092D01*
X211725829Y-91222557D01*
X211442641Y-91322184D01*
X211295727Y-91400711D01*
X211213374Y-91653769D01*
X210649030Y-91653769D01*
X210521493Y-91526232D01*
X210271885Y-91359449D01*
X209994534Y-91244566D01*
X209700101Y-91186000D01*
X209399899Y-91186000D01*
X209105466Y-91244566D01*
X208828115Y-91359449D01*
X208578507Y-91526232D01*
X208366232Y-91738507D01*
X208280000Y-91867562D01*
X208193768Y-91738507D01*
X207981493Y-91526232D01*
X207731885Y-91359449D01*
X207454534Y-91244566D01*
X207160101Y-91186000D01*
X207008000Y-91186000D01*
X207008000Y-90454860D01*
X216112245Y-90454860D01*
X216225264Y-90733884D01*
X216539249Y-90889056D01*
X216877473Y-90979991D01*
X217226938Y-91003194D01*
X217574216Y-90957775D01*
X217905960Y-90845477D01*
X218114736Y-90733884D01*
X218227755Y-90454860D01*
X217170000Y-89397105D01*
X216112245Y-90454860D01*
X207008000Y-90454860D01*
X207008000Y-89857711D01*
X207051937Y-89813774D01*
X207165205Y-89644256D01*
X207243226Y-89455898D01*
X207279320Y-89274438D01*
X215384306Y-89274438D01*
X215429725Y-89621716D01*
X215542023Y-89953460D01*
X215653616Y-90162236D01*
X215932640Y-90275255D01*
X216990395Y-89217500D01*
X217349605Y-89217500D01*
X218407360Y-90275255D01*
X218686384Y-90162236D01*
X218841556Y-89848251D01*
X218932491Y-89510027D01*
X218955694Y-89160562D01*
X218910275Y-88813284D01*
X218797977Y-88481540D01*
X218686384Y-88272764D01*
X218407360Y-88159745D01*
X217349605Y-89217500D01*
X216990395Y-89217500D01*
X215932640Y-88159745D01*
X215653616Y-88272764D01*
X215498444Y-88586749D01*
X215407509Y-88924973D01*
X215384306Y-89274438D01*
X207279320Y-89274438D01*
X207283000Y-89255939D01*
X207283000Y-89052061D01*
X207243226Y-88852102D01*
X207165205Y-88663744D01*
X207051937Y-88494226D01*
X206907774Y-88350063D01*
X206738256Y-88236795D01*
X206549898Y-88158774D01*
X206349939Y-88119000D01*
X206146061Y-88119000D01*
X205946102Y-88158774D01*
X205757744Y-88236795D01*
X205588226Y-88350063D01*
X205444063Y-88494226D01*
X205330795Y-88663744D01*
X205252774Y-88852102D01*
X205213000Y-89052061D01*
X205213000Y-89255939D01*
X205243562Y-89409587D01*
X205147102Y-89428774D01*
X204958744Y-89506795D01*
X204837978Y-89587488D01*
X204837978Y-87980140D01*
X216112245Y-87980140D01*
X217170000Y-89037895D01*
X218227755Y-87980140D01*
X218114736Y-87701116D01*
X217800751Y-87545944D01*
X217462527Y-87455009D01*
X217113062Y-87431806D01*
X216765784Y-87477225D01*
X216434040Y-87589523D01*
X216225264Y-87701116D01*
X216112245Y-87980140D01*
X204837978Y-87980140D01*
X204837978Y-86558823D01*
X207303802Y-84093000D01*
X207365939Y-84093000D01*
X207565898Y-84053226D01*
X207754256Y-83975205D01*
X207923774Y-83861937D01*
X208067937Y-83717774D01*
X208181205Y-83548256D01*
X208259226Y-83359898D01*
X208299000Y-83159939D01*
X208299000Y-82956061D01*
X208259226Y-82756102D01*
X208181205Y-82567744D01*
X208067937Y-82398226D01*
X207923774Y-82254063D01*
X207754256Y-82140795D01*
X207565898Y-82062774D01*
X207365939Y-82023000D01*
X207162061Y-82023000D01*
X206962102Y-82062774D01*
X206773744Y-82140795D01*
X206604226Y-82254063D01*
X206460063Y-82398226D01*
X206346795Y-82567744D01*
X206268774Y-82756102D01*
X206229000Y-82956061D01*
X206229000Y-83018198D01*
X204158001Y-85089198D01*
X204158001Y-83936800D01*
X205525802Y-82569000D01*
X205587939Y-82569000D01*
X205787898Y-82529226D01*
X205976256Y-82451205D01*
X206145774Y-82337937D01*
X206289937Y-82193774D01*
X206403205Y-82024256D01*
X206481226Y-81835898D01*
X206521000Y-81635939D01*
X206521000Y-81432061D01*
X206481226Y-81232102D01*
X206403205Y-81043744D01*
X206289937Y-80874226D01*
X206145774Y-80730063D01*
X205976256Y-80616795D01*
X205787898Y-80538774D01*
X205587939Y-80499000D01*
X205384061Y-80499000D01*
X205184102Y-80538774D01*
X204995744Y-80616795D01*
X204826226Y-80730063D01*
X204682063Y-80874226D01*
X204568795Y-81043744D01*
X204490774Y-81232102D01*
X204451000Y-81432061D01*
X204451000Y-81494198D01*
X202887004Y-83058195D01*
X202858000Y-83081998D01*
X202802872Y-83149173D01*
X202763027Y-83197723D01*
X202692456Y-83329752D01*
X202692455Y-83329753D01*
X202648998Y-83473014D01*
X202638001Y-83584667D01*
X202638001Y-83584677D01*
X202634325Y-83621999D01*
X202638001Y-83659321D01*
X202638001Y-87584121D01*
X202560751Y-87545944D01*
X202222527Y-87455009D01*
X201873062Y-87431806D01*
X201525784Y-87477225D01*
X201194040Y-87589523D01*
X200985264Y-87701116D01*
X200872245Y-87980140D01*
X201930000Y-89037895D01*
X201944143Y-89023753D01*
X202123748Y-89203358D01*
X202109605Y-89217500D01*
X202123748Y-89231643D01*
X201944143Y-89411248D01*
X201930000Y-89397105D01*
X200872245Y-90454860D01*
X200985264Y-90733884D01*
X201299249Y-90889056D01*
X201637473Y-90979991D01*
X201986938Y-91003194D01*
X202334216Y-90957775D01*
X202638002Y-90854941D01*
X202638002Y-95133198D01*
X197439201Y-100332000D01*
X196283711Y-100332000D01*
X196239774Y-100288063D01*
X196070256Y-100174795D01*
X195881898Y-100096774D01*
X195681939Y-100057000D01*
X195478061Y-100057000D01*
X195278102Y-100096774D01*
X195089744Y-100174795D01*
X194920226Y-100288063D01*
X194776063Y-100432226D01*
X194662795Y-100601744D01*
X194584774Y-100790102D01*
X194545000Y-100990061D01*
X194545000Y-101193939D01*
X194584774Y-101393898D01*
X194662795Y-101582256D01*
X194776063Y-101751774D01*
X194920226Y-101895937D01*
X195089744Y-102009205D01*
X195278102Y-102087226D01*
X195478061Y-102127000D01*
X195681939Y-102127000D01*
X195881898Y-102087226D01*
X196070256Y-102009205D01*
X196239774Y-101895937D01*
X196283711Y-101852000D01*
X197047198Y-101852000D01*
X188936199Y-109963000D01*
X188874061Y-109963000D01*
X188674102Y-110002774D01*
X188485744Y-110080795D01*
X188316226Y-110194063D01*
X188172063Y-110338226D01*
X188058795Y-110507744D01*
X187980774Y-110696102D01*
X187975026Y-110725000D01*
X187858061Y-110725000D01*
X187658102Y-110764774D01*
X187469744Y-110842795D01*
X187300226Y-110956063D01*
X187156063Y-111100226D01*
X187042795Y-111269744D01*
X186964774Y-111458102D01*
X186925000Y-111658061D01*
X166072863Y-111658061D01*
X164844000Y-110429199D01*
X164844000Y-96354030D01*
X164847676Y-96316707D01*
X164844000Y-96279384D01*
X164844000Y-96279375D01*
X164833003Y-96167722D01*
X164789546Y-96024461D01*
X164718974Y-95892432D01*
X164624001Y-95776707D01*
X164595002Y-95752908D01*
X164570722Y-95728629D01*
X164575024Y-95720581D01*
X164618481Y-95577320D01*
X164629478Y-95465667D01*
X164629478Y-95465658D01*
X164633154Y-95428335D01*
X164629478Y-95391012D01*
X164629478Y-92392334D01*
X186730000Y-92392334D01*
X186730000Y-92827666D01*
X186814929Y-93254633D01*
X186981524Y-93656827D01*
X187223381Y-94018793D01*
X187531207Y-94326619D01*
X187893173Y-94568476D01*
X188295367Y-94735071D01*
X188722334Y-94820000D01*
X189157666Y-94820000D01*
X189584633Y-94735071D01*
X189986827Y-94568476D01*
X190348793Y-94326619D01*
X190656619Y-94018793D01*
X190898476Y-93656827D01*
X191065071Y-93254633D01*
X191150000Y-92827666D01*
X191150000Y-92392334D01*
X191065071Y-91965367D01*
X190898476Y-91563173D01*
X190656619Y-91201207D01*
X190348793Y-90893381D01*
X189986827Y-90651524D01*
X189584633Y-90484929D01*
X189157666Y-90400000D01*
X188722334Y-90400000D01*
X188295367Y-90484929D01*
X187893173Y-90651524D01*
X187531207Y-90893381D01*
X187223381Y-91201207D01*
X186981524Y-91563173D01*
X186814929Y-91965367D01*
X186730000Y-92392334D01*
X164629478Y-92392334D01*
X164629478Y-89274438D01*
X200144306Y-89274438D01*
X200189725Y-89621716D01*
X200302023Y-89953460D01*
X200413616Y-90162236D01*
X200692640Y-90275255D01*
X201750395Y-89217500D01*
X200692640Y-88159745D01*
X200413616Y-88272764D01*
X200258444Y-88586749D01*
X200167509Y-88924973D01*
X200144306Y-89274438D01*
X164629478Y-89274438D01*
X164629478Y-86146231D01*
X198513374Y-86146231D01*
X198595727Y-86399289D01*
X198866418Y-86529086D01*
X199157230Y-86603580D01*
X199456988Y-86619908D01*
X199754171Y-86577443D01*
X200037359Y-86477816D01*
X200184273Y-86399289D01*
X200266626Y-86146231D01*
X199390000Y-85269605D01*
X198513374Y-86146231D01*
X164629478Y-86146231D01*
X164629478Y-85156988D01*
X197860092Y-85156988D01*
X197902557Y-85454171D01*
X198002184Y-85737359D01*
X198080711Y-85884273D01*
X198333769Y-85966626D01*
X199210395Y-85090000D01*
X199569605Y-85090000D01*
X200446231Y-85966626D01*
X200699289Y-85884273D01*
X200829086Y-85613582D01*
X200903580Y-85322770D01*
X200919908Y-85023012D01*
X200877443Y-84725829D01*
X200777816Y-84442641D01*
X200699289Y-84295727D01*
X200446231Y-84213374D01*
X199569605Y-85090000D01*
X199210395Y-85090000D01*
X198333769Y-84213374D01*
X198080711Y-84295727D01*
X197950914Y-84566418D01*
X197876420Y-84857230D01*
X197860092Y-85156988D01*
X164629478Y-85156988D01*
X164629478Y-79859899D01*
X197866000Y-79859899D01*
X197866000Y-80160101D01*
X197924566Y-80454534D01*
X198039449Y-80731885D01*
X198206232Y-80981493D01*
X198418507Y-81193768D01*
X198547562Y-81280000D01*
X198418507Y-81366232D01*
X198206232Y-81578507D01*
X198039449Y-81828115D01*
X197924566Y-82105466D01*
X197866000Y-82399899D01*
X197866000Y-82700101D01*
X197924566Y-82994534D01*
X198039449Y-83271885D01*
X198206232Y-83521493D01*
X198418507Y-83733768D01*
X198576622Y-83839417D01*
X198513374Y-84033769D01*
X199390000Y-84910395D01*
X200266626Y-84033769D01*
X200203378Y-83839417D01*
X200361493Y-83733768D01*
X200573768Y-83521493D01*
X200740551Y-83271885D01*
X200855434Y-82994534D01*
X200914000Y-82700101D01*
X200914000Y-82399899D01*
X200855434Y-82105466D01*
X200740551Y-81828115D01*
X200573768Y-81578507D01*
X200361493Y-81366232D01*
X200232438Y-81280000D01*
X200361493Y-81193768D01*
X200573768Y-80981493D01*
X200740551Y-80731885D01*
X200855434Y-80454534D01*
X200914000Y-80160101D01*
X200914000Y-79859899D01*
X200855434Y-79565466D01*
X200740551Y-79288115D01*
X200573768Y-79038507D01*
X200361493Y-78826232D01*
X200111885Y-78659449D01*
X199834534Y-78544566D01*
X199540101Y-78486000D01*
X199239899Y-78486000D01*
X198945466Y-78544566D01*
X198668115Y-78659449D01*
X198418507Y-78826232D01*
X198206232Y-79038507D01*
X198039449Y-79288115D01*
X197924566Y-79565466D01*
X197866000Y-79859899D01*
X164629478Y-79859899D01*
X164629478Y-74828061D01*
X186290000Y-74828061D01*
X186290000Y-75031939D01*
X186329774Y-75231898D01*
X186407795Y-75420256D01*
X186521063Y-75589774D01*
X186565000Y-75633711D01*
X186565001Y-77491298D01*
X186521063Y-77535236D01*
X186407795Y-77704754D01*
X186329774Y-77893112D01*
X186290000Y-78093071D01*
X186290000Y-78296949D01*
X186329774Y-78496908D01*
X186407795Y-78685266D01*
X186521063Y-78854784D01*
X186665226Y-78998947D01*
X186834744Y-79112215D01*
X187023102Y-79190236D01*
X187223061Y-79230010D01*
X187426939Y-79230010D01*
X187626898Y-79190236D01*
X187815256Y-79112215D01*
X187984774Y-78998947D01*
X188128937Y-78854784D01*
X188242205Y-78685266D01*
X188320226Y-78496908D01*
X188360000Y-78296949D01*
X188360000Y-78093071D01*
X188320226Y-77893112D01*
X188242205Y-77704754D01*
X188128937Y-77535236D01*
X188085000Y-77491299D01*
X188085000Y-77119860D01*
X200872245Y-77119860D01*
X200985264Y-77398884D01*
X201299249Y-77554056D01*
X201637473Y-77644991D01*
X201986938Y-77668194D01*
X202334216Y-77622775D01*
X202665960Y-77510477D01*
X202874736Y-77398884D01*
X202987755Y-77119860D01*
X216112245Y-77119860D01*
X216225264Y-77398884D01*
X216539249Y-77554056D01*
X216877473Y-77644991D01*
X217226938Y-77668194D01*
X217574216Y-77622775D01*
X217905960Y-77510477D01*
X218114736Y-77398884D01*
X218227755Y-77119860D01*
X217170000Y-76062105D01*
X216112245Y-77119860D01*
X202987755Y-77119860D01*
X201930000Y-76062105D01*
X200872245Y-77119860D01*
X188085000Y-77119860D01*
X188085000Y-75939438D01*
X200144306Y-75939438D01*
X200189725Y-76286716D01*
X200302023Y-76618460D01*
X200413616Y-76827236D01*
X200692640Y-76940255D01*
X201750395Y-75882500D01*
X202109605Y-75882500D01*
X203167360Y-76940255D01*
X203446384Y-76827236D01*
X203601556Y-76513251D01*
X203692491Y-76175027D01*
X203715694Y-75825562D01*
X203670275Y-75478284D01*
X203557977Y-75146540D01*
X203446384Y-74937764D01*
X203167360Y-74824745D01*
X202109605Y-75882500D01*
X201750395Y-75882500D01*
X200692640Y-74824745D01*
X200413616Y-74937764D01*
X200258444Y-75251749D01*
X200167509Y-75589973D01*
X200144306Y-75939438D01*
X188085000Y-75939438D01*
X188085000Y-75633711D01*
X188128937Y-75589774D01*
X188242205Y-75420256D01*
X188320226Y-75231898D01*
X188360000Y-75031939D01*
X188360000Y-74828061D01*
X188323616Y-74645140D01*
X200872245Y-74645140D01*
X201930000Y-75702895D01*
X202852996Y-74779899D01*
X204851000Y-74779899D01*
X204851000Y-75080101D01*
X204909566Y-75374534D01*
X205024449Y-75651885D01*
X205191232Y-75901493D01*
X205403507Y-76113768D01*
X205653115Y-76280551D01*
X205930466Y-76395434D01*
X206224899Y-76454000D01*
X206525101Y-76454000D01*
X206819534Y-76395434D01*
X207096885Y-76280551D01*
X207346493Y-76113768D01*
X207558768Y-75901493D01*
X207725551Y-75651885D01*
X207840434Y-75374534D01*
X207899000Y-75080101D01*
X207899000Y-74779899D01*
X211201000Y-74779899D01*
X211201000Y-75080101D01*
X211259566Y-75374534D01*
X211374449Y-75651885D01*
X211541232Y-75901493D01*
X211753507Y-76113768D01*
X212003115Y-76280551D01*
X212280466Y-76395434D01*
X212574899Y-76454000D01*
X212875101Y-76454000D01*
X213169534Y-76395434D01*
X213446885Y-76280551D01*
X213696493Y-76113768D01*
X213870823Y-75939438D01*
X215384306Y-75939438D01*
X215429725Y-76286716D01*
X215542023Y-76618460D01*
X215653616Y-76827236D01*
X215932640Y-76940255D01*
X216990395Y-75882500D01*
X217349605Y-75882500D01*
X218407360Y-76940255D01*
X218686384Y-76827236D01*
X218841556Y-76513251D01*
X218932491Y-76175027D01*
X218955694Y-75825562D01*
X218910275Y-75478284D01*
X218797977Y-75146540D01*
X218686384Y-74937764D01*
X218407360Y-74824745D01*
X217349605Y-75882500D01*
X216990395Y-75882500D01*
X215932640Y-74824745D01*
X215653616Y-74937764D01*
X215498444Y-75251749D01*
X215407509Y-75589973D01*
X215384306Y-75939438D01*
X213870823Y-75939438D01*
X213908768Y-75901493D01*
X214075551Y-75651885D01*
X214190434Y-75374534D01*
X214249000Y-75080101D01*
X214249000Y-74779899D01*
X214222195Y-74645140D01*
X216112245Y-74645140D01*
X217170000Y-75702895D01*
X218227755Y-74645140D01*
X218114736Y-74366116D01*
X217800751Y-74210944D01*
X217462527Y-74120009D01*
X217113062Y-74096806D01*
X216765784Y-74142225D01*
X216434040Y-74254523D01*
X216225264Y-74366116D01*
X216112245Y-74645140D01*
X214222195Y-74645140D01*
X214190434Y-74485466D01*
X214075551Y-74208115D01*
X213908768Y-73958507D01*
X213696493Y-73746232D01*
X213446885Y-73579449D01*
X213169534Y-73464566D01*
X212875101Y-73406000D01*
X212574899Y-73406000D01*
X212280466Y-73464566D01*
X212003115Y-73579449D01*
X211753507Y-73746232D01*
X211541232Y-73958507D01*
X211374449Y-74208115D01*
X211259566Y-74485466D01*
X211201000Y-74779899D01*
X207899000Y-74779899D01*
X207840434Y-74485466D01*
X207725551Y-74208115D01*
X207558768Y-73958507D01*
X207346493Y-73746232D01*
X207096885Y-73579449D01*
X206819534Y-73464566D01*
X206525101Y-73406000D01*
X206224899Y-73406000D01*
X205930466Y-73464566D01*
X205653115Y-73579449D01*
X205403507Y-73746232D01*
X205191232Y-73958507D01*
X205024449Y-74208115D01*
X204909566Y-74485466D01*
X204851000Y-74779899D01*
X202852996Y-74779899D01*
X202987755Y-74645140D01*
X202874736Y-74366116D01*
X202560751Y-74210944D01*
X202222527Y-74120009D01*
X201873062Y-74096806D01*
X201525784Y-74142225D01*
X201194040Y-74254523D01*
X200985264Y-74366116D01*
X200872245Y-74645140D01*
X188323616Y-74645140D01*
X188320226Y-74628102D01*
X188242205Y-74439744D01*
X188128937Y-74270226D01*
X187984774Y-74126063D01*
X187815256Y-74012795D01*
X187626898Y-73934774D01*
X187426939Y-73895000D01*
X187223061Y-73895000D01*
X187023102Y-73934774D01*
X186834744Y-74012795D01*
X186665226Y-74126063D01*
X186521063Y-74270226D01*
X186407795Y-74439744D01*
X186329774Y-74628102D01*
X186290000Y-74828061D01*
X164629478Y-74828061D01*
X164629478Y-66446061D01*
X179813000Y-66446061D01*
X179813000Y-66649939D01*
X179852774Y-66849898D01*
X179930795Y-67038256D01*
X180044063Y-67207774D01*
X180088001Y-67251712D01*
X180088000Y-68796677D01*
X180084324Y-68834000D01*
X180088000Y-68871322D01*
X180088000Y-68871332D01*
X180098997Y-68982985D01*
X180128107Y-69078949D01*
X180142454Y-69126246D01*
X180213026Y-69258276D01*
X180252871Y-69306826D01*
X180307999Y-69374001D01*
X180337002Y-69397803D01*
X181808205Y-70869008D01*
X181831999Y-70898001D01*
X181860992Y-70921795D01*
X181860996Y-70921799D01*
X181906720Y-70959323D01*
X181947724Y-70992974D01*
X182079753Y-71063546D01*
X182223014Y-71107003D01*
X182334667Y-71118000D01*
X182334676Y-71118000D01*
X182371999Y-71121676D01*
X182409322Y-71118000D01*
X183547676Y-71118000D01*
X183584998Y-71121676D01*
X183622320Y-71118000D01*
X183622331Y-71118000D01*
X183733984Y-71107003D01*
X183877245Y-71063546D01*
X184009274Y-70992974D01*
X184124999Y-70898001D01*
X184148801Y-70868998D01*
X184698001Y-70319799D01*
X184727000Y-70296000D01*
X184785330Y-70224925D01*
X184821973Y-70180276D01*
X184892545Y-70048246D01*
X184922592Y-69949191D01*
X184936002Y-69904984D01*
X184937970Y-69884999D01*
X194286198Y-69884999D01*
X194392791Y-69991592D01*
X194349000Y-70211740D01*
X194349000Y-70504260D01*
X194406068Y-70791158D01*
X194518010Y-71061411D01*
X194680525Y-71304632D01*
X194812380Y-71436487D01*
X194739820Y-71458498D01*
X194629506Y-71517463D01*
X194532815Y-71596815D01*
X194453463Y-71693506D01*
X194394498Y-71803820D01*
X194358188Y-71923518D01*
X194345928Y-72048000D01*
X194345928Y-73748000D01*
X194358188Y-73872482D01*
X194394498Y-73992180D01*
X194453463Y-74102494D01*
X194532815Y-74199185D01*
X194629506Y-74278537D01*
X194739820Y-74337502D01*
X194859518Y-74373812D01*
X194984000Y-74386072D01*
X196684000Y-74386072D01*
X196808482Y-74373812D01*
X196928180Y-74337502D01*
X197038494Y-74278537D01*
X197135185Y-74199185D01*
X197214537Y-74102494D01*
X197273502Y-73992180D01*
X197309812Y-73872482D01*
X197322072Y-73748000D01*
X197322072Y-72484730D01*
X197520004Y-72286798D01*
X197549002Y-72263000D01*
X197643975Y-72147275D01*
X197714547Y-72015246D01*
X197758004Y-71871985D01*
X197769001Y-71760332D01*
X197769001Y-71760323D01*
X197772677Y-71723000D01*
X197769001Y-71685677D01*
X197769001Y-69699899D01*
X204851000Y-69699899D01*
X204851000Y-70000101D01*
X204909566Y-70294534D01*
X205024449Y-70571885D01*
X205191232Y-70821493D01*
X205403507Y-71033768D01*
X205653115Y-71200551D01*
X205930466Y-71315434D01*
X206224899Y-71374000D01*
X206525101Y-71374000D01*
X206819534Y-71315434D01*
X207096885Y-71200551D01*
X207346493Y-71033768D01*
X207558768Y-70821493D01*
X207725551Y-70571885D01*
X207840434Y-70294534D01*
X207899000Y-70000101D01*
X207899000Y-69699899D01*
X211201000Y-69699899D01*
X211201000Y-70000101D01*
X211259566Y-70294534D01*
X211374449Y-70571885D01*
X211541232Y-70821493D01*
X211753507Y-71033768D01*
X212003115Y-71200551D01*
X212280466Y-71315434D01*
X212574899Y-71374000D01*
X212875101Y-71374000D01*
X213169534Y-71315434D01*
X213446885Y-71200551D01*
X213696493Y-71033768D01*
X213908768Y-70821493D01*
X214075551Y-70571885D01*
X214190434Y-70294534D01*
X214249000Y-70000101D01*
X214249000Y-69699899D01*
X214190434Y-69405466D01*
X214075551Y-69128115D01*
X213908768Y-68878507D01*
X213696493Y-68666232D01*
X213446885Y-68499449D01*
X213169534Y-68384566D01*
X212875101Y-68326000D01*
X212574899Y-68326000D01*
X212280466Y-68384566D01*
X212003115Y-68499449D01*
X211753507Y-68666232D01*
X211541232Y-68878507D01*
X211374449Y-69128115D01*
X211259566Y-69405466D01*
X211201000Y-69699899D01*
X207899000Y-69699899D01*
X207840434Y-69405466D01*
X207725551Y-69128115D01*
X207558768Y-68878507D01*
X207346493Y-68666232D01*
X207096885Y-68499449D01*
X206819534Y-68384566D01*
X206525101Y-68326000D01*
X206224899Y-68326000D01*
X205930466Y-68384566D01*
X205653115Y-68499449D01*
X205403507Y-68666232D01*
X205191232Y-68878507D01*
X205024449Y-69128115D01*
X204909566Y-69405466D01*
X204851000Y-69699899D01*
X197769001Y-69699899D01*
X197769001Y-64751321D01*
X197772677Y-64713998D01*
X197769001Y-64676675D01*
X197769001Y-64676666D01*
X197758004Y-64565013D01*
X197714547Y-64421752D01*
X197643975Y-64289723D01*
X197613004Y-64251985D01*
X197572800Y-64202995D01*
X197572796Y-64202991D01*
X197549002Y-64173998D01*
X197520010Y-64150205D01*
X197006987Y-63637184D01*
X197105641Y-63504920D01*
X197230825Y-63242099D01*
X197275476Y-63094890D01*
X197154155Y-62865000D01*
X195961000Y-62865000D01*
X195961000Y-62885000D01*
X195707000Y-62885000D01*
X195707000Y-62865000D01*
X194513845Y-62865000D01*
X194392524Y-63094890D01*
X194437175Y-63242099D01*
X194485235Y-63342999D01*
X194211801Y-63342999D01*
X193095804Y-62227003D01*
X193072001Y-62197999D01*
X192956276Y-62103026D01*
X192824247Y-62032454D01*
X192680986Y-61988997D01*
X192569333Y-61978000D01*
X192569322Y-61978000D01*
X192532000Y-61974324D01*
X192494678Y-61978000D01*
X190543553Y-61978000D01*
X190589947Y-61931606D01*
X190703215Y-61762088D01*
X190781236Y-61573730D01*
X190821010Y-61373771D01*
X190821010Y-61169893D01*
X190781236Y-60969934D01*
X190703215Y-60781576D01*
X190589947Y-60612058D01*
X190445784Y-60467895D01*
X190276266Y-60354627D01*
X190087908Y-60276606D01*
X189887949Y-60236832D01*
X189684071Y-60236832D01*
X189484112Y-60276606D01*
X189469212Y-60282778D01*
X189335446Y-60149012D01*
X189335446Y-60086874D01*
X189295672Y-59886915D01*
X189217651Y-59698557D01*
X189104383Y-59529039D01*
X188960220Y-59384876D01*
X188790702Y-59271608D01*
X188602344Y-59193587D01*
X188402385Y-59153813D01*
X188198507Y-59153813D01*
X187998548Y-59193587D01*
X187810190Y-59271608D01*
X187640672Y-59384876D01*
X187496509Y-59529039D01*
X187383241Y-59698557D01*
X187305220Y-59886915D01*
X187265446Y-60086874D01*
X187265446Y-60290752D01*
X187305220Y-60490711D01*
X187383241Y-60679069D01*
X187496509Y-60848587D01*
X187640672Y-60992750D01*
X187810190Y-61106018D01*
X187998548Y-61184039D01*
X188198507Y-61223813D01*
X188260645Y-61223813D01*
X188819666Y-61782835D01*
X188843464Y-61811833D01*
X188959189Y-61906806D01*
X188969010Y-61912055D01*
X188982073Y-61931606D01*
X189028467Y-61978000D01*
X184345711Y-61978000D01*
X184301774Y-61934063D01*
X184132256Y-61820795D01*
X183943898Y-61742774D01*
X183743939Y-61703000D01*
X183540061Y-61703000D01*
X183340102Y-61742774D01*
X183151744Y-61820795D01*
X182982226Y-61934063D01*
X182838063Y-62078226D01*
X182724795Y-62247744D01*
X182646774Y-62436102D01*
X182607000Y-62636061D01*
X182607000Y-62836275D01*
X182419898Y-62758774D01*
X182219939Y-62719000D01*
X182016061Y-62719000D01*
X181816102Y-62758774D01*
X181627744Y-62836795D01*
X181458226Y-62950063D01*
X181314063Y-63094226D01*
X181200795Y-63263744D01*
X181122774Y-63452102D01*
X181083000Y-63652061D01*
X181083000Y-63855939D01*
X181122774Y-64055898D01*
X181200795Y-64244256D01*
X181314063Y-64413774D01*
X181458226Y-64557937D01*
X181627744Y-64671205D01*
X181816102Y-64749226D01*
X182016061Y-64789000D01*
X182219939Y-64789000D01*
X182419898Y-64749226D01*
X182608256Y-64671205D01*
X182777774Y-64557937D01*
X182821711Y-64514000D01*
X184728198Y-64514000D01*
X182205199Y-67037000D01*
X182143061Y-67037000D01*
X181943102Y-67076774D01*
X181754744Y-67154795D01*
X181608000Y-67252846D01*
X181608000Y-67251711D01*
X181651937Y-67207774D01*
X181765205Y-67038256D01*
X181843226Y-66849898D01*
X181883000Y-66649939D01*
X181883000Y-66446061D01*
X181843226Y-66246102D01*
X181765205Y-66057744D01*
X181651937Y-65888226D01*
X181507774Y-65744063D01*
X181338256Y-65630795D01*
X181149898Y-65552774D01*
X180949939Y-65513000D01*
X180746061Y-65513000D01*
X180546102Y-65552774D01*
X180357744Y-65630795D01*
X180188226Y-65744063D01*
X180044063Y-65888226D01*
X179930795Y-66057744D01*
X179852774Y-66246102D01*
X179813000Y-66446061D01*
X164629478Y-66446061D01*
X164629478Y-66361575D01*
X164633154Y-66324252D01*
X164629478Y-66286930D01*
X164629478Y-66286920D01*
X164618481Y-66175267D01*
X164575024Y-66032006D01*
X164504479Y-65900028D01*
X164504479Y-65822315D01*
X164464705Y-65622356D01*
X164386684Y-65433998D01*
X164273416Y-65264480D01*
X164129253Y-65120317D01*
X163959735Y-65007049D01*
X163771377Y-64929028D01*
X163571418Y-64889254D01*
X163367540Y-64889254D01*
X163320000Y-64898710D01*
X163320000Y-60968178D01*
X163506632Y-60843475D01*
X163713475Y-60636632D01*
X163830000Y-60462240D01*
X163946525Y-60636632D01*
X164153368Y-60843475D01*
X164396589Y-61005990D01*
X164666842Y-61117932D01*
X164953740Y-61175000D01*
X165246260Y-61175000D01*
X165533158Y-61117932D01*
X165803411Y-61005990D01*
X166046632Y-60843475D01*
X166253475Y-60636632D01*
X166415990Y-60393411D01*
X166527932Y-60123158D01*
X166585000Y-59836260D01*
X166585000Y-59543740D01*
X166527932Y-59256842D01*
X166415990Y-58986589D01*
X166253475Y-58743368D01*
X166046632Y-58536525D01*
X165803411Y-58374010D01*
X165533158Y-58262068D01*
X165246260Y-58205000D01*
X164953740Y-58205000D01*
X164733592Y-58248791D01*
X164488803Y-58004002D01*
X164465000Y-57974998D01*
X164349275Y-57880025D01*
X164217246Y-57809453D01*
X164073985Y-57765996D01*
X163962332Y-57754999D01*
X163962321Y-57754999D01*
X163924999Y-57751323D01*
X163887677Y-57754999D01*
X162033321Y-57754999D01*
X161995998Y-57751323D01*
X161958675Y-57754999D01*
X161958666Y-57754999D01*
X161847013Y-57765996D01*
X161703752Y-57809453D01*
X161571723Y-57880025D01*
X161455998Y-57974998D01*
X161432199Y-58003997D01*
X160926492Y-58509705D01*
X160723411Y-58374010D01*
X160453158Y-58262068D01*
X160166260Y-58205000D01*
X159873740Y-58205000D01*
X159586842Y-58262068D01*
X159316589Y-58374010D01*
X159073368Y-58536525D01*
X158941513Y-58668380D01*
X158919502Y-58595820D01*
X158860537Y-58485506D01*
X158781185Y-58388815D01*
X158684494Y-58309463D01*
X158574180Y-58250498D01*
X158454482Y-58214188D01*
X158330000Y-58201928D01*
X157765750Y-58205000D01*
X157607000Y-58363750D01*
X157607000Y-59563000D01*
X157627000Y-59563000D01*
X157627000Y-59817000D01*
X157607000Y-59817000D01*
X157607000Y-61016250D01*
X157765750Y-61175000D01*
X158330000Y-61178072D01*
X158454482Y-61165812D01*
X158574180Y-61129502D01*
X158684494Y-61070537D01*
X158781185Y-60991185D01*
X158860537Y-60894494D01*
X158919502Y-60784180D01*
X158941513Y-60711620D01*
X159073368Y-60843475D01*
X159316589Y-61005990D01*
X159586842Y-61117932D01*
X159873740Y-61175000D01*
X160166260Y-61175000D01*
X160453158Y-61117932D01*
X160566999Y-61070778D01*
X160566999Y-61821196D01*
X160496501Y-61891694D01*
X160467497Y-61915497D01*
X160416713Y-61977378D01*
X160372524Y-62031222D01*
X160334144Y-62103026D01*
X160301952Y-62163252D01*
X160258495Y-62306513D01*
X160247498Y-62418166D01*
X160247498Y-62418176D01*
X160243822Y-62455498D01*
X160247498Y-62492820D01*
X160247499Y-110319969D01*
X157488854Y-113078615D01*
X157426716Y-113078615D01*
X157226757Y-113118389D01*
X157038399Y-113196410D01*
X156868881Y-113309678D01*
X156724718Y-113453841D01*
X156611450Y-113623359D01*
X156533429Y-113811717D01*
X156493655Y-114011676D01*
X156493655Y-114215554D01*
X156533429Y-114415513D01*
X156611450Y-114603871D01*
X156711156Y-114753092D01*
X156618471Y-114762221D01*
X156475210Y-114805678D01*
X156343232Y-114876223D01*
X156265519Y-114876223D01*
X156065560Y-114915997D01*
X155877202Y-114994018D01*
X155707684Y-115107286D01*
X155563521Y-115251449D01*
X155450253Y-115420967D01*
X155372232Y-115609325D01*
X155332458Y-115809284D01*
X155332458Y-116013162D01*
X155372232Y-116213121D01*
X155450253Y-116401479D01*
X155468953Y-116429466D01*
X155465744Y-116430795D01*
X155296226Y-116544063D01*
X155152063Y-116688226D01*
X155038795Y-116857744D01*
X154960774Y-117046102D01*
X154921000Y-117246061D01*
X154921000Y-117449939D01*
X154960774Y-117649898D01*
X154978325Y-117692270D01*
X154957744Y-117700795D01*
X154788226Y-117814063D01*
X154644063Y-117958226D01*
X154530795Y-118127744D01*
X154452774Y-118316102D01*
X154413000Y-118516061D01*
X111801143Y-118516061D01*
X111150000Y-117831527D01*
X111150000Y-111382285D01*
X123165000Y-111382285D01*
X123165000Y-112137715D01*
X123312377Y-112878628D01*
X123601467Y-113576554D01*
X124021161Y-114204670D01*
X124555330Y-114738839D01*
X125183446Y-115158533D01*
X125881372Y-115447623D01*
X126622285Y-115595000D01*
X127377715Y-115595000D01*
X128118628Y-115447623D01*
X128816554Y-115158533D01*
X129444670Y-114738839D01*
X129978839Y-114204670D01*
X130398533Y-113576554D01*
X130687623Y-112878628D01*
X130835000Y-112137715D01*
X130835000Y-111382285D01*
X130687623Y-110641372D01*
X130398533Y-109943446D01*
X129978839Y-109315330D01*
X129444670Y-108781161D01*
X128816554Y-108361467D01*
X128118628Y-108072377D01*
X127377715Y-107925000D01*
X126622285Y-107925000D01*
X125881372Y-108072377D01*
X125183446Y-108361467D01*
X124555330Y-108781161D01*
X124021161Y-109315330D01*
X123601467Y-109943446D01*
X123312377Y-110641372D01*
X123165000Y-111382285D01*
X111150000Y-111382285D01*
X111150000Y-105816061D01*
X146285000Y-105816061D01*
X146285000Y-106019939D01*
X146324774Y-106219898D01*
X146402795Y-106408256D01*
X146516063Y-106577774D01*
X146560001Y-106621712D01*
X146560000Y-112834289D01*
X146516063Y-112878226D01*
X146402795Y-113047744D01*
X146324774Y-113236102D01*
X146285000Y-113436061D01*
X146285000Y-113639939D01*
X146324774Y-113839898D01*
X146402795Y-114028256D01*
X146516063Y-114197774D01*
X146660226Y-114341937D01*
X146829744Y-114455205D01*
X147018102Y-114533226D01*
X147218061Y-114573000D01*
X147421939Y-114573000D01*
X147621898Y-114533226D01*
X147810256Y-114455205D01*
X147979774Y-114341937D01*
X148123937Y-114197774D01*
X148237205Y-114028256D01*
X148315226Y-113839898D01*
X148355000Y-113639939D01*
X148355000Y-113436061D01*
X148315226Y-113236102D01*
X148237205Y-113047744D01*
X148123937Y-112878226D01*
X148080000Y-112834289D01*
X148080000Y-106621711D01*
X148123937Y-106577774D01*
X148237205Y-106408256D01*
X148315226Y-106219898D01*
X148355000Y-106019939D01*
X148355000Y-105816061D01*
X148315226Y-105616102D01*
X148237205Y-105427744D01*
X148123937Y-105258226D01*
X147979774Y-105114063D01*
X147810256Y-105000795D01*
X147621898Y-104922774D01*
X147421939Y-104883000D01*
X147218061Y-104883000D01*
X147018102Y-104922774D01*
X146829744Y-105000795D01*
X146660226Y-105114063D01*
X146516063Y-105258226D01*
X146402795Y-105427744D01*
X146324774Y-105616102D01*
X146285000Y-105816061D01*
X111150000Y-105816061D01*
X111150000Y-102244372D01*
X111151584Y-102188842D01*
X111144569Y-102147435D01*
X111140450Y-102105617D01*
X111133731Y-102083469D01*
X111129867Y-102060660D01*
X111125000Y-102047892D01*
X111125000Y-101854000D01*
X111122560Y-101829224D01*
X111115333Y-101805399D01*
X111103597Y-101783443D01*
X111081749Y-101758527D01*
X100595315Y-92559899D01*
X108966000Y-92559899D01*
X108966000Y-92860101D01*
X109024566Y-93154534D01*
X109139449Y-93431885D01*
X109306232Y-93681493D01*
X109518507Y-93893768D01*
X109768115Y-94060551D01*
X110045466Y-94175434D01*
X110339899Y-94234000D01*
X110640101Y-94234000D01*
X110934534Y-94175434D01*
X111211885Y-94060551D01*
X111461493Y-93893768D01*
X111673768Y-93681493D01*
X111760000Y-93552438D01*
X111846232Y-93681493D01*
X112058507Y-93893768D01*
X112308115Y-94060551D01*
X112585466Y-94175434D01*
X112879899Y-94234000D01*
X113180101Y-94234000D01*
X113474534Y-94175434D01*
X113751885Y-94060551D01*
X114001493Y-93893768D01*
X114129030Y-93766231D01*
X114693374Y-93766231D01*
X114775727Y-94019289D01*
X115046418Y-94149086D01*
X115337230Y-94223580D01*
X115636988Y-94239908D01*
X115934171Y-94197443D01*
X116217359Y-94097816D01*
X116364273Y-94019289D01*
X116446626Y-93766231D01*
X115570000Y-92889605D01*
X114693374Y-93766231D01*
X114129030Y-93766231D01*
X114213768Y-93681493D01*
X114319417Y-93523378D01*
X114513769Y-93586626D01*
X115390395Y-92710000D01*
X115749605Y-92710000D01*
X116626231Y-93586626D01*
X116879289Y-93504273D01*
X117009086Y-93233582D01*
X117083580Y-92942770D01*
X117099908Y-92643012D01*
X117064089Y-92392334D01*
X131730000Y-92392334D01*
X131730000Y-92827666D01*
X131814929Y-93254633D01*
X131981524Y-93656827D01*
X132223381Y-94018793D01*
X132531207Y-94326619D01*
X132893173Y-94568476D01*
X133295367Y-94735071D01*
X133722334Y-94820000D01*
X134157666Y-94820000D01*
X134584633Y-94735071D01*
X134986827Y-94568476D01*
X135348793Y-94326619D01*
X135656619Y-94018793D01*
X135898476Y-93656827D01*
X136065071Y-93254633D01*
X136150000Y-92827666D01*
X136150000Y-92392334D01*
X136065071Y-91965367D01*
X135898476Y-91563173D01*
X135656619Y-91201207D01*
X135348793Y-90893381D01*
X134986827Y-90651524D01*
X134584633Y-90484929D01*
X134157666Y-90400000D01*
X133722334Y-90400000D01*
X133295367Y-90484929D01*
X132893173Y-90651524D01*
X132531207Y-90893381D01*
X132223381Y-91201207D01*
X131981524Y-91563173D01*
X131814929Y-91965367D01*
X131730000Y-92392334D01*
X117064089Y-92392334D01*
X117057443Y-92345829D01*
X116957816Y-92062641D01*
X116879289Y-91915727D01*
X116626231Y-91833374D01*
X115749605Y-92710000D01*
X115390395Y-92710000D01*
X114513769Y-91833374D01*
X114319417Y-91896622D01*
X114213768Y-91738507D01*
X114129030Y-91653769D01*
X114693374Y-91653769D01*
X115570000Y-92530395D01*
X116446626Y-91653769D01*
X116364273Y-91400711D01*
X116093582Y-91270914D01*
X115802770Y-91196420D01*
X115503012Y-91180092D01*
X115205829Y-91222557D01*
X114922641Y-91322184D01*
X114775727Y-91400711D01*
X114693374Y-91653769D01*
X114129030Y-91653769D01*
X114001493Y-91526232D01*
X113751885Y-91359449D01*
X113474534Y-91244566D01*
X113180101Y-91186000D01*
X112879899Y-91186000D01*
X112585466Y-91244566D01*
X112308115Y-91359449D01*
X112058507Y-91526232D01*
X111846232Y-91738507D01*
X111760000Y-91867562D01*
X111673768Y-91738507D01*
X111461493Y-91526232D01*
X111211885Y-91359449D01*
X110934534Y-91244566D01*
X110640101Y-91186000D01*
X110339899Y-91186000D01*
X110045466Y-91244566D01*
X109768115Y-91359449D01*
X109518507Y-91526232D01*
X109306232Y-91738507D01*
X109139449Y-91988115D01*
X109024566Y-92265466D01*
X108966000Y-92559899D01*
X100595315Y-92559899D01*
X98195570Y-90454860D01*
X104352245Y-90454860D01*
X104465264Y-90733884D01*
X104779249Y-90889056D01*
X105117473Y-90979991D01*
X105466938Y-91003194D01*
X105814216Y-90957775D01*
X106145960Y-90845477D01*
X106354736Y-90733884D01*
X106467755Y-90454860D01*
X119592245Y-90454860D01*
X119705264Y-90733884D01*
X120019249Y-90889056D01*
X120357473Y-90979991D01*
X120706938Y-91003194D01*
X121054216Y-90957775D01*
X121385960Y-90845477D01*
X121594736Y-90733884D01*
X121707755Y-90454860D01*
X120650000Y-89397105D01*
X119592245Y-90454860D01*
X106467755Y-90454860D01*
X105410000Y-89397105D01*
X104352245Y-90454860D01*
X98195570Y-90454860D01*
X96849889Y-89274438D01*
X103624306Y-89274438D01*
X103669725Y-89621716D01*
X103782023Y-89953460D01*
X103893616Y-90162236D01*
X104172640Y-90275255D01*
X105230395Y-89217500D01*
X105589605Y-89217500D01*
X106647360Y-90275255D01*
X106926384Y-90162236D01*
X107081556Y-89848251D01*
X107172491Y-89510027D01*
X107188133Y-89274438D01*
X118864306Y-89274438D01*
X118909725Y-89621716D01*
X119022023Y-89953460D01*
X119133616Y-90162236D01*
X119412640Y-90275255D01*
X120470395Y-89217500D01*
X120829605Y-89217500D01*
X121887360Y-90275255D01*
X122166384Y-90162236D01*
X122321556Y-89848251D01*
X122412491Y-89510027D01*
X122435694Y-89160562D01*
X122390275Y-88813284D01*
X122277977Y-88481540D01*
X122166384Y-88272764D01*
X121887360Y-88159745D01*
X120829605Y-89217500D01*
X120470395Y-89217500D01*
X119412640Y-88159745D01*
X119133616Y-88272764D01*
X118978444Y-88586749D01*
X118887509Y-88924973D01*
X118864306Y-89274438D01*
X107188133Y-89274438D01*
X107195694Y-89160562D01*
X107150275Y-88813284D01*
X107037977Y-88481540D01*
X106926384Y-88272764D01*
X106647360Y-88159745D01*
X105589605Y-89217500D01*
X105230395Y-89217500D01*
X104172640Y-88159745D01*
X103893616Y-88272764D01*
X103738444Y-88586749D01*
X103647509Y-88924973D01*
X103624306Y-89274438D01*
X96849889Y-89274438D01*
X96647000Y-89096466D01*
X96647000Y-87980140D01*
X104352245Y-87980140D01*
X105410000Y-89037895D01*
X106467755Y-87980140D01*
X119592245Y-87980140D01*
X120650000Y-89037895D01*
X121707755Y-87980140D01*
X121594736Y-87701116D01*
X121280751Y-87545944D01*
X120942527Y-87455009D01*
X120593062Y-87431806D01*
X120245784Y-87477225D01*
X119914040Y-87589523D01*
X119705264Y-87701116D01*
X119592245Y-87980140D01*
X106467755Y-87980140D01*
X106354736Y-87701116D01*
X106040751Y-87545944D01*
X105702527Y-87455009D01*
X105353062Y-87431806D01*
X105005784Y-87477225D01*
X104674040Y-87589523D01*
X104465264Y-87701116D01*
X104352245Y-87980140D01*
X96647000Y-87980140D01*
X96647000Y-86146231D01*
X101993374Y-86146231D01*
X102075727Y-86399289D01*
X102346418Y-86529086D01*
X102637230Y-86603580D01*
X102936988Y-86619908D01*
X103234171Y-86577443D01*
X103517359Y-86477816D01*
X103664273Y-86399289D01*
X103746626Y-86146231D01*
X102870000Y-85269605D01*
X101993374Y-86146231D01*
X96647000Y-86146231D01*
X96647000Y-85156988D01*
X101340092Y-85156988D01*
X101382557Y-85454171D01*
X101482184Y-85737359D01*
X101560711Y-85884273D01*
X101813769Y-85966626D01*
X102690395Y-85090000D01*
X103049605Y-85090000D01*
X103926231Y-85966626D01*
X104179289Y-85884273D01*
X104309086Y-85613582D01*
X104383580Y-85322770D01*
X104399908Y-85023012D01*
X104357443Y-84725829D01*
X104257816Y-84442641D01*
X104179289Y-84295727D01*
X103926231Y-84213374D01*
X103049605Y-85090000D01*
X102690395Y-85090000D01*
X101813769Y-84213374D01*
X101560711Y-84295727D01*
X101430914Y-84566418D01*
X101356420Y-84857230D01*
X101340092Y-85156988D01*
X96647000Y-85156988D01*
X96647000Y-79859899D01*
X101346000Y-79859899D01*
X101346000Y-80160101D01*
X101404566Y-80454534D01*
X101519449Y-80731885D01*
X101686232Y-80981493D01*
X101898507Y-81193768D01*
X102027562Y-81280000D01*
X101898507Y-81366232D01*
X101686232Y-81578507D01*
X101519449Y-81828115D01*
X101404566Y-82105466D01*
X101346000Y-82399899D01*
X101346000Y-82700101D01*
X101404566Y-82994534D01*
X101519449Y-83271885D01*
X101686232Y-83521493D01*
X101898507Y-83733768D01*
X102056622Y-83839417D01*
X101993374Y-84033769D01*
X102870000Y-84910395D01*
X103746626Y-84033769D01*
X103683378Y-83839417D01*
X103841493Y-83733768D01*
X104053768Y-83521493D01*
X104220551Y-83271885D01*
X104335434Y-82994534D01*
X104394000Y-82700101D01*
X104394000Y-82399899D01*
X104335434Y-82105466D01*
X104220551Y-81828115D01*
X104053768Y-81578507D01*
X103841493Y-81366232D01*
X103712438Y-81280000D01*
X103841493Y-81193768D01*
X104053768Y-80981493D01*
X104220551Y-80731885D01*
X104335434Y-80454534D01*
X104394000Y-80160101D01*
X104394000Y-79859899D01*
X104335434Y-79565466D01*
X104220551Y-79288115D01*
X104053768Y-79038507D01*
X103841493Y-78826232D01*
X103591885Y-78659449D01*
X103314534Y-78544566D01*
X103020101Y-78486000D01*
X102719899Y-78486000D01*
X102425466Y-78544566D01*
X102148115Y-78659449D01*
X101898507Y-78826232D01*
X101686232Y-79038507D01*
X101519449Y-79288115D01*
X101404566Y-79565466D01*
X101346000Y-79859899D01*
X96647000Y-79859899D01*
X96647000Y-77119860D01*
X104352245Y-77119860D01*
X104465264Y-77398884D01*
X104779249Y-77554056D01*
X105117473Y-77644991D01*
X105466938Y-77668194D01*
X105814216Y-77622775D01*
X106145960Y-77510477D01*
X106354736Y-77398884D01*
X106467755Y-77119860D01*
X105410000Y-76062105D01*
X104352245Y-77119860D01*
X96647000Y-77119860D01*
X96647000Y-75939438D01*
X103624306Y-75939438D01*
X103669725Y-76286716D01*
X103782023Y-76618460D01*
X103893616Y-76827236D01*
X104172640Y-76940255D01*
X105230395Y-75882500D01*
X105589605Y-75882500D01*
X106647360Y-76940255D01*
X106926384Y-76827236D01*
X107081556Y-76513251D01*
X107172491Y-76175027D01*
X107195694Y-75825562D01*
X107150275Y-75478284D01*
X107037977Y-75146540D01*
X106926384Y-74937764D01*
X106647360Y-74824745D01*
X105589605Y-75882500D01*
X105230395Y-75882500D01*
X104172640Y-74824745D01*
X103893616Y-74937764D01*
X103738444Y-75251749D01*
X103647509Y-75589973D01*
X103624306Y-75939438D01*
X96647000Y-75939438D01*
X96647000Y-74645140D01*
X104352245Y-74645140D01*
X105410000Y-75702895D01*
X106332996Y-74779899D01*
X108331000Y-74779899D01*
X108331000Y-75080101D01*
X108389566Y-75374534D01*
X108504449Y-75651885D01*
X108671232Y-75901493D01*
X108883507Y-76113768D01*
X109133115Y-76280551D01*
X109410466Y-76395434D01*
X109704899Y-76454000D01*
X110005101Y-76454000D01*
X110299534Y-76395434D01*
X110576885Y-76280551D01*
X110826493Y-76113768D01*
X111038768Y-75901493D01*
X111205551Y-75651885D01*
X111320434Y-75374534D01*
X111379000Y-75080101D01*
X111379000Y-74779899D01*
X111329377Y-74530424D01*
X114048000Y-71811801D01*
X114048001Y-79126967D01*
X114044324Y-79164299D01*
X114058998Y-79313284D01*
X114102454Y-79456545D01*
X114173026Y-79588575D01*
X114244201Y-79675301D01*
X114268000Y-79704300D01*
X114296998Y-79728098D01*
X119867257Y-85298358D01*
X119867257Y-85360495D01*
X119907031Y-85560454D01*
X119985052Y-85748812D01*
X120098320Y-85918330D01*
X120242483Y-86062493D01*
X120412001Y-86175761D01*
X120600359Y-86253782D01*
X120800318Y-86293556D01*
X121004196Y-86293556D01*
X121204155Y-86253782D01*
X121392513Y-86175761D01*
X121562031Y-86062493D01*
X121571205Y-86053319D01*
X121580884Y-86057328D01*
X121780843Y-86097102D01*
X121984721Y-86097102D01*
X122184680Y-86057328D01*
X122373038Y-85979307D01*
X122542556Y-85866039D01*
X122686719Y-85721876D01*
X122799987Y-85552358D01*
X122878008Y-85364000D01*
X122917782Y-85164041D01*
X122917782Y-85101904D01*
X122939002Y-85080684D01*
X122968001Y-85056885D01*
X123062974Y-84941160D01*
X123133546Y-84809131D01*
X123177003Y-84665870D01*
X123188000Y-84554217D01*
X123188000Y-84554209D01*
X123191676Y-84516884D01*
X123188000Y-84479559D01*
X123188000Y-82745711D01*
X123231937Y-82701774D01*
X123345205Y-82532256D01*
X123423226Y-82343898D01*
X123463000Y-82143939D01*
X123463000Y-81940061D01*
X123423226Y-81740102D01*
X123345205Y-81551744D01*
X123231937Y-81382226D01*
X123087774Y-81238063D01*
X122918256Y-81124795D01*
X122729898Y-81046774D01*
X122529939Y-81007000D01*
X122326061Y-81007000D01*
X122126102Y-81046774D01*
X121937744Y-81124795D01*
X121768226Y-81238063D01*
X121624063Y-81382226D01*
X121510795Y-81551744D01*
X121432774Y-81740102D01*
X121393000Y-81940061D01*
X121393000Y-82143939D01*
X121432774Y-82343898D01*
X121510795Y-82532256D01*
X121624063Y-82701774D01*
X121668000Y-82745711D01*
X121668001Y-84049548D01*
X121580884Y-84066876D01*
X121392526Y-84144897D01*
X121223008Y-84258165D01*
X121213834Y-84267339D01*
X121204155Y-84263330D01*
X121004196Y-84223556D01*
X120942059Y-84223556D01*
X115568000Y-78849498D01*
X115568000Y-78257061D01*
X147428000Y-78257061D01*
X147428000Y-78460939D01*
X147467774Y-78660898D01*
X147545795Y-78849256D01*
X147659063Y-79018774D01*
X147803226Y-79162937D01*
X147972744Y-79276205D01*
X148161102Y-79354226D01*
X148361061Y-79394000D01*
X148564939Y-79394000D01*
X148764898Y-79354226D01*
X148953256Y-79276205D01*
X149122774Y-79162937D01*
X149166711Y-79119000D01*
X150711678Y-79119000D01*
X150749000Y-79122676D01*
X150786322Y-79119000D01*
X150786333Y-79119000D01*
X150897986Y-79108003D01*
X151041247Y-79064546D01*
X151173276Y-78993974D01*
X151289001Y-78899001D01*
X151312804Y-78869997D01*
X151704497Y-78478304D01*
X151733501Y-78454501D01*
X151811877Y-78359000D01*
X151828474Y-78338777D01*
X151899046Y-78206747D01*
X151942503Y-78063486D01*
X151953500Y-77951833D01*
X151953500Y-77951823D01*
X151957176Y-77914500D01*
X151953500Y-77877177D01*
X151953500Y-71823711D01*
X151997437Y-71779774D01*
X152110705Y-71610256D01*
X152188726Y-71421898D01*
X152228500Y-71221939D01*
X152228500Y-71018061D01*
X152188726Y-70818102D01*
X152110705Y-70629744D01*
X151997437Y-70460226D01*
X151853274Y-70316063D01*
X151683756Y-70202795D01*
X151495398Y-70124774D01*
X151295439Y-70085000D01*
X151091561Y-70085000D01*
X150891602Y-70124774D01*
X150703244Y-70202795D01*
X150533726Y-70316063D01*
X150389563Y-70460226D01*
X150276295Y-70629744D01*
X150198274Y-70818102D01*
X150158500Y-71018061D01*
X150158500Y-71221939D01*
X150198274Y-71421898D01*
X150276295Y-71610256D01*
X150389563Y-71779774D01*
X150433500Y-71823711D01*
X150433501Y-77599000D01*
X149166711Y-77599000D01*
X149122774Y-77555063D01*
X148953256Y-77441795D01*
X148764898Y-77363774D01*
X148564939Y-77324000D01*
X148361061Y-77324000D01*
X148161102Y-77363774D01*
X147972744Y-77441795D01*
X147803226Y-77555063D01*
X147659063Y-77699226D01*
X147545795Y-77868744D01*
X147467774Y-78057102D01*
X147428000Y-78257061D01*
X115568000Y-78257061D01*
X115568000Y-77119860D01*
X119592245Y-77119860D01*
X119705264Y-77398884D01*
X120019249Y-77554056D01*
X120357473Y-77644991D01*
X120706938Y-77668194D01*
X121054216Y-77622775D01*
X121385960Y-77510477D01*
X121594736Y-77398884D01*
X121707755Y-77119860D01*
X120650000Y-76062105D01*
X119592245Y-77119860D01*
X115568000Y-77119860D01*
X115568000Y-76315712D01*
X115760466Y-76395434D01*
X116054899Y-76454000D01*
X116355101Y-76454000D01*
X116649534Y-76395434D01*
X116926885Y-76280551D01*
X117176493Y-76113768D01*
X117350823Y-75939438D01*
X118864306Y-75939438D01*
X118909725Y-76286716D01*
X119022023Y-76618460D01*
X119133616Y-76827236D01*
X119412640Y-76940255D01*
X120470395Y-75882500D01*
X120829605Y-75882500D01*
X121887360Y-76940255D01*
X122166384Y-76827236D01*
X122321556Y-76513251D01*
X122412491Y-76175027D01*
X122435694Y-75825562D01*
X122390275Y-75478284D01*
X122277977Y-75146540D01*
X122166384Y-74937764D01*
X121887360Y-74824745D01*
X120829605Y-75882500D01*
X120470395Y-75882500D01*
X119412640Y-74824745D01*
X119133616Y-74937764D01*
X118978444Y-75251749D01*
X118887509Y-75589973D01*
X118864306Y-75939438D01*
X117350823Y-75939438D01*
X117388768Y-75901493D01*
X117555551Y-75651885D01*
X117670434Y-75374534D01*
X117729000Y-75080101D01*
X117729000Y-74779899D01*
X117702195Y-74645140D01*
X119592245Y-74645140D01*
X120650000Y-75702895D01*
X121707755Y-74645140D01*
X121594736Y-74366116D01*
X121280751Y-74210944D01*
X120942527Y-74120009D01*
X120593062Y-74096806D01*
X120245784Y-74142225D01*
X119914040Y-74254523D01*
X119705264Y-74366116D01*
X119592245Y-74645140D01*
X117702195Y-74645140D01*
X117670434Y-74485466D01*
X117555551Y-74208115D01*
X117388768Y-73958507D01*
X117176493Y-73746232D01*
X116926885Y-73579449D01*
X116649534Y-73464566D01*
X116355101Y-73406000D01*
X116054899Y-73406000D01*
X115760466Y-73464566D01*
X115568000Y-73544288D01*
X115568000Y-71235712D01*
X115760466Y-71315434D01*
X116054899Y-71374000D01*
X116355101Y-71374000D01*
X116649534Y-71315434D01*
X116926885Y-71200551D01*
X117176493Y-71033768D01*
X117388768Y-70821493D01*
X117555551Y-70571885D01*
X117670434Y-70294534D01*
X117729000Y-70000101D01*
X117729000Y-69699899D01*
X117670434Y-69405466D01*
X117555551Y-69128115D01*
X117388768Y-68878507D01*
X117176493Y-68666232D01*
X116926885Y-68499449D01*
X116649534Y-68384566D01*
X116355101Y-68326000D01*
X116054899Y-68326000D01*
X115760466Y-68384566D01*
X115568000Y-68464288D01*
X115568000Y-65521151D01*
X115617898Y-65511226D01*
X115806256Y-65433205D01*
X115975774Y-65319937D01*
X116119937Y-65175774D01*
X116233205Y-65006256D01*
X116311226Y-64817898D01*
X116351000Y-64617939D01*
X116351000Y-64414061D01*
X116311226Y-64214102D01*
X116233205Y-64025744D01*
X116119937Y-63856226D01*
X115975774Y-63712063D01*
X115806256Y-63598795D01*
X115617898Y-63520774D01*
X115417939Y-63481000D01*
X115214061Y-63481000D01*
X115014102Y-63520774D01*
X114825744Y-63598795D01*
X114809157Y-63609878D01*
X114785596Y-63594135D01*
X114597238Y-63516114D01*
X114397279Y-63476340D01*
X114193401Y-63476340D01*
X113993442Y-63516114D01*
X113805084Y-63594135D01*
X113635566Y-63707403D01*
X113491403Y-63851566D01*
X113378135Y-64021084D01*
X113300114Y-64209442D01*
X113260340Y-64409401D01*
X113260340Y-64613279D01*
X113300114Y-64813238D01*
X113378135Y-65001596D01*
X113491403Y-65171114D01*
X113535341Y-65215052D01*
X113535340Y-70174858D01*
X110254576Y-73455623D01*
X110005101Y-73406000D01*
X109704899Y-73406000D01*
X109410466Y-73464566D01*
X109133115Y-73579449D01*
X108883507Y-73746232D01*
X108671232Y-73958507D01*
X108504449Y-74208115D01*
X108389566Y-74485466D01*
X108331000Y-74779899D01*
X106332996Y-74779899D01*
X106467755Y-74645140D01*
X106354736Y-74366116D01*
X106040751Y-74210944D01*
X105702527Y-74120009D01*
X105353062Y-74096806D01*
X105005784Y-74142225D01*
X104674040Y-74254523D01*
X104465264Y-74366116D01*
X104352245Y-74645140D01*
X96647000Y-74645140D01*
X96647000Y-73711485D01*
X99360720Y-69699899D01*
X108331000Y-69699899D01*
X108331000Y-70000101D01*
X108389566Y-70294534D01*
X108504449Y-70571885D01*
X108671232Y-70821493D01*
X108883507Y-71033768D01*
X109133115Y-71200551D01*
X109410466Y-71315434D01*
X109704899Y-71374000D01*
X110005101Y-71374000D01*
X110299534Y-71315434D01*
X110576885Y-71200551D01*
X110826493Y-71033768D01*
X111038768Y-70821493D01*
X111205551Y-70571885D01*
X111320434Y-70294534D01*
X111379000Y-70000101D01*
X111379000Y-69699899D01*
X111320434Y-69405466D01*
X111205551Y-69128115D01*
X111038768Y-68878507D01*
X110826493Y-68666232D01*
X110576885Y-68499449D01*
X110299534Y-68384566D01*
X110005101Y-68326000D01*
X109704899Y-68326000D01*
X109410466Y-68384566D01*
X109133115Y-68499449D01*
X108883507Y-68666232D01*
X108671232Y-68878507D01*
X108504449Y-69128115D01*
X108389566Y-69405466D01*
X108331000Y-69699899D01*
X99360720Y-69699899D01*
X104239840Y-62487285D01*
X116815000Y-62487285D01*
X116815000Y-63242715D01*
X116962377Y-63983628D01*
X117251467Y-64681554D01*
X117671161Y-65309670D01*
X118205330Y-65843839D01*
X118833446Y-66263533D01*
X119531372Y-66552623D01*
X120272285Y-66700000D01*
X121027715Y-66700000D01*
X121768628Y-66552623D01*
X122466554Y-66263533D01*
X123094670Y-65843839D01*
X123628839Y-65309670D01*
X124048533Y-64681554D01*
X124337623Y-63983628D01*
X124485000Y-63242715D01*
X124485000Y-62487285D01*
X124337623Y-61746372D01*
X124048533Y-61048446D01*
X123628839Y-60420330D01*
X123094670Y-59886161D01*
X122466554Y-59466467D01*
X121768628Y-59177377D01*
X121027715Y-59030000D01*
X120272285Y-59030000D01*
X119531372Y-59177377D01*
X118833446Y-59466467D01*
X118205330Y-59886161D01*
X117671161Y-60420330D01*
X117251467Y-61048446D01*
X116962377Y-61746372D01*
X116815000Y-62487285D01*
X104239840Y-62487285D01*
X107470893Y-57710947D01*
X109040299Y-57710947D01*
X109040299Y-58013651D01*
X109099354Y-58310538D01*
X109215194Y-58590199D01*
X109383367Y-58841888D01*
X109597410Y-59055931D01*
X109849099Y-59224104D01*
X110128760Y-59339944D01*
X110425647Y-59398999D01*
X110728351Y-59398999D01*
X111025238Y-59339944D01*
X111304899Y-59224104D01*
X111556588Y-59055931D01*
X111770631Y-58841888D01*
X111938804Y-58590199D01*
X112054644Y-58310538D01*
X112113699Y-58013651D01*
X112113699Y-57710947D01*
X112054644Y-57414060D01*
X111938804Y-57134399D01*
X111770631Y-56882710D01*
X111631449Y-56743528D01*
X111695657Y-56756300D01*
X111968341Y-56756300D01*
X112235784Y-56703102D01*
X112487711Y-56598751D01*
X112714439Y-56447256D01*
X112907255Y-56254440D01*
X113058750Y-56027712D01*
X113163101Y-55775785D01*
X113216299Y-55508342D01*
X113216299Y-55235658D01*
X114947700Y-55235658D01*
X114947700Y-55508342D01*
X115000898Y-55775785D01*
X115105249Y-56027712D01*
X115256744Y-56254440D01*
X115449560Y-56447256D01*
X115676288Y-56598751D01*
X115928215Y-56703102D01*
X116195658Y-56756300D01*
X116468342Y-56756300D01*
X116532550Y-56743528D01*
X116393368Y-56882710D01*
X116225195Y-57134399D01*
X116109355Y-57414060D01*
X116050300Y-57710947D01*
X116050300Y-58013651D01*
X116109355Y-58310538D01*
X116225195Y-58590199D01*
X116393368Y-58841888D01*
X116607411Y-59055931D01*
X116859100Y-59224104D01*
X117138761Y-59339944D01*
X117435648Y-59398999D01*
X117738352Y-59398999D01*
X118035239Y-59339944D01*
X118314900Y-59224104D01*
X118566589Y-59055931D01*
X118751945Y-58870575D01*
X128632500Y-58870575D01*
X128632500Y-59239425D01*
X128704459Y-59601188D01*
X128845612Y-59941961D01*
X129050534Y-60248649D01*
X129311351Y-60509466D01*
X129618039Y-60714388D01*
X129958812Y-60855541D01*
X130320575Y-60927500D01*
X130689425Y-60927500D01*
X131051188Y-60855541D01*
X131391961Y-60714388D01*
X131698649Y-60509466D01*
X131959466Y-60248649D01*
X132164388Y-59941961D01*
X132305541Y-59601188D01*
X132377500Y-59239425D01*
X132377500Y-58870575D01*
X133382500Y-58870575D01*
X133382500Y-59239425D01*
X133454459Y-59601188D01*
X133595612Y-59941961D01*
X133800534Y-60248649D01*
X134061351Y-60509466D01*
X134368039Y-60714388D01*
X134708812Y-60855541D01*
X135070575Y-60927500D01*
X135439425Y-60927500D01*
X135801188Y-60855541D01*
X136141961Y-60714388D01*
X136448649Y-60509466D01*
X136709466Y-60248649D01*
X136914388Y-59941961D01*
X137055541Y-59601188D01*
X137127500Y-59239425D01*
X137127500Y-58870575D01*
X137055541Y-58508812D01*
X136914388Y-58168039D01*
X136709466Y-57861351D01*
X136665615Y-57817500D01*
X138129428Y-57817500D01*
X138129428Y-60292500D01*
X138141688Y-60416982D01*
X138177998Y-60536680D01*
X138236963Y-60646994D01*
X138316315Y-60743685D01*
X138413006Y-60823037D01*
X138523320Y-60882002D01*
X138643018Y-60918312D01*
X138767500Y-60930572D01*
X141242500Y-60930572D01*
X141366982Y-60918312D01*
X141486680Y-60882002D01*
X141547606Y-60849436D01*
X141432653Y-60926245D01*
X141256245Y-61102653D01*
X141117642Y-61310087D01*
X141022171Y-61540576D01*
X140973500Y-61785261D01*
X140973500Y-62034739D01*
X141022171Y-62279424D01*
X141117642Y-62509913D01*
X141256245Y-62717347D01*
X141432653Y-62893755D01*
X141640087Y-63032358D01*
X141870576Y-63127829D01*
X142115261Y-63176500D01*
X142364739Y-63176500D01*
X142609424Y-63127829D01*
X142839913Y-63032358D01*
X143047347Y-62893755D01*
X143158805Y-62782297D01*
X154247308Y-62782297D01*
X154298447Y-63009086D01*
X154525195Y-63113129D01*
X154767885Y-63170935D01*
X155017188Y-63180285D01*
X155263525Y-63140818D01*
X155497429Y-63054051D01*
X155581553Y-63009086D01*
X155632692Y-62782297D01*
X154940000Y-62089605D01*
X154247308Y-62782297D01*
X143158805Y-62782297D01*
X143223755Y-62717347D01*
X143362358Y-62509913D01*
X143457829Y-62279424D01*
X143506500Y-62034739D01*
X143506500Y-61987188D01*
X153669715Y-61987188D01*
X153709182Y-62233525D01*
X153795949Y-62467429D01*
X153840914Y-62551553D01*
X154067703Y-62602692D01*
X154760395Y-61910000D01*
X155119605Y-61910000D01*
X155812297Y-62602692D01*
X156039086Y-62551553D01*
X156143129Y-62324805D01*
X156200935Y-62082115D01*
X156210285Y-61832812D01*
X156170818Y-61586475D01*
X156084051Y-61352571D01*
X156039086Y-61268447D01*
X155812297Y-61217308D01*
X155119605Y-61910000D01*
X154760395Y-61910000D01*
X154067703Y-61217308D01*
X153840914Y-61268447D01*
X153736871Y-61495195D01*
X153679065Y-61737885D01*
X153669715Y-61987188D01*
X143506500Y-61987188D01*
X143506500Y-61785261D01*
X143457829Y-61540576D01*
X143362358Y-61310087D01*
X143223755Y-61102653D01*
X143158805Y-61037703D01*
X154247308Y-61037703D01*
X154940000Y-61730395D01*
X155632692Y-61037703D01*
X155581553Y-60810914D01*
X155354805Y-60706871D01*
X155112115Y-60649065D01*
X154862812Y-60639715D01*
X154616475Y-60679182D01*
X154382571Y-60765949D01*
X154298447Y-60810914D01*
X154247308Y-61037703D01*
X143158805Y-61037703D01*
X143047347Y-60926245D01*
X142839913Y-60787642D01*
X142609424Y-60692171D01*
X142364739Y-60643500D01*
X142115261Y-60643500D01*
X141870576Y-60692171D01*
X141640160Y-60787612D01*
X141693685Y-60743685D01*
X141773037Y-60646994D01*
X141830227Y-60540000D01*
X155991928Y-60540000D01*
X156004188Y-60664482D01*
X156040498Y-60784180D01*
X156099463Y-60894494D01*
X156178815Y-60991185D01*
X156275506Y-61070537D01*
X156385820Y-61129502D01*
X156505518Y-61165812D01*
X156630000Y-61178072D01*
X157194250Y-61175000D01*
X157353000Y-61016250D01*
X157353000Y-59817000D01*
X156153750Y-59817000D01*
X155995000Y-59975750D01*
X155991928Y-60540000D01*
X141830227Y-60540000D01*
X141832002Y-60536680D01*
X141868312Y-60416982D01*
X141880572Y-60292500D01*
X141880572Y-58840000D01*
X155991928Y-58840000D01*
X155995000Y-59404250D01*
X156153750Y-59563000D01*
X157353000Y-59563000D01*
X157353000Y-58363750D01*
X157194250Y-58205000D01*
X156630000Y-58201928D01*
X156505518Y-58214188D01*
X156385820Y-58250498D01*
X156275506Y-58309463D01*
X156178815Y-58388815D01*
X156099463Y-58485506D01*
X156040498Y-58595820D01*
X156004188Y-58715518D01*
X155991928Y-58840000D01*
X141880572Y-58840000D01*
X141880572Y-57817500D01*
X141868312Y-57693018D01*
X141832002Y-57573320D01*
X141773037Y-57463006D01*
X141693685Y-57366315D01*
X141596994Y-57286963D01*
X141486680Y-57227998D01*
X141366982Y-57191688D01*
X141242500Y-57179428D01*
X138767500Y-57179428D01*
X138643018Y-57191688D01*
X138523320Y-57227998D01*
X138413006Y-57286963D01*
X138316315Y-57366315D01*
X138236963Y-57463006D01*
X138177998Y-57573320D01*
X138141688Y-57693018D01*
X138129428Y-57817500D01*
X136665615Y-57817500D01*
X136448649Y-57600534D01*
X136141961Y-57395612D01*
X135801188Y-57254459D01*
X135439425Y-57182500D01*
X135070575Y-57182500D01*
X134708812Y-57254459D01*
X134368039Y-57395612D01*
X134061351Y-57600534D01*
X133800534Y-57861351D01*
X133595612Y-58168039D01*
X133454459Y-58508812D01*
X133382500Y-58870575D01*
X132377500Y-58870575D01*
X132305541Y-58508812D01*
X132164388Y-58168039D01*
X131959466Y-57861351D01*
X131698649Y-57600534D01*
X131391961Y-57395612D01*
X131051188Y-57254459D01*
X130689425Y-57182500D01*
X130320575Y-57182500D01*
X129958812Y-57254459D01*
X129618039Y-57395612D01*
X129311351Y-57600534D01*
X129050534Y-57861351D01*
X128845612Y-58168039D01*
X128704459Y-58508812D01*
X128632500Y-58870575D01*
X118751945Y-58870575D01*
X118780632Y-58841888D01*
X118948805Y-58590199D01*
X119064645Y-58310538D01*
X119123700Y-58013651D01*
X119123700Y-57710947D01*
X119064645Y-57414060D01*
X118948805Y-57134399D01*
X118780632Y-56882710D01*
X118566589Y-56668667D01*
X118314900Y-56500494D01*
X118035239Y-56384654D01*
X117738352Y-56325599D01*
X117435648Y-56325599D01*
X117311378Y-56350318D01*
X117407256Y-56254440D01*
X117558751Y-56027712D01*
X117663102Y-55775785D01*
X117716300Y-55508342D01*
X117716300Y-55235658D01*
X117663102Y-54968215D01*
X117558751Y-54716288D01*
X117487732Y-54610000D01*
X153294299Y-54610000D01*
X153321040Y-54881507D01*
X153400236Y-55142581D01*
X153528843Y-55383188D01*
X153701919Y-55594081D01*
X153912812Y-55767157D01*
X154153419Y-55895764D01*
X154414493Y-55974960D01*
X154617963Y-55995000D01*
X194244315Y-55995000D01*
X194449001Y-56199686D01*
X194449000Y-59661194D01*
X194406068Y-59764842D01*
X194349000Y-60051740D01*
X194349000Y-60344260D01*
X194406068Y-60631158D01*
X194518010Y-60901411D01*
X194680525Y-61144632D01*
X194887368Y-61351475D01*
X195069534Y-61473195D01*
X194952645Y-61542822D01*
X194736412Y-61737731D01*
X194562359Y-61971080D01*
X194437175Y-62233901D01*
X194392524Y-62381110D01*
X194513845Y-62611000D01*
X195707000Y-62611000D01*
X195707000Y-62591000D01*
X195961000Y-62591000D01*
X195961000Y-62611000D01*
X197154155Y-62611000D01*
X197219443Y-62487285D01*
X197887056Y-62487285D01*
X197887056Y-63242715D01*
X198034433Y-63983628D01*
X198323523Y-64681554D01*
X198743217Y-65309670D01*
X199277386Y-65843839D01*
X199905502Y-66263533D01*
X200603428Y-66552623D01*
X201344341Y-66700000D01*
X202099771Y-66700000D01*
X202840684Y-66552623D01*
X203538610Y-66263533D01*
X204166726Y-65843839D01*
X204700895Y-65309670D01*
X205120589Y-64681554D01*
X205409679Y-63983628D01*
X205557056Y-63242715D01*
X205557056Y-62487285D01*
X205409679Y-61746372D01*
X205254219Y-61371059D01*
X205438102Y-61447226D01*
X205638061Y-61487000D01*
X205841939Y-61487000D01*
X206041898Y-61447226D01*
X206230256Y-61369205D01*
X206399774Y-61255937D01*
X206443711Y-61212000D01*
X206695199Y-61212000D01*
X208007000Y-62523802D01*
X208007000Y-62585939D01*
X208046774Y-62785898D01*
X208124795Y-62974256D01*
X208238063Y-63143774D01*
X208382226Y-63287937D01*
X208551744Y-63401205D01*
X208740102Y-63479226D01*
X208940061Y-63519000D01*
X209143939Y-63519000D01*
X209343898Y-63479226D01*
X209532256Y-63401205D01*
X209701774Y-63287937D01*
X209845937Y-63143774D01*
X209959205Y-62974256D01*
X210037226Y-62785898D01*
X210077000Y-62585939D01*
X210077000Y-62382061D01*
X210037226Y-62182102D01*
X209959205Y-61993744D01*
X209845937Y-61824226D01*
X209701774Y-61680063D01*
X209532256Y-61566795D01*
X209343898Y-61488774D01*
X209143939Y-61449000D01*
X209081802Y-61449000D01*
X207573804Y-59941003D01*
X207550001Y-59911999D01*
X207434276Y-59817026D01*
X207302247Y-59746454D01*
X207158986Y-59702997D01*
X207047333Y-59692000D01*
X207047322Y-59692000D01*
X207010000Y-59688324D01*
X206972678Y-59692000D01*
X206443711Y-59692000D01*
X206399774Y-59648063D01*
X206230256Y-59534795D01*
X206041898Y-59456774D01*
X205841939Y-59417000D01*
X205638061Y-59417000D01*
X205438102Y-59456774D01*
X205249744Y-59534795D01*
X205080226Y-59648063D01*
X204936063Y-59792226D01*
X204822795Y-59961744D01*
X204744774Y-60150102D01*
X204705000Y-60350061D01*
X204705000Y-60426474D01*
X204700895Y-60420330D01*
X204166726Y-59886161D01*
X203538610Y-59466467D01*
X202840684Y-59177377D01*
X202099771Y-59030000D01*
X201344341Y-59030000D01*
X200603428Y-59177377D01*
X199905502Y-59466467D01*
X199277386Y-59886161D01*
X198743217Y-60420330D01*
X198323523Y-61048446D01*
X198034433Y-61746372D01*
X197887056Y-62487285D01*
X197219443Y-62487285D01*
X197275476Y-62381110D01*
X197230825Y-62233901D01*
X197105641Y-61971080D01*
X196931588Y-61737731D01*
X196715355Y-61542822D01*
X196598466Y-61473195D01*
X196780632Y-61351475D01*
X196987475Y-61144632D01*
X197149990Y-60901411D01*
X197261932Y-60631158D01*
X197319000Y-60344260D01*
X197319000Y-60051740D01*
X197261932Y-59764842D01*
X197219000Y-59661195D01*
X197219000Y-57710947D01*
X203528299Y-57710947D01*
X203528299Y-58013651D01*
X203587354Y-58310538D01*
X203703194Y-58590199D01*
X203871367Y-58841888D01*
X204085410Y-59055931D01*
X204337099Y-59224104D01*
X204616760Y-59339944D01*
X204913647Y-59398999D01*
X205216351Y-59398999D01*
X205513238Y-59339944D01*
X205792899Y-59224104D01*
X206044588Y-59055931D01*
X206258631Y-58841888D01*
X206426804Y-58590199D01*
X206542644Y-58310538D01*
X206601699Y-58013651D01*
X206601699Y-57710947D01*
X206542644Y-57414060D01*
X206426804Y-57134399D01*
X206258631Y-56882710D01*
X206119449Y-56743528D01*
X206183657Y-56756300D01*
X206456341Y-56756300D01*
X206723784Y-56703102D01*
X206975711Y-56598751D01*
X207202439Y-56447256D01*
X207395255Y-56254440D01*
X207546750Y-56027712D01*
X207651101Y-55775785D01*
X207704299Y-55508342D01*
X207704299Y-55235658D01*
X209435700Y-55235658D01*
X209435700Y-55508342D01*
X209488898Y-55775785D01*
X209593249Y-56027712D01*
X209744744Y-56254440D01*
X209937560Y-56447256D01*
X210164288Y-56598751D01*
X210416215Y-56703102D01*
X210683658Y-56756300D01*
X210956342Y-56756300D01*
X211020550Y-56743528D01*
X210881368Y-56882710D01*
X210713195Y-57134399D01*
X210597355Y-57414060D01*
X210538300Y-57710947D01*
X210538300Y-58013651D01*
X210597355Y-58310538D01*
X210713195Y-58590199D01*
X210881368Y-58841888D01*
X211095411Y-59055931D01*
X211347100Y-59224104D01*
X211626761Y-59339944D01*
X211923648Y-59398999D01*
X212226352Y-59398999D01*
X212523239Y-59339944D01*
X212802900Y-59224104D01*
X213054589Y-59055931D01*
X213268632Y-58841888D01*
X213436805Y-58590199D01*
X213552645Y-58310538D01*
X213611700Y-58013651D01*
X213611700Y-57710947D01*
X213552645Y-57414060D01*
X213436805Y-57134399D01*
X213268632Y-56882710D01*
X213054589Y-56668667D01*
X212802900Y-56500494D01*
X212523239Y-56384654D01*
X212226352Y-56325599D01*
X211923648Y-56325599D01*
X211799378Y-56350318D01*
X211895256Y-56254440D01*
X212046751Y-56027712D01*
X212151102Y-55775785D01*
X212204300Y-55508342D01*
X212204300Y-55235658D01*
X212151102Y-54968215D01*
X212046751Y-54716288D01*
X211895256Y-54489560D01*
X211702440Y-54296744D01*
X211475712Y-54145249D01*
X211223785Y-54040898D01*
X210956342Y-53987700D01*
X210683658Y-53987700D01*
X210416215Y-54040898D01*
X210164288Y-54145249D01*
X209937560Y-54296744D01*
X209744744Y-54489560D01*
X209593249Y-54716288D01*
X209488898Y-54968215D01*
X209435700Y-55235658D01*
X207704299Y-55235658D01*
X207651101Y-54968215D01*
X207546750Y-54716288D01*
X207395255Y-54489560D01*
X207202439Y-54296744D01*
X206975711Y-54145249D01*
X206723784Y-54040898D01*
X206456341Y-53987700D01*
X206183657Y-53987700D01*
X205916214Y-54040898D01*
X205664287Y-54145249D01*
X205437559Y-54296744D01*
X205244743Y-54489560D01*
X205093248Y-54716288D01*
X204988897Y-54968215D01*
X204935699Y-55235658D01*
X204935699Y-55508342D01*
X204988897Y-55775785D01*
X205093248Y-56027712D01*
X205244743Y-56254440D01*
X205340621Y-56350318D01*
X205216351Y-56325599D01*
X204913647Y-56325599D01*
X204616760Y-56384654D01*
X204337099Y-56500494D01*
X204085410Y-56668667D01*
X203871367Y-56882710D01*
X203703194Y-57134399D01*
X203587354Y-57414060D01*
X203528299Y-57710947D01*
X197219000Y-57710947D01*
X197219000Y-55694029D01*
X197225700Y-55626000D01*
X197219000Y-55557971D01*
X197219000Y-55557963D01*
X197198960Y-55354493D01*
X197119764Y-55093419D01*
X196991157Y-54852812D01*
X196953641Y-54807099D01*
X196861452Y-54694766D01*
X196861450Y-54694764D01*
X196818081Y-54641919D01*
X196765236Y-54598550D01*
X195845454Y-53678769D01*
X195802081Y-53625919D01*
X195591188Y-53452843D01*
X195350581Y-53324236D01*
X195089507Y-53245040D01*
X194886037Y-53225000D01*
X194886029Y-53225000D01*
X194818000Y-53218300D01*
X194749971Y-53225000D01*
X154617963Y-53225000D01*
X154414493Y-53245040D01*
X154153419Y-53324236D01*
X153912812Y-53452843D01*
X153701919Y-53625919D01*
X153528843Y-53836812D01*
X153400236Y-54077419D01*
X153321040Y-54338493D01*
X153294299Y-54610000D01*
X117487732Y-54610000D01*
X117407256Y-54489560D01*
X117214440Y-54296744D01*
X116987712Y-54145249D01*
X116735785Y-54040898D01*
X116468342Y-53987700D01*
X116195658Y-53987700D01*
X115928215Y-54040898D01*
X115676288Y-54145249D01*
X115449560Y-54296744D01*
X115256744Y-54489560D01*
X115105249Y-54716288D01*
X115000898Y-54968215D01*
X114947700Y-55235658D01*
X113216299Y-55235658D01*
X113163101Y-54968215D01*
X113058750Y-54716288D01*
X112907255Y-54489560D01*
X112714439Y-54296744D01*
X112487711Y-54145249D01*
X112235784Y-54040898D01*
X111968341Y-53987700D01*
X111695657Y-53987700D01*
X111428214Y-54040898D01*
X111176287Y-54145249D01*
X110949559Y-54296744D01*
X110756743Y-54489560D01*
X110605248Y-54716288D01*
X110500897Y-54968215D01*
X110447699Y-55235658D01*
X110447699Y-55508342D01*
X110500897Y-55775785D01*
X110605248Y-56027712D01*
X110756743Y-56254440D01*
X110852621Y-56350318D01*
X110728351Y-56325599D01*
X110425647Y-56325599D01*
X110128760Y-56384654D01*
X109849099Y-56500494D01*
X109597410Y-56668667D01*
X109383367Y-56882710D01*
X109215194Y-57134399D01*
X109099354Y-57414060D01*
X109040299Y-57710947D01*
X107470893Y-57710947D01*
X110840358Y-52730000D01*
X211532322Y-52730000D01*
X225387044Y-72904421D01*
G37*
%TD.AperFunction*%
%TD*%
M02*
