%TF.GenerationSoftware,KiCad,Pcbnew,5.1.12-84ad8e8a86~92~ubuntu18.04.1*%
%TF.CreationDate,2021-12-07T10:10:18-05:00*%
%TF.ProjectId,Makers-Unified-Controller,4d616b65-7273-42d5-956e-69666965642d,rev?*%
%TF.SameCoordinates,Original*%
%TF.FileFunction,Paste,Top*%
%TF.FilePolarity,Positive*%
%FSLAX46Y46*%
G04 Gerber Fmt 4.6, Leading zero omitted, Abs format (unit mm)*
G04 Created by KiCad (PCBNEW 5.1.12-84ad8e8a86~92~ubuntu18.04.1) date 2021-12-07 10:10:18*
%MOMM*%
%LPD*%
G01*
G04 APERTURE LIST*
%ADD10R,2.100000X1.400000*%
%ADD11R,2.000000X0.900000*%
%ADD12R,0.900000X2.000000*%
%ADD13R,5.000000X5.000000*%
%ADD14R,1.060000X0.650000*%
%ADD15R,1.400000X2.100000*%
%ADD16R,0.900000X0.800000*%
%ADD17R,0.800000X0.900000*%
%ADD18R,1.498600X3.987800*%
%ADD19R,0.400000X1.350000*%
%ADD20R,2.100000X1.600000*%
%ADD21R,1.900000X1.900000*%
%ADD22R,1.800000X1.900000*%
%ADD23R,2.500000X1.800000*%
G04 APERTURE END LIST*
D10*
%TO.C,SW12*%
X191030000Y-125440000D03*
X200130000Y-125440000D03*
X200130000Y-120940000D03*
X191030000Y-120940000D03*
%TD*%
%TO.C,C11*%
G36*
G01*
X169222000Y-100744000D02*
X169222000Y-101694000D01*
G75*
G02*
X168972000Y-101944000I-250000J0D01*
G01*
X168297000Y-101944000D01*
G75*
G02*
X168047000Y-101694000I0J250000D01*
G01*
X168047000Y-100744000D01*
G75*
G02*
X168297000Y-100494000I250000J0D01*
G01*
X168972000Y-100494000D01*
G75*
G02*
X169222000Y-100744000I0J-250000D01*
G01*
G37*
G36*
G01*
X171297000Y-100744000D02*
X171297000Y-101694000D01*
G75*
G02*
X171047000Y-101944000I-250000J0D01*
G01*
X170372000Y-101944000D01*
G75*
G02*
X170122000Y-101694000I0J250000D01*
G01*
X170122000Y-100744000D01*
G75*
G02*
X170372000Y-100494000I250000J0D01*
G01*
X171047000Y-100494000D01*
G75*
G02*
X171297000Y-100744000I0J-250000D01*
G01*
G37*
%TD*%
%TO.C,C10*%
G36*
G01*
X149294000Y-121633000D02*
X149294000Y-120683000D01*
G75*
G02*
X149544000Y-120433000I250000J0D01*
G01*
X150219000Y-120433000D01*
G75*
G02*
X150469000Y-120683000I0J-250000D01*
G01*
X150469000Y-121633000D01*
G75*
G02*
X150219000Y-121883000I-250000J0D01*
G01*
X149544000Y-121883000D01*
G75*
G02*
X149294000Y-121633000I0J250000D01*
G01*
G37*
G36*
G01*
X147219000Y-121633000D02*
X147219000Y-120683000D01*
G75*
G02*
X147469000Y-120433000I250000J0D01*
G01*
X148144000Y-120433000D01*
G75*
G02*
X148394000Y-120683000I0J-250000D01*
G01*
X148394000Y-121633000D01*
G75*
G02*
X148144000Y-121883000I-250000J0D01*
G01*
X147469000Y-121883000D01*
G75*
G02*
X147219000Y-121633000I0J250000D01*
G01*
G37*
%TD*%
%TO.C,C9*%
G36*
G01*
X182593000Y-60785500D02*
X181643000Y-60785500D01*
G75*
G02*
X181393000Y-60535500I0J250000D01*
G01*
X181393000Y-59860500D01*
G75*
G02*
X181643000Y-59610500I250000J0D01*
G01*
X182593000Y-59610500D01*
G75*
G02*
X182843000Y-59860500I0J-250000D01*
G01*
X182843000Y-60535500D01*
G75*
G02*
X182593000Y-60785500I-250000J0D01*
G01*
G37*
G36*
G01*
X182593000Y-62860500D02*
X181643000Y-62860500D01*
G75*
G02*
X181393000Y-62610500I0J250000D01*
G01*
X181393000Y-61935500D01*
G75*
G02*
X181643000Y-61685500I250000J0D01*
G01*
X182593000Y-61685500D01*
G75*
G02*
X182843000Y-61935500I0J-250000D01*
G01*
X182843000Y-62610500D01*
G75*
G02*
X182593000Y-62860500I-250000J0D01*
G01*
G37*
%TD*%
D11*
%TO.C,U5*%
X152790000Y-121285000D03*
X152790000Y-120015000D03*
X152790000Y-118745000D03*
X152790000Y-117475000D03*
X152790000Y-116205000D03*
X152790000Y-114935000D03*
X152790000Y-113665000D03*
X152790000Y-112395000D03*
X152790000Y-111125000D03*
X152790000Y-109855000D03*
X152790000Y-108585000D03*
X152790000Y-107315000D03*
X152790000Y-106045000D03*
X152790000Y-104775000D03*
D12*
X155575000Y-103775000D03*
X156845000Y-103775000D03*
X158115000Y-103775000D03*
X159385000Y-103775000D03*
X160655000Y-103775000D03*
X161925000Y-103775000D03*
X163195000Y-103775000D03*
X164465000Y-103775000D03*
X165735000Y-103775000D03*
X167005000Y-103775000D03*
D11*
X169790000Y-104775000D03*
X169790000Y-106045000D03*
X169790000Y-107315000D03*
X169790000Y-108585000D03*
X169790000Y-109855000D03*
X169790000Y-111125000D03*
X169790000Y-112395000D03*
X169790000Y-113665000D03*
X169790000Y-114935000D03*
X169790000Y-116205000D03*
X169790000Y-117475000D03*
X169790000Y-118745000D03*
X169790000Y-120015000D03*
X169790000Y-121285000D03*
D13*
X162290000Y-113785000D03*
%TD*%
D14*
%TO.C,U3*%
X144145000Y-75880000D03*
X144145000Y-73980000D03*
X146345000Y-73980000D03*
X146345000Y-74930000D03*
X146345000Y-75880000D03*
%TD*%
%TO.C,U2*%
G36*
G01*
X185157000Y-66301000D02*
X184647000Y-66301000D01*
G75*
G02*
X184397000Y-66051000I0J250000D01*
G01*
X184397000Y-65541000D01*
G75*
G02*
X184647000Y-65291000I250000J0D01*
G01*
X185157000Y-65291000D01*
G75*
G02*
X185407000Y-65541000I0J-250000D01*
G01*
X185407000Y-66051000D01*
G75*
G02*
X185157000Y-66301000I-250000J0D01*
G01*
G37*
G36*
G01*
X183907000Y-66301000D02*
X183397000Y-66301000D01*
G75*
G02*
X183147000Y-66051000I0J250000D01*
G01*
X183147000Y-65541000D01*
G75*
G02*
X183397000Y-65291000I250000J0D01*
G01*
X183907000Y-65291000D01*
G75*
G02*
X184157000Y-65541000I0J-250000D01*
G01*
X184157000Y-66051000D01*
G75*
G02*
X183907000Y-66301000I-250000J0D01*
G01*
G37*
G36*
G01*
X185157000Y-67551000D02*
X184647000Y-67551000D01*
G75*
G02*
X184397000Y-67301000I0J250000D01*
G01*
X184397000Y-66791000D01*
G75*
G02*
X184647000Y-66541000I250000J0D01*
G01*
X185157000Y-66541000D01*
G75*
G02*
X185407000Y-66791000I0J-250000D01*
G01*
X185407000Y-67301000D01*
G75*
G02*
X185157000Y-67551000I-250000J0D01*
G01*
G37*
G36*
G01*
X183907000Y-67551000D02*
X183397000Y-67551000D01*
G75*
G02*
X183147000Y-67301000I0J250000D01*
G01*
X183147000Y-66791000D01*
G75*
G02*
X183397000Y-66541000I250000J0D01*
G01*
X183907000Y-66541000D01*
G75*
G02*
X184157000Y-66791000I0J-250000D01*
G01*
X184157000Y-67301000D01*
G75*
G02*
X183907000Y-67551000I-250000J0D01*
G01*
G37*
G36*
G01*
X182689500Y-67546000D02*
X181989500Y-67546000D01*
G75*
G02*
X181927000Y-67483500I0J62500D01*
G01*
X181927000Y-67358500D01*
G75*
G02*
X181989500Y-67296000I62500J0D01*
G01*
X182689500Y-67296000D01*
G75*
G02*
X182752000Y-67358500I0J-62500D01*
G01*
X182752000Y-67483500D01*
G75*
G02*
X182689500Y-67546000I-62500J0D01*
G01*
G37*
G36*
G01*
X182689500Y-67046000D02*
X181989500Y-67046000D01*
G75*
G02*
X181927000Y-66983500I0J62500D01*
G01*
X181927000Y-66858500D01*
G75*
G02*
X181989500Y-66796000I62500J0D01*
G01*
X182689500Y-66796000D01*
G75*
G02*
X182752000Y-66858500I0J-62500D01*
G01*
X182752000Y-66983500D01*
G75*
G02*
X182689500Y-67046000I-62500J0D01*
G01*
G37*
G36*
G01*
X182689500Y-66546000D02*
X181989500Y-66546000D01*
G75*
G02*
X181927000Y-66483500I0J62500D01*
G01*
X181927000Y-66358500D01*
G75*
G02*
X181989500Y-66296000I62500J0D01*
G01*
X182689500Y-66296000D01*
G75*
G02*
X182752000Y-66358500I0J-62500D01*
G01*
X182752000Y-66483500D01*
G75*
G02*
X182689500Y-66546000I-62500J0D01*
G01*
G37*
G36*
G01*
X182689500Y-66046000D02*
X181989500Y-66046000D01*
G75*
G02*
X181927000Y-65983500I0J62500D01*
G01*
X181927000Y-65858500D01*
G75*
G02*
X181989500Y-65796000I62500J0D01*
G01*
X182689500Y-65796000D01*
G75*
G02*
X182752000Y-65858500I0J-62500D01*
G01*
X182752000Y-65983500D01*
G75*
G02*
X182689500Y-66046000I-62500J0D01*
G01*
G37*
G36*
G01*
X182689500Y-65546000D02*
X181989500Y-65546000D01*
G75*
G02*
X181927000Y-65483500I0J62500D01*
G01*
X181927000Y-65358500D01*
G75*
G02*
X181989500Y-65296000I62500J0D01*
G01*
X182689500Y-65296000D01*
G75*
G02*
X182752000Y-65358500I0J-62500D01*
G01*
X182752000Y-65483500D01*
G75*
G02*
X182689500Y-65546000I-62500J0D01*
G01*
G37*
G36*
G01*
X183339500Y-64896000D02*
X183214500Y-64896000D01*
G75*
G02*
X183152000Y-64833500I0J62500D01*
G01*
X183152000Y-64133500D01*
G75*
G02*
X183214500Y-64071000I62500J0D01*
G01*
X183339500Y-64071000D01*
G75*
G02*
X183402000Y-64133500I0J-62500D01*
G01*
X183402000Y-64833500D01*
G75*
G02*
X183339500Y-64896000I-62500J0D01*
G01*
G37*
G36*
G01*
X183839500Y-64896000D02*
X183714500Y-64896000D01*
G75*
G02*
X183652000Y-64833500I0J62500D01*
G01*
X183652000Y-64133500D01*
G75*
G02*
X183714500Y-64071000I62500J0D01*
G01*
X183839500Y-64071000D01*
G75*
G02*
X183902000Y-64133500I0J-62500D01*
G01*
X183902000Y-64833500D01*
G75*
G02*
X183839500Y-64896000I-62500J0D01*
G01*
G37*
G36*
G01*
X184339500Y-64896000D02*
X184214500Y-64896000D01*
G75*
G02*
X184152000Y-64833500I0J62500D01*
G01*
X184152000Y-64133500D01*
G75*
G02*
X184214500Y-64071000I62500J0D01*
G01*
X184339500Y-64071000D01*
G75*
G02*
X184402000Y-64133500I0J-62500D01*
G01*
X184402000Y-64833500D01*
G75*
G02*
X184339500Y-64896000I-62500J0D01*
G01*
G37*
G36*
G01*
X184839500Y-64896000D02*
X184714500Y-64896000D01*
G75*
G02*
X184652000Y-64833500I0J62500D01*
G01*
X184652000Y-64133500D01*
G75*
G02*
X184714500Y-64071000I62500J0D01*
G01*
X184839500Y-64071000D01*
G75*
G02*
X184902000Y-64133500I0J-62500D01*
G01*
X184902000Y-64833500D01*
G75*
G02*
X184839500Y-64896000I-62500J0D01*
G01*
G37*
G36*
G01*
X185339500Y-64896000D02*
X185214500Y-64896000D01*
G75*
G02*
X185152000Y-64833500I0J62500D01*
G01*
X185152000Y-64133500D01*
G75*
G02*
X185214500Y-64071000I62500J0D01*
G01*
X185339500Y-64071000D01*
G75*
G02*
X185402000Y-64133500I0J-62500D01*
G01*
X185402000Y-64833500D01*
G75*
G02*
X185339500Y-64896000I-62500J0D01*
G01*
G37*
G36*
G01*
X186564500Y-65546000D02*
X185864500Y-65546000D01*
G75*
G02*
X185802000Y-65483500I0J62500D01*
G01*
X185802000Y-65358500D01*
G75*
G02*
X185864500Y-65296000I62500J0D01*
G01*
X186564500Y-65296000D01*
G75*
G02*
X186627000Y-65358500I0J-62500D01*
G01*
X186627000Y-65483500D01*
G75*
G02*
X186564500Y-65546000I-62500J0D01*
G01*
G37*
G36*
G01*
X186564500Y-66046000D02*
X185864500Y-66046000D01*
G75*
G02*
X185802000Y-65983500I0J62500D01*
G01*
X185802000Y-65858500D01*
G75*
G02*
X185864500Y-65796000I62500J0D01*
G01*
X186564500Y-65796000D01*
G75*
G02*
X186627000Y-65858500I0J-62500D01*
G01*
X186627000Y-65983500D01*
G75*
G02*
X186564500Y-66046000I-62500J0D01*
G01*
G37*
G36*
G01*
X186564500Y-66546000D02*
X185864500Y-66546000D01*
G75*
G02*
X185802000Y-66483500I0J62500D01*
G01*
X185802000Y-66358500D01*
G75*
G02*
X185864500Y-66296000I62500J0D01*
G01*
X186564500Y-66296000D01*
G75*
G02*
X186627000Y-66358500I0J-62500D01*
G01*
X186627000Y-66483500D01*
G75*
G02*
X186564500Y-66546000I-62500J0D01*
G01*
G37*
G36*
G01*
X186564500Y-67046000D02*
X185864500Y-67046000D01*
G75*
G02*
X185802000Y-66983500I0J62500D01*
G01*
X185802000Y-66858500D01*
G75*
G02*
X185864500Y-66796000I62500J0D01*
G01*
X186564500Y-66796000D01*
G75*
G02*
X186627000Y-66858500I0J-62500D01*
G01*
X186627000Y-66983500D01*
G75*
G02*
X186564500Y-67046000I-62500J0D01*
G01*
G37*
G36*
G01*
X186564500Y-67546000D02*
X185864500Y-67546000D01*
G75*
G02*
X185802000Y-67483500I0J62500D01*
G01*
X185802000Y-67358500D01*
G75*
G02*
X185864500Y-67296000I62500J0D01*
G01*
X186564500Y-67296000D01*
G75*
G02*
X186627000Y-67358500I0J-62500D01*
G01*
X186627000Y-67483500D01*
G75*
G02*
X186564500Y-67546000I-62500J0D01*
G01*
G37*
G36*
G01*
X185339500Y-68771000D02*
X185214500Y-68771000D01*
G75*
G02*
X185152000Y-68708500I0J62500D01*
G01*
X185152000Y-68008500D01*
G75*
G02*
X185214500Y-67946000I62500J0D01*
G01*
X185339500Y-67946000D01*
G75*
G02*
X185402000Y-68008500I0J-62500D01*
G01*
X185402000Y-68708500D01*
G75*
G02*
X185339500Y-68771000I-62500J0D01*
G01*
G37*
G36*
G01*
X184839500Y-68771000D02*
X184714500Y-68771000D01*
G75*
G02*
X184652000Y-68708500I0J62500D01*
G01*
X184652000Y-68008500D01*
G75*
G02*
X184714500Y-67946000I62500J0D01*
G01*
X184839500Y-67946000D01*
G75*
G02*
X184902000Y-68008500I0J-62500D01*
G01*
X184902000Y-68708500D01*
G75*
G02*
X184839500Y-68771000I-62500J0D01*
G01*
G37*
G36*
G01*
X184339500Y-68771000D02*
X184214500Y-68771000D01*
G75*
G02*
X184152000Y-68708500I0J62500D01*
G01*
X184152000Y-68008500D01*
G75*
G02*
X184214500Y-67946000I62500J0D01*
G01*
X184339500Y-67946000D01*
G75*
G02*
X184402000Y-68008500I0J-62500D01*
G01*
X184402000Y-68708500D01*
G75*
G02*
X184339500Y-68771000I-62500J0D01*
G01*
G37*
G36*
G01*
X183839500Y-68771000D02*
X183714500Y-68771000D01*
G75*
G02*
X183652000Y-68708500I0J62500D01*
G01*
X183652000Y-68008500D01*
G75*
G02*
X183714500Y-67946000I62500J0D01*
G01*
X183839500Y-67946000D01*
G75*
G02*
X183902000Y-68008500I0J-62500D01*
G01*
X183902000Y-68708500D01*
G75*
G02*
X183839500Y-68771000I-62500J0D01*
G01*
G37*
G36*
G01*
X183339500Y-68771000D02*
X183214500Y-68771000D01*
G75*
G02*
X183152000Y-68708500I0J62500D01*
G01*
X183152000Y-68008500D01*
G75*
G02*
X183214500Y-67946000I62500J0D01*
G01*
X183339500Y-67946000D01*
G75*
G02*
X183402000Y-68008500I0J-62500D01*
G01*
X183402000Y-68708500D01*
G75*
G02*
X183339500Y-68771000I-62500J0D01*
G01*
G37*
%TD*%
D15*
%TO.C,SW13*%
X186400000Y-116310000D03*
X186400000Y-107210000D03*
X181900000Y-107210000D03*
X181900000Y-116310000D03*
%TD*%
%TO.C,SW11*%
X209260000Y-116310000D03*
X209260000Y-107210000D03*
X204760000Y-107210000D03*
X204760000Y-116310000D03*
%TD*%
D10*
%TO.C,SW10*%
X200130000Y-98080000D03*
X191030000Y-98080000D03*
X191030000Y-102580000D03*
X200130000Y-102580000D03*
%TD*%
D15*
%TO.C,SW9*%
X113320000Y-107210000D03*
X113320000Y-116310000D03*
X117820000Y-116310000D03*
X117820000Y-107210000D03*
%TD*%
D10*
%TO.C,SW8*%
X122450000Y-125440000D03*
X131550000Y-125440000D03*
X131550000Y-120940000D03*
X122450000Y-120940000D03*
%TD*%
D15*
%TO.C,SW7*%
X140680000Y-116310000D03*
X140680000Y-107210000D03*
X136180000Y-107210000D03*
X136180000Y-116310000D03*
%TD*%
D10*
%TO.C,SW6*%
X131550000Y-98080000D03*
X122450000Y-98080000D03*
X122450000Y-102580000D03*
X131550000Y-102580000D03*
%TD*%
%TO.C,SW3*%
X148104000Y-95214000D03*
X157204000Y-95214000D03*
X157204000Y-90714000D03*
X148104000Y-90714000D03*
%TD*%
%TO.C,SW2*%
X175492000Y-90714000D03*
X166392000Y-90714000D03*
X166392000Y-95214000D03*
X175492000Y-95214000D03*
%TD*%
%TO.C,R21*%
G36*
G01*
X186620999Y-80918000D02*
X187521001Y-80918000D01*
G75*
G02*
X187771000Y-81167999I0J-249999D01*
G01*
X187771000Y-81868001D01*
G75*
G02*
X187521001Y-82118000I-249999J0D01*
G01*
X186620999Y-82118000D01*
G75*
G02*
X186371000Y-81868001I0J249999D01*
G01*
X186371000Y-81167999D01*
G75*
G02*
X186620999Y-80918000I249999J0D01*
G01*
G37*
G36*
G01*
X186620999Y-78918000D02*
X187521001Y-78918000D01*
G75*
G02*
X187771000Y-79167999I0J-249999D01*
G01*
X187771000Y-79868001D01*
G75*
G02*
X187521001Y-80118000I-249999J0D01*
G01*
X186620999Y-80118000D01*
G75*
G02*
X186371000Y-79868001I0J249999D01*
G01*
X186371000Y-79167999D01*
G75*
G02*
X186620999Y-78918000I249999J0D01*
G01*
G37*
%TD*%
%TO.C,R20*%
G36*
G01*
X183264000Y-104844001D02*
X183264000Y-103943999D01*
G75*
G02*
X183513999Y-103694000I249999J0D01*
G01*
X184214001Y-103694000D01*
G75*
G02*
X184464000Y-103943999I0J-249999D01*
G01*
X184464000Y-104844001D01*
G75*
G02*
X184214001Y-105094000I-249999J0D01*
G01*
X183513999Y-105094000D01*
G75*
G02*
X183264000Y-104844001I0J249999D01*
G01*
G37*
G36*
G01*
X181264000Y-104844001D02*
X181264000Y-103943999D01*
G75*
G02*
X181513999Y-103694000I249999J0D01*
G01*
X182214001Y-103694000D01*
G75*
G02*
X182464000Y-103943999I0J-249999D01*
G01*
X182464000Y-104844001D01*
G75*
G02*
X182214001Y-105094000I-249999J0D01*
G01*
X181513999Y-105094000D01*
G75*
G02*
X181264000Y-104844001I0J249999D01*
G01*
G37*
%TD*%
%TO.C,R19*%
G36*
G01*
X134804999Y-81045000D02*
X135705001Y-81045000D01*
G75*
G02*
X135955000Y-81294999I0J-249999D01*
G01*
X135955000Y-81995001D01*
G75*
G02*
X135705001Y-82245000I-249999J0D01*
G01*
X134804999Y-82245000D01*
G75*
G02*
X134555000Y-81995001I0J249999D01*
G01*
X134555000Y-81294999D01*
G75*
G02*
X134804999Y-81045000I249999J0D01*
G01*
G37*
G36*
G01*
X134804999Y-79045000D02*
X135705001Y-79045000D01*
G75*
G02*
X135955000Y-79294999I0J-249999D01*
G01*
X135955000Y-79995001D01*
G75*
G02*
X135705001Y-80245000I-249999J0D01*
G01*
X134804999Y-80245000D01*
G75*
G02*
X134555000Y-79995001I0J249999D01*
G01*
X134555000Y-79294999D01*
G75*
G02*
X134804999Y-79045000I249999J0D01*
G01*
G37*
%TD*%
%TO.C,R18*%
G36*
G01*
X200856001Y-117186000D02*
X199955999Y-117186000D01*
G75*
G02*
X199706000Y-116936001I0J249999D01*
G01*
X199706000Y-116235999D01*
G75*
G02*
X199955999Y-115986000I249999J0D01*
G01*
X200856001Y-115986000D01*
G75*
G02*
X201106000Y-116235999I0J-249999D01*
G01*
X201106000Y-116936001D01*
G75*
G02*
X200856001Y-117186000I-249999J0D01*
G01*
G37*
G36*
G01*
X200856001Y-119186000D02*
X199955999Y-119186000D01*
G75*
G02*
X199706000Y-118936001I0J249999D01*
G01*
X199706000Y-118235999D01*
G75*
G02*
X199955999Y-117986000I249999J0D01*
G01*
X200856001Y-117986000D01*
G75*
G02*
X201106000Y-118235999I0J-249999D01*
G01*
X201106000Y-118936001D01*
G75*
G02*
X200856001Y-119186000I-249999J0D01*
G01*
G37*
%TD*%
%TO.C,R17*%
G36*
G01*
X205174001Y-103089000D02*
X204273999Y-103089000D01*
G75*
G02*
X204024000Y-102839001I0J249999D01*
G01*
X204024000Y-102138999D01*
G75*
G02*
X204273999Y-101889000I249999J0D01*
G01*
X205174001Y-101889000D01*
G75*
G02*
X205424000Y-102138999I0J-249999D01*
G01*
X205424000Y-102839001D01*
G75*
G02*
X205174001Y-103089000I-249999J0D01*
G01*
G37*
G36*
G01*
X205174001Y-105089000D02*
X204273999Y-105089000D01*
G75*
G02*
X204024000Y-104839001I0J249999D01*
G01*
X204024000Y-104138999D01*
G75*
G02*
X204273999Y-103889000I249999J0D01*
G01*
X205174001Y-103889000D01*
G75*
G02*
X205424000Y-104138999I0J-249999D01*
G01*
X205424000Y-104839001D01*
G75*
G02*
X205174001Y-105089000I-249999J0D01*
G01*
G37*
%TD*%
%TO.C,R16*%
G36*
G01*
X188918001Y-99930000D02*
X188017999Y-99930000D01*
G75*
G02*
X187768000Y-99680001I0J249999D01*
G01*
X187768000Y-98979999D01*
G75*
G02*
X188017999Y-98730000I249999J0D01*
G01*
X188918001Y-98730000D01*
G75*
G02*
X189168000Y-98979999I0J-249999D01*
G01*
X189168000Y-99680001D01*
G75*
G02*
X188918001Y-99930000I-249999J0D01*
G01*
G37*
G36*
G01*
X188918001Y-101930000D02*
X188017999Y-101930000D01*
G75*
G02*
X187768000Y-101680001I0J249999D01*
G01*
X187768000Y-100979999D01*
G75*
G02*
X188017999Y-100730000I249999J0D01*
G01*
X188918001Y-100730000D01*
G75*
G02*
X189168000Y-100979999I0J-249999D01*
G01*
X189168000Y-101680001D01*
G75*
G02*
X188918001Y-101930000I-249999J0D01*
G01*
G37*
%TD*%
%TO.C,R15*%
G36*
G01*
X120592001Y-115408000D02*
X119691999Y-115408000D01*
G75*
G02*
X119442000Y-115158001I0J249999D01*
G01*
X119442000Y-114457999D01*
G75*
G02*
X119691999Y-114208000I249999J0D01*
G01*
X120592001Y-114208000D01*
G75*
G02*
X120842000Y-114457999I0J-249999D01*
G01*
X120842000Y-115158001D01*
G75*
G02*
X120592001Y-115408000I-249999J0D01*
G01*
G37*
G36*
G01*
X120592001Y-117408000D02*
X119691999Y-117408000D01*
G75*
G02*
X119442000Y-117158001I0J249999D01*
G01*
X119442000Y-116457999D01*
G75*
G02*
X119691999Y-116208000I249999J0D01*
G01*
X120592001Y-116208000D01*
G75*
G02*
X120842000Y-116457999I0J-249999D01*
G01*
X120842000Y-117158001D01*
G75*
G02*
X120592001Y-117408000I-249999J0D01*
G01*
G37*
%TD*%
%TO.C,R14*%
G36*
G01*
X130648000Y-118421999D02*
X130648000Y-119322001D01*
G75*
G02*
X130398001Y-119572000I-249999J0D01*
G01*
X129697999Y-119572000D01*
G75*
G02*
X129448000Y-119322001I0J249999D01*
G01*
X129448000Y-118421999D01*
G75*
G02*
X129697999Y-118172000I249999J0D01*
G01*
X130398001Y-118172000D01*
G75*
G02*
X130648000Y-118421999I0J-249999D01*
G01*
G37*
G36*
G01*
X132648000Y-118421999D02*
X132648000Y-119322001D01*
G75*
G02*
X132398001Y-119572000I-249999J0D01*
G01*
X131697999Y-119572000D01*
G75*
G02*
X131448000Y-119322001I0J249999D01*
G01*
X131448000Y-118421999D01*
G75*
G02*
X131697999Y-118172000I249999J0D01*
G01*
X132398001Y-118172000D01*
G75*
G02*
X132648000Y-118421999I0J-249999D01*
G01*
G37*
%TD*%
%TO.C,R13*%
G36*
G01*
X133407999Y-108334000D02*
X134308001Y-108334000D01*
G75*
G02*
X134558000Y-108583999I0J-249999D01*
G01*
X134558000Y-109284001D01*
G75*
G02*
X134308001Y-109534000I-249999J0D01*
G01*
X133407999Y-109534000D01*
G75*
G02*
X133158000Y-109284001I0J249999D01*
G01*
X133158000Y-108583999D01*
G75*
G02*
X133407999Y-108334000I249999J0D01*
G01*
G37*
G36*
G01*
X133407999Y-106334000D02*
X134308001Y-106334000D01*
G75*
G02*
X134558000Y-106583999I0J-249999D01*
G01*
X134558000Y-107284001D01*
G75*
G02*
X134308001Y-107534000I-249999J0D01*
G01*
X133407999Y-107534000D01*
G75*
G02*
X133158000Y-107284001I0J249999D01*
G01*
X133158000Y-106583999D01*
G75*
G02*
X133407999Y-106334000I249999J0D01*
G01*
G37*
%TD*%
%TO.C,R12*%
G36*
G01*
X124082000Y-105352001D02*
X124082000Y-104451999D01*
G75*
G02*
X124331999Y-104202000I249999J0D01*
G01*
X125032001Y-104202000D01*
G75*
G02*
X125282000Y-104451999I0J-249999D01*
G01*
X125282000Y-105352001D01*
G75*
G02*
X125032001Y-105602000I-249999J0D01*
G01*
X124331999Y-105602000D01*
G75*
G02*
X124082000Y-105352001I0J249999D01*
G01*
G37*
G36*
G01*
X122082000Y-105352001D02*
X122082000Y-104451999D01*
G75*
G02*
X122331999Y-104202000I249999J0D01*
G01*
X123032001Y-104202000D01*
G75*
G02*
X123282000Y-104451999I0J-249999D01*
G01*
X123282000Y-105352001D01*
G75*
G02*
X123032001Y-105602000I-249999J0D01*
G01*
X122331999Y-105602000D01*
G75*
G02*
X122082000Y-105352001I0J249999D01*
G01*
G37*
%TD*%
%TO.C,R11*%
G36*
G01*
X111614000Y-60763999D02*
X111614000Y-61664001D01*
G75*
G02*
X111364001Y-61914000I-249999J0D01*
G01*
X110663999Y-61914000D01*
G75*
G02*
X110414000Y-61664001I0J249999D01*
G01*
X110414000Y-60763999D01*
G75*
G02*
X110663999Y-60514000I249999J0D01*
G01*
X111364001Y-60514000D01*
G75*
G02*
X111614000Y-60763999I0J-249999D01*
G01*
G37*
G36*
G01*
X113614000Y-60763999D02*
X113614000Y-61664001D01*
G75*
G02*
X113364001Y-61914000I-249999J0D01*
G01*
X112663999Y-61914000D01*
G75*
G02*
X112414000Y-61664001I0J249999D01*
G01*
X112414000Y-60763999D01*
G75*
G02*
X112663999Y-60514000I249999J0D01*
G01*
X113364001Y-60514000D01*
G75*
G02*
X113614000Y-60763999I0J-249999D01*
G01*
G37*
%TD*%
%TO.C,R10*%
G36*
G01*
X156880000Y-88842001D02*
X156880000Y-87941999D01*
G75*
G02*
X157129999Y-87692000I249999J0D01*
G01*
X157830001Y-87692000D01*
G75*
G02*
X158080000Y-87941999I0J-249999D01*
G01*
X158080000Y-88842001D01*
G75*
G02*
X157830001Y-89092000I-249999J0D01*
G01*
X157129999Y-89092000D01*
G75*
G02*
X156880000Y-88842001I0J249999D01*
G01*
G37*
G36*
G01*
X154880000Y-88842001D02*
X154880000Y-87941999D01*
G75*
G02*
X155129999Y-87692000I249999J0D01*
G01*
X155830001Y-87692000D01*
G75*
G02*
X156080000Y-87941999I0J-249999D01*
G01*
X156080000Y-88842001D01*
G75*
G02*
X155830001Y-89092000I-249999J0D01*
G01*
X155129999Y-89092000D01*
G75*
G02*
X154880000Y-88842001I0J249999D01*
G01*
G37*
%TD*%
%TO.C,R9*%
G36*
G01*
X211490000Y-62807001D02*
X211490000Y-61906999D01*
G75*
G02*
X211739999Y-61657000I249999J0D01*
G01*
X212440001Y-61657000D01*
G75*
G02*
X212690000Y-61906999I0J-249999D01*
G01*
X212690000Y-62807001D01*
G75*
G02*
X212440001Y-63057000I-249999J0D01*
G01*
X211739999Y-63057000D01*
G75*
G02*
X211490000Y-62807001I0J249999D01*
G01*
G37*
G36*
G01*
X209490000Y-62807001D02*
X209490000Y-61906999D01*
G75*
G02*
X209739999Y-61657000I249999J0D01*
G01*
X210440001Y-61657000D01*
G75*
G02*
X210690000Y-61906999I0J-249999D01*
G01*
X210690000Y-62807001D01*
G75*
G02*
X210440001Y-63057000I-249999J0D01*
G01*
X209739999Y-63057000D01*
G75*
G02*
X209490000Y-62807001I0J249999D01*
G01*
G37*
%TD*%
%TO.C,R8*%
G36*
G01*
X166589000Y-97085999D02*
X166589000Y-97986001D01*
G75*
G02*
X166339001Y-98236000I-249999J0D01*
G01*
X165638999Y-98236000D01*
G75*
G02*
X165389000Y-97986001I0J249999D01*
G01*
X165389000Y-97085999D01*
G75*
G02*
X165638999Y-96836000I249999J0D01*
G01*
X166339001Y-96836000D01*
G75*
G02*
X166589000Y-97085999I0J-249999D01*
G01*
G37*
G36*
G01*
X168589000Y-97085999D02*
X168589000Y-97986001D01*
G75*
G02*
X168339001Y-98236000I-249999J0D01*
G01*
X167638999Y-98236000D01*
G75*
G02*
X167389000Y-97986001I0J249999D01*
G01*
X167389000Y-97085999D01*
G75*
G02*
X167638999Y-96836000I249999J0D01*
G01*
X168339001Y-96836000D01*
G75*
G02*
X168589000Y-97085999I0J-249999D01*
G01*
G37*
%TD*%
%TO.C,R7*%
G36*
G01*
X146307000Y-80841001D02*
X146307000Y-79940999D01*
G75*
G02*
X146556999Y-79691000I249999J0D01*
G01*
X147257001Y-79691000D01*
G75*
G02*
X147507000Y-79940999I0J-249999D01*
G01*
X147507000Y-80841001D01*
G75*
G02*
X147257001Y-81091000I-249999J0D01*
G01*
X146556999Y-81091000D01*
G75*
G02*
X146307000Y-80841001I0J249999D01*
G01*
G37*
G36*
G01*
X144307000Y-80841001D02*
X144307000Y-79940999D01*
G75*
G02*
X144556999Y-79691000I249999J0D01*
G01*
X145257001Y-79691000D01*
G75*
G02*
X145507000Y-79940999I0J-249999D01*
G01*
X145507000Y-80841001D01*
G75*
G02*
X145257001Y-81091000I-249999J0D01*
G01*
X144556999Y-81091000D01*
G75*
G02*
X144307000Y-80841001I0J249999D01*
G01*
G37*
%TD*%
%TO.C,R6*%
G36*
G01*
X145523000Y-77781999D02*
X145523000Y-78682001D01*
G75*
G02*
X145273001Y-78932000I-249999J0D01*
G01*
X144572999Y-78932000D01*
G75*
G02*
X144323000Y-78682001I0J249999D01*
G01*
X144323000Y-77781999D01*
G75*
G02*
X144572999Y-77532000I249999J0D01*
G01*
X145273001Y-77532000D01*
G75*
G02*
X145523000Y-77781999I0J-249999D01*
G01*
G37*
G36*
G01*
X147523000Y-77781999D02*
X147523000Y-78682001D01*
G75*
G02*
X147273001Y-78932000I-249999J0D01*
G01*
X146572999Y-78932000D01*
G75*
G02*
X146323000Y-78682001I0J249999D01*
G01*
X146323000Y-77781999D01*
G75*
G02*
X146572999Y-77532000I249999J0D01*
G01*
X147273001Y-77532000D01*
G75*
G02*
X147523000Y-77781999I0J-249999D01*
G01*
G37*
%TD*%
%TO.C,R5*%
G36*
G01*
X211490000Y-66236001D02*
X211490000Y-65335999D01*
G75*
G02*
X211739999Y-65086000I249999J0D01*
G01*
X212440001Y-65086000D01*
G75*
G02*
X212690000Y-65335999I0J-249999D01*
G01*
X212690000Y-66236001D01*
G75*
G02*
X212440001Y-66486000I-249999J0D01*
G01*
X211739999Y-66486000D01*
G75*
G02*
X211490000Y-66236001I0J249999D01*
G01*
G37*
G36*
G01*
X209490000Y-66236001D02*
X209490000Y-65335999D01*
G75*
G02*
X209739999Y-65086000I249999J0D01*
G01*
X210440001Y-65086000D01*
G75*
G02*
X210690000Y-65335999I0J-249999D01*
G01*
X210690000Y-66236001D01*
G75*
G02*
X210440001Y-66486000I-249999J0D01*
G01*
X209739999Y-66486000D01*
G75*
G02*
X209490000Y-66236001I0J249999D01*
G01*
G37*
%TD*%
%TO.C,R4*%
G36*
G01*
X178873999Y-64646000D02*
X179774001Y-64646000D01*
G75*
G02*
X180024000Y-64895999I0J-249999D01*
G01*
X180024000Y-65596001D01*
G75*
G02*
X179774001Y-65846000I-249999J0D01*
G01*
X178873999Y-65846000D01*
G75*
G02*
X178624000Y-65596001I0J249999D01*
G01*
X178624000Y-64895999D01*
G75*
G02*
X178873999Y-64646000I249999J0D01*
G01*
G37*
G36*
G01*
X178873999Y-62646000D02*
X179774001Y-62646000D01*
G75*
G02*
X180024000Y-62895999I0J-249999D01*
G01*
X180024000Y-63596001D01*
G75*
G02*
X179774001Y-63846000I-249999J0D01*
G01*
X178873999Y-63846000D01*
G75*
G02*
X178624000Y-63596001I0J249999D01*
G01*
X178624000Y-62895999D01*
G75*
G02*
X178873999Y-62646000I249999J0D01*
G01*
G37*
%TD*%
%TO.C,R3*%
G36*
G01*
X179774001Y-67783000D02*
X178873999Y-67783000D01*
G75*
G02*
X178624000Y-67533001I0J249999D01*
G01*
X178624000Y-66832999D01*
G75*
G02*
X178873999Y-66583000I249999J0D01*
G01*
X179774001Y-66583000D01*
G75*
G02*
X180024000Y-66832999I0J-249999D01*
G01*
X180024000Y-67533001D01*
G75*
G02*
X179774001Y-67783000I-249999J0D01*
G01*
G37*
G36*
G01*
X179774001Y-69783000D02*
X178873999Y-69783000D01*
G75*
G02*
X178624000Y-69533001I0J249999D01*
G01*
X178624000Y-68832999D01*
G75*
G02*
X178873999Y-68583000I249999J0D01*
G01*
X179774001Y-68583000D01*
G75*
G02*
X180024000Y-68832999I0J-249999D01*
G01*
X180024000Y-69533001D01*
G75*
G02*
X179774001Y-69783000I-249999J0D01*
G01*
G37*
%TD*%
%TO.C,R2*%
G36*
G01*
X111630000Y-63176999D02*
X111630000Y-64077001D01*
G75*
G02*
X111380001Y-64327000I-249999J0D01*
G01*
X110679999Y-64327000D01*
G75*
G02*
X110430000Y-64077001I0J249999D01*
G01*
X110430000Y-63176999D01*
G75*
G02*
X110679999Y-62927000I249999J0D01*
G01*
X111380001Y-62927000D01*
G75*
G02*
X111630000Y-63176999I0J-249999D01*
G01*
G37*
G36*
G01*
X113630000Y-63176999D02*
X113630000Y-64077001D01*
G75*
G02*
X113380001Y-64327000I-249999J0D01*
G01*
X112679999Y-64327000D01*
G75*
G02*
X112430000Y-64077001I0J249999D01*
G01*
X112430000Y-63176999D01*
G75*
G02*
X112679999Y-62927000I249999J0D01*
G01*
X113380001Y-62927000D01*
G75*
G02*
X113630000Y-63176999I0J-249999D01*
G01*
G37*
%TD*%
%TO.C,R1*%
G36*
G01*
X151314999Y-59725000D02*
X152215001Y-59725000D01*
G75*
G02*
X152465000Y-59974999I0J-249999D01*
G01*
X152465000Y-60675001D01*
G75*
G02*
X152215001Y-60925000I-249999J0D01*
G01*
X151314999Y-60925000D01*
G75*
G02*
X151065000Y-60675001I0J249999D01*
G01*
X151065000Y-59974999D01*
G75*
G02*
X151314999Y-59725000I249999J0D01*
G01*
G37*
G36*
G01*
X151314999Y-57725000D02*
X152215001Y-57725000D01*
G75*
G02*
X152465000Y-57974999I0J-249999D01*
G01*
X152465000Y-58675001D01*
G75*
G02*
X152215001Y-58925000I-249999J0D01*
G01*
X151314999Y-58925000D01*
G75*
G02*
X151065000Y-58675001I0J249999D01*
G01*
X151065000Y-57974999D01*
G75*
G02*
X151314999Y-57725000I249999J0D01*
G01*
G37*
%TD*%
D16*
%TO.C,Q3*%
X175514000Y-68133000D03*
X177514000Y-67183000D03*
X177514000Y-69083000D03*
%TD*%
%TO.C,Q2*%
X175419000Y-64196000D03*
X177419000Y-63246000D03*
X177419000Y-65146000D03*
%TD*%
D17*
%TO.C,Q1*%
X147635000Y-61690000D03*
X146685000Y-59690000D03*
X148585000Y-59690000D03*
%TD*%
D18*
%TO.C,L1*%
X145415000Y-69215000D03*
X149021800Y-69215000D03*
%TD*%
D19*
%TO.C,J1*%
X188411000Y-57158000D03*
X189061000Y-57158000D03*
X187761000Y-57158000D03*
X189711000Y-57158000D03*
X187111000Y-57158000D03*
D20*
X191511000Y-57033000D03*
X185311000Y-57033000D03*
D21*
X189611000Y-54483000D03*
X187211000Y-54483000D03*
D22*
X192211000Y-54483000D03*
X184611000Y-54483000D03*
%TD*%
%TO.C,D3*%
G36*
G01*
X187521001Y-84395000D02*
X186620999Y-84395000D01*
G75*
G02*
X186371000Y-84145001I0J249999D01*
G01*
X186371000Y-83494999D01*
G75*
G02*
X186620999Y-83245000I249999J0D01*
G01*
X187521001Y-83245000D01*
G75*
G02*
X187771000Y-83494999I0J-249999D01*
G01*
X187771000Y-84145001D01*
G75*
G02*
X187521001Y-84395000I-249999J0D01*
G01*
G37*
G36*
G01*
X187521001Y-86445000D02*
X186620999Y-86445000D01*
G75*
G02*
X186371000Y-86195001I0J249999D01*
G01*
X186371000Y-85544999D01*
G75*
G02*
X186620999Y-85295000I249999J0D01*
G01*
X187521001Y-85295000D01*
G75*
G02*
X187771000Y-85544999I0J-249999D01*
G01*
X187771000Y-86195001D01*
G75*
G02*
X187521001Y-86445000I-249999J0D01*
G01*
G37*
%TD*%
%TO.C,D2*%
G36*
G01*
X135705001Y-84395000D02*
X134804999Y-84395000D01*
G75*
G02*
X134555000Y-84145001I0J249999D01*
G01*
X134555000Y-83494999D01*
G75*
G02*
X134804999Y-83245000I249999J0D01*
G01*
X135705001Y-83245000D01*
G75*
G02*
X135955000Y-83494999I0J-249999D01*
G01*
X135955000Y-84145001D01*
G75*
G02*
X135705001Y-84395000I-249999J0D01*
G01*
G37*
G36*
G01*
X135705001Y-86445000D02*
X134804999Y-86445000D01*
G75*
G02*
X134555000Y-86195001I0J249999D01*
G01*
X134555000Y-85544999D01*
G75*
G02*
X134804999Y-85295000I249999J0D01*
G01*
X135705001Y-85295000D01*
G75*
G02*
X135955000Y-85544999I0J-249999D01*
G01*
X135955000Y-86195001D01*
G75*
G02*
X135705001Y-86445000I-249999J0D01*
G01*
G37*
%TD*%
D23*
%TO.C,D1*%
X152400000Y-54610000D03*
X148400000Y-54610000D03*
%TD*%
%TO.C,C8*%
G36*
G01*
X173953500Y-119601000D02*
X173953500Y-118651000D01*
G75*
G02*
X174203500Y-118401000I250000J0D01*
G01*
X174878500Y-118401000D01*
G75*
G02*
X175128500Y-118651000I0J-250000D01*
G01*
X175128500Y-119601000D01*
G75*
G02*
X174878500Y-119851000I-250000J0D01*
G01*
X174203500Y-119851000D01*
G75*
G02*
X173953500Y-119601000I0J250000D01*
G01*
G37*
G36*
G01*
X171878500Y-119601000D02*
X171878500Y-118651000D01*
G75*
G02*
X172128500Y-118401000I250000J0D01*
G01*
X172803500Y-118401000D01*
G75*
G02*
X173053500Y-118651000I0J-250000D01*
G01*
X173053500Y-119601000D01*
G75*
G02*
X172803500Y-119851000I-250000J0D01*
G01*
X172128500Y-119851000D01*
G75*
G02*
X171878500Y-119601000I0J250000D01*
G01*
G37*
%TD*%
%TO.C,C7*%
G36*
G01*
X178849000Y-120613500D02*
X179799000Y-120613500D01*
G75*
G02*
X180049000Y-120863500I0J-250000D01*
G01*
X180049000Y-121538500D01*
G75*
G02*
X179799000Y-121788500I-250000J0D01*
G01*
X178849000Y-121788500D01*
G75*
G02*
X178599000Y-121538500I0J250000D01*
G01*
X178599000Y-120863500D01*
G75*
G02*
X178849000Y-120613500I250000J0D01*
G01*
G37*
G36*
G01*
X178849000Y-118538500D02*
X179799000Y-118538500D01*
G75*
G02*
X180049000Y-118788500I0J-250000D01*
G01*
X180049000Y-119463500D01*
G75*
G02*
X179799000Y-119713500I-250000J0D01*
G01*
X178849000Y-119713500D01*
G75*
G02*
X178599000Y-119463500I0J250000D01*
G01*
X178599000Y-118788500D01*
G75*
G02*
X178849000Y-118538500I250000J0D01*
G01*
G37*
%TD*%
%TO.C,C6*%
G36*
G01*
X173953500Y-121633000D02*
X173953500Y-120683000D01*
G75*
G02*
X174203500Y-120433000I250000J0D01*
G01*
X174878500Y-120433000D01*
G75*
G02*
X175128500Y-120683000I0J-250000D01*
G01*
X175128500Y-121633000D01*
G75*
G02*
X174878500Y-121883000I-250000J0D01*
G01*
X174203500Y-121883000D01*
G75*
G02*
X173953500Y-121633000I0J250000D01*
G01*
G37*
G36*
G01*
X171878500Y-121633000D02*
X171878500Y-120683000D01*
G75*
G02*
X172128500Y-120433000I250000J0D01*
G01*
X172803500Y-120433000D01*
G75*
G02*
X173053500Y-120683000I0J-250000D01*
G01*
X173053500Y-121633000D01*
G75*
G02*
X172803500Y-121883000I-250000J0D01*
G01*
X172128500Y-121883000D01*
G75*
G02*
X171878500Y-121633000I0J250000D01*
G01*
G37*
%TD*%
%TO.C,C5*%
G36*
G01*
X152560000Y-75380000D02*
X153510000Y-75380000D01*
G75*
G02*
X153760000Y-75630000I0J-250000D01*
G01*
X153760000Y-76305000D01*
G75*
G02*
X153510000Y-76555000I-250000J0D01*
G01*
X152560000Y-76555000D01*
G75*
G02*
X152310000Y-76305000I0J250000D01*
G01*
X152310000Y-75630000D01*
G75*
G02*
X152560000Y-75380000I250000J0D01*
G01*
G37*
G36*
G01*
X152560000Y-73305000D02*
X153510000Y-73305000D01*
G75*
G02*
X153760000Y-73555000I0J-250000D01*
G01*
X153760000Y-74230000D01*
G75*
G02*
X153510000Y-74480000I-250000J0D01*
G01*
X152560000Y-74480000D01*
G75*
G02*
X152310000Y-74230000I0J250000D01*
G01*
X152310000Y-73555000D01*
G75*
G02*
X152560000Y-73305000I250000J0D01*
G01*
G37*
%TD*%
%TO.C,C4*%
G36*
G01*
X150020000Y-75380000D02*
X150970000Y-75380000D01*
G75*
G02*
X151220000Y-75630000I0J-250000D01*
G01*
X151220000Y-76305000D01*
G75*
G02*
X150970000Y-76555000I-250000J0D01*
G01*
X150020000Y-76555000D01*
G75*
G02*
X149770000Y-76305000I0J250000D01*
G01*
X149770000Y-75630000D01*
G75*
G02*
X150020000Y-75380000I250000J0D01*
G01*
G37*
G36*
G01*
X150020000Y-73305000D02*
X150970000Y-73305000D01*
G75*
G02*
X151220000Y-73555000I0J-250000D01*
G01*
X151220000Y-74230000D01*
G75*
G02*
X150970000Y-74480000I-250000J0D01*
G01*
X150020000Y-74480000D01*
G75*
G02*
X149770000Y-74230000I0J250000D01*
G01*
X149770000Y-73555000D01*
G75*
G02*
X150020000Y-73305000I250000J0D01*
G01*
G37*
%TD*%
%TO.C,C3*%
G36*
G01*
X138590000Y-75147500D02*
X139540000Y-75147500D01*
G75*
G02*
X139790000Y-75397500I0J-250000D01*
G01*
X139790000Y-76072500D01*
G75*
G02*
X139540000Y-76322500I-250000J0D01*
G01*
X138590000Y-76322500D01*
G75*
G02*
X138340000Y-76072500I0J250000D01*
G01*
X138340000Y-75397500D01*
G75*
G02*
X138590000Y-75147500I250000J0D01*
G01*
G37*
G36*
G01*
X138590000Y-73072500D02*
X139540000Y-73072500D01*
G75*
G02*
X139790000Y-73322500I0J-250000D01*
G01*
X139790000Y-73997500D01*
G75*
G02*
X139540000Y-74247500I-250000J0D01*
G01*
X138590000Y-74247500D01*
G75*
G02*
X138340000Y-73997500I0J250000D01*
G01*
X138340000Y-73322500D01*
G75*
G02*
X138590000Y-73072500I250000J0D01*
G01*
G37*
%TD*%
%TO.C,C2*%
G36*
G01*
X141130000Y-75147500D02*
X142080000Y-75147500D01*
G75*
G02*
X142330000Y-75397500I0J-250000D01*
G01*
X142330000Y-76072500D01*
G75*
G02*
X142080000Y-76322500I-250000J0D01*
G01*
X141130000Y-76322500D01*
G75*
G02*
X140880000Y-76072500I0J250000D01*
G01*
X140880000Y-75397500D01*
G75*
G02*
X141130000Y-75147500I250000J0D01*
G01*
G37*
G36*
G01*
X141130000Y-73072500D02*
X142080000Y-73072500D01*
G75*
G02*
X142330000Y-73322500I0J-250000D01*
G01*
X142330000Y-73997500D01*
G75*
G02*
X142080000Y-74247500I-250000J0D01*
G01*
X141130000Y-74247500D01*
G75*
G02*
X140880000Y-73997500I0J250000D01*
G01*
X140880000Y-73322500D01*
G75*
G02*
X141130000Y-73072500I250000J0D01*
G01*
G37*
%TD*%
%TO.C,C1*%
G36*
G01*
X186022000Y-60785500D02*
X185072000Y-60785500D01*
G75*
G02*
X184822000Y-60535500I0J250000D01*
G01*
X184822000Y-59860500D01*
G75*
G02*
X185072000Y-59610500I250000J0D01*
G01*
X186022000Y-59610500D01*
G75*
G02*
X186272000Y-59860500I0J-250000D01*
G01*
X186272000Y-60535500D01*
G75*
G02*
X186022000Y-60785500I-250000J0D01*
G01*
G37*
G36*
G01*
X186022000Y-62860500D02*
X185072000Y-62860500D01*
G75*
G02*
X184822000Y-62610500I0J250000D01*
G01*
X184822000Y-61935500D01*
G75*
G02*
X185072000Y-61685500I250000J0D01*
G01*
X186022000Y-61685500D01*
G75*
G02*
X186272000Y-61935500I0J-250000D01*
G01*
X186272000Y-62610500D01*
G75*
G02*
X186022000Y-62860500I-250000J0D01*
G01*
G37*
%TD*%
M02*
