M48
; DRILL file {KiCad 5.1.12-84ad8e8a86~92~ubuntu18.04.1} date Tue 07 Dec 2021 10:10:22 AM EST
; FORMAT={-:-/ absolute / inch / decimal}
; #@! TF.CreationDate,2021-12-07T10:10:22-05:00
; #@! TF.GenerationSoftware,Kicad,Pcbnew,5.1.12-84ad8e8a86~92~ubuntu18.04.1
; #@! TF.FileFunction,Plated,1,2,PTH
FMAT,2
INCH
T1C0.0157
T2C0.0197
T3C0.0297
T4C0.0350
T5C0.0354
T6C0.0390
T7C0.0394
T8C0.0510
T9C0.0550
T10C0.0650
T11C0.1260
%
G90
G05
T1
X4.32Y-2.51
X4.3247Y-2.4147
X4.4998Y-2.5398
X4.54Y-2.54
X4.66Y-4.47
X4.7599Y-3.3566
X4.7985Y-3.3489
X4.82Y-3.23
X4.92Y-4.05
X5.09Y-4.75
X5.34Y-4.2966
X5.4Y-3.4
X5.45Y-3.05
X5.45Y-3.125
X5.45Y-3.2
X5.525Y-3.2
X5.6Y-3.2
X5.8Y-4.17
X5.8Y-4.47
X5.845Y-3.085
X5.85Y-3.2
X5.925Y-3.2
X5.9525Y-2.8
X6.0Y-3.2
X6.075Y-2.975
X6.075Y-3.05
X6.075Y-3.125
X6.075Y-3.2
X6.08Y-4.77
X6.09Y-2.15
X6.105Y-3.715
X6.12Y-4.67
X6.13Y-2.15
X6.14Y-4.62
X6.1562Y-4.5634
X6.17Y-2.15
X6.2019Y-4.4927
X6.21Y-2.15
X6.33Y-4.55
X6.3674Y-2.6345
X6.3674Y-3.6445
X6.3674Y-4.2751
X6.37Y-2.47
X6.39Y-4.48
X6.4029Y-2.7132
X6.4358Y-2.5954
X6.4383Y-3.7703
X6.46Y-4.41
X6.46Y-4.55
X6.58Y-4.14
X6.6Y-4.68
X6.61Y-4.77
X6.635Y-3.575
X6.93Y-4.69
X6.935Y-4.77
X7.12Y-2.62
X7.12Y-4.79
X7.17Y-2.32
X7.17Y-2.51
X7.175Y-2.68
X7.2175Y-2.7398
X7.22Y-2.25
X7.23Y-2.47
X7.28Y-2.75
X7.3Y-2.32
X7.3Y-4.11
X7.3375Y-2.5391
X7.375Y-2.95
X7.375Y-3.0785
X7.375Y-3.45
X7.4Y-4.4
X7.4134Y-2.3696
X7.4171Y-4.4365
X7.42Y-3.86
X7.44Y-4.37
X7.4719Y-2.4123
X7.62Y-2.25
X7.7Y-3.98
X7.89Y-4.54
X8.06Y-3.98
X8.0885Y-3.56
X8.09Y-3.21
X8.1Y-2.38
X8.12Y-3.51
X8.16Y-3.27
X8.23Y-2.46
X8.38Y-2.53
T2
X4.6555Y-2.475
X4.6832Y-2.4082
X4.6832Y-2.5418
X4.75Y-2.3805
X4.75Y-2.5695
X4.8168Y-2.4082
X4.8168Y-2.5418
X4.8445Y-2.475
X4.9055Y-4.4
X4.9332Y-4.3332
X4.9332Y-4.4668
X5.0Y-4.3055
X5.0Y-4.4945
X5.0668Y-4.3332
X5.0668Y-4.4668
X5.0945Y-4.4
X7.6055Y-4.4
X7.6332Y-4.3332
X7.6332Y-4.4668
X7.7Y-4.3055
X7.7Y-4.4945
X7.7668Y-4.3332
X7.7668Y-4.4668
X7.7945Y-4.4
X7.8473Y-2.475
X7.875Y-2.4082
X7.875Y-2.5418
X7.9418Y-2.3805
X7.9418Y-2.5695
X8.0086Y-2.4082
X8.0086Y-2.5418
X8.0363Y-2.475
T3
X5.6Y-2.4374
X6.1Y-2.4374
T4
X4.05Y-3.15
X4.05Y-3.25
X4.05Y-3.35
X4.35Y-3.65
X4.45Y-3.65
X4.55Y-3.65
X7.85Y-3.15
X7.85Y-3.25
X7.85Y-3.35
X8.15Y-3.65
X8.25Y-3.65
X8.35Y-3.65
T5
X4.325Y-2.75
X4.325Y-2.95
X4.575Y-2.75
X4.575Y-2.95
X8.125Y-2.75
X8.125Y-2.95
X8.375Y-2.75
X8.375Y-2.95
T6
X4.4028Y-2.18
X4.58Y-2.18
X8.1228Y-2.18
X8.3Y-2.18
T7
X6.2Y-2.35
X6.3Y-2.35
X6.4Y-2.35
X6.5Y-2.35
X7.71Y-2.37
X7.71Y-2.47
X7.71Y-2.57
X7.71Y-2.67
X7.71Y-2.77
X7.71Y-2.87
T8
X4.3534Y-2.278
X4.6294Y-2.278
X8.0734Y-2.278
X8.3494Y-2.278
T9
X4.15Y-2.9875
X4.15Y-3.5125
X4.75Y-2.9875
X4.75Y-3.5125
X7.95Y-2.9875
X7.95Y-3.5125
X8.55Y-2.9875
X8.55Y-3.5125
T10
X5.138Y-2.325
X5.325Y-2.325
X5.512Y-2.325
T11
X4.75Y-2.475
X5.0Y-4.4
X7.7Y-4.4
X7.9418Y-2.475
T0
M30
